<?xml version="1.0" standalone="no"?>
<!DOCTYPE svg PUBLIC "-//W3C//DTD SVG 20010904//EN"
 "http://www.w3.org/TR/2001/REC-SVG-20010904/DTD/svg10.dtd">
<svg version="1.0" xmlns="http://www.w3.org/2000/svg"
 width="320.000000pt" height="320.000000pt" viewBox="0 0 320.000000 320.000000"
 preserveAspectRatio="xMidYMid meet">
<metadata>
Created by potrace 1.11, written by Peter Selinger 2001-2013
</metadata>
<g transform="translate(0.000000,320.000000) scale(0.100000,-0.100000)"
fill="#000000" stroke="none">
<path d="M1355 3185 c-135 -21 -148 -24 -230 -49 -262 -80 -483 -212 -665
-396 -135 -136 -219 -253 -300 -418 -49 -99 -95 -219 -102 -261 l-3 -24 425 0
c313 0 425 3 428 12 2 6 24 38 48 70 277 368 846 398 1173 61 50 -51 119 -153
149 -220 76 -170 91 -352 47 -575 -4 -16 -16 -55 -29 -86 -124 -309 -395 -497
-719 -500 -252 -3 -452 91 -614 287 l-42 50 -423 -2 c-233 0 -426 -2 -430 -3
-7 -1 44 -135 87 -226 129 -273 356 -525 615 -681 138 -84 327 -158 475 -188
44 -8 94 -18 110 -21 50 -10 346 -14 405 -5 114 17 145 22 151 26 4 2 24 6 44
10 59 9 231 72 319 116 193 96 340 211 506 398 56 63 152 213 205 321 54 108
113 281 130 374 2 17 7 41 10 55 25 126 26 420 2 555 -46 255 -144 484 -297
697 -25 35 -97 115 -160 178 -243 244 -538 392 -885 445 -79 13 -351 12 -430
0z"/>
</g>
</svg>
