<?xml version="1.0" encoding="UTF-8"?>
<svg width="61px" height="62px" viewBox="0 0 61 62" version="1.1" xmlns="http://www.w3.org/2000/svg" xmlns:xlink="http://www.w3.org/1999/xlink">
    <!-- Generator: Sketch 46.2 (44496) - http://www.bohemiancoding.com/sketch -->
    <title>About-us</title>
    <desc>Created with Sketch.</desc>
    <defs>
        <circle id="path-1" cx="21" cy="21.08" r="20"></circle>
        <filter x="-50.0%" y="-32.5%" width="200.0%" height="200.0%" filterUnits="objectBoundingBox" id="filter-2">
            <feOffset dx="0" dy="7" in="SourceAlpha" result="shadowOffsetOuter1"></feOffset>
            <feGaussianBlur stdDeviation="5.5" in="shadowOffsetOuter1" result="shadowBlurOuter1"></feGaussianBlur>
            <feColorMatrix values="0 0 0 0 0.333333333   0 0 0 0 0.525490196   0 0 0 0 0.870588235  0 0 0 0.0871546649 0" type="matrix" in="shadowBlurOuter1"></feColorMatrix>
        </filter>
    </defs>
    <g id="Page-1" stroke="none" stroke-width="1" fill="none" fill-rule="evenodd">
        <g id="Home-Page-Copy" transform="translate(-826.000000, -102.000000)">
            <g id="About-us" transform="translate(842.000000, 112.000000)">
                <g id="Oval-4" transform="translate(21.000000, 21.080000) rotate(89.000000) translate(-21.000000, -21.080000) ">
                    <use fill="black" fill-opacity="1" filter="url(#filter-2)" xlink:href="#path-1"></use>
                    <use fill="#FFFFFF" fill-rule="evenodd" xlink:href="#path-1"></use>
                </g>
                <path d="M21.810303,31.512987 C17.1936898,31.512987 13.4014719,28.4988338 12.0824395,24.2287835 L17.6058874,24.2287835 C18.5127221,25.5684071 19.914194,26.4056719 21.7278635,26.4056719 C24.6132467,26.4056719 26.7566742,24.145057 26.7566742,21.2146303 C26.7566742,18.2842036 24.6132467,16.0235887 21.7278635,16.0235887 C19.8317545,16.0235887 18.3478431,16.9445799 17.4410084,18.4516565 L12,18.4516565 C13.1541533,14.1816061 17.0288108,11 21.7278635,11 C27.3337509,11 31.8679245,15.6049563 31.8679245,21.2983567 C31.8679245,26.9917572 27.4161904,31.512987 21.810303,31.512987 Z" id="fav-icon" fill="#12D4C4"></path>
            </g>
        </g>
    </g>
</svg>