<?xml version="1.0" encoding="UTF-8"?>
<svg width="44px" height="66px" viewBox="0 0 44 66" version="1.1" xmlns="http://www.w3.org/2000/svg" xmlns:xlink="http://www.w3.org/1999/xlink">
    <!-- Generator: Sketch 46.2 (44496) - http://www.bohemiancoding.com/sketch -->
    <title>medal</title>
    <desc>Created with Sketch.</desc>
    <defs></defs>
    <g id="Page-1" stroke="none" stroke-width="1" fill="none" fill-rule="evenodd">
        <g id="Difference" transform="translate(-551.000000, -461.000000)" fill-rule="nonzero">
            <g id="medal" transform="translate(551.000000, 461.000000)">
                <path d="M10,40.6693587 L10,66 L22,60.0510558 L34,66 L34,40 C30.4993249,42.5431276 26.180253,44.0480322 21.5113468,44.0480322 C17.2681004,44.0480322 13.3137685,42.8048278 10,40.6693587 Z" id="Shape" fill="#12D4C4"></path>
                <path d="M22,0 C9.86916266,0 0,9.86905795 0,21.9999325 C0,29.7117876 3.98934845,36.5084412 10.0118419,40.4377333 C13.4628699,42.6891561 17.5808591,44 21.999865,44 L21.999865,0 L22,0 Z" id="Shape" fill="#FFDA44"></path>
                <path d="M44,22 C44,9.86908823 34.1307768,0 22,0 L22,44 C26.8623267,44 31.3603264,42.4133759 35.0060253,39.7321512 C40.4559455,35.7240152 44,29.2685851 44,22 Z" id="Shape" fill="#FFCD00"></path>
            </g>
        </g>
    </g>
</svg>