<?xml version="1.0" encoding="UTF-8"?>
<svg width="29px" height="28px" viewBox="0 0 29 28" version="1.1" xmlns="http://www.w3.org/2000/svg" xmlns:xlink="http://www.w3.org/1999/xlink">
    <!-- Generator: Sketch 46.2 (44496) - http://www.bohemiancoding.com/sketch -->
    <title>chat</title>
    <desc>Created with Sketch.</desc>
    <defs></defs>
    <g id="Page-1" stroke="none" stroke-width="1" fill="none" fill-rule="evenodd">
        <g id="Home-Page" transform="translate(-385.000000, -1894.000000)">
            <g id="chat" transform="translate(385.000000, 1894.000000)">
                <g id="Capa_1">
                    <g id="Group">
                        <path d="M23.1724138,9.37648214 L23.1724138,19.5694643 C23.1724138,20.8823393 22.1069655,21.9464286 20.7928966,21.9464286 L10.6206897,21.9464286 L5.79310345,27.25 L5.79310345,21.9464286 L2.37951724,21.9464286 C1.06544828,21.9464286 0,20.8823393 0,19.5699464 L0,9.37696429 C0,8.06408929 1.06544828,7 2.37951724,7 L20.7924138,7 C22.1069655,7 23.1724138,8.06408929 23.1724138,9.37648214 Z" id="Shape" fill="#33FFEE"></path>
                        <path d="M25.7928966,0 L7.37951724,0 C6.06544828,0 5,1.06408929 5,2.37696429 L5,6.75 L20.9653103,6.75 C22.2793793,6.75 23.3448276,7.81408929 23.3448276,9.12696429 L23.3448276,14.9464286 L25.7928966,14.9464286 C27.1069655,14.9464286 28.1724138,13.8823393 28.1724138,12.5694643 L28.1724138,2.37696429 C28.1724138,1.06408929 27.1069655,0 25.7928966,0 Z" id="Shape" fill="#12D4C4"></path>
                        <path d="M12.2413793,11.9642857 L5.48275862,11.9642857 C5.2157931,11.9642857 5,11.7482857 5,11.4821429 C5,11.216 5.2157931,11 5.48275862,11 L12.2413793,11 C12.5083448,11 12.7241379,11.216 12.7241379,11.4821429 C12.7241379,11.7482857 12.5083448,11.9642857 12.2413793,11.9642857 Z" id="Shape" fill="#FFFFFF"></path>
                        <path d="M18.5172414,14.9642857 L5.48275862,14.9642857 C5.2157931,14.9642857 5,14.7482857 5,14.4821429 C5,14.216 5.2157931,14 5.48275862,14 L18.5172414,14 C18.7842069,14 19,14.216 19,14.4821429 C19,14.7482857 18.7842069,14.9642857 18.5172414,14.9642857 Z" id="Shape" fill="#FFFFFF"></path>
                        <path d="M18.5172414,17.9642857 L5.48275862,17.9642857 C5.2157931,17.9642857 5,17.7482857 5,17.4821429 C5,17.216 5.2157931,17 5.48275862,17 L18.5172414,17 C18.7842069,17 19,17.216 19,17.4821429 C19,17.7482857 18.7842069,17.9642857 18.5172414,17.9642857 Z" id="Shape" fill="#FFFFFF"></path>
                    </g>
                </g>
            </g>
        </g>
    </g>
</svg>