<?xml version="1.0" encoding="UTF-8"?>
<svg width="54px" height="80px" viewBox="0 0 54 80" version="1.1" xmlns="http://www.w3.org/2000/svg" xmlns:xlink="http://www.w3.org/1999/xlink">
    <!-- Generator: Sketch 46.2 (44496) - http://www.bohemiancoding.com/sketch -->
    <title>Clients</title>
    <desc>Created with Sketch.</desc>
    <defs></defs>
    <g id="Page-1" stroke="none" stroke-width="1" fill="none" fill-rule="evenodd">
        <g id="Artboard-2" transform="translate(-1032.000000, -875.000000)" fill-rule="nonzero">
            <g id="Clients" transform="translate(1032.000000, 875.000000)">
                <g id="Group" transform="translate(0.000000, 9.000000)" fill="#00DDC0">
                    <path d="M54,4.23636047 L54,66.761922 C54,69.1030325 52.0161586,71 49.5678344,71 L4.43036947,71 C1.98384135,71 0,69.1030325 0,66.761922 L0,4.23636047 C0,1.89696754 1.98384135,0 4.43036947,0 L49.5678344,0 C52.0161586,0.000171748985 54,1.89696754 54,4.23636047 Z" id="Shape"></path>
                </g>
                <g id="Group" transform="translate(13.000000, 9.000000)" fill="#00CDB3">
                    <path d="M40.9882599,34.0401373 L40.9882599,66.6472723 C40.9882599,68.9793229 38.993348,70.8689494 36.5313612,70.8689494 L22.0946652,70.8689494 C19.3102775,67.0724169 17.6780441,62.4603253 17.6780441,57.485706 C17.6780441,44.9856 27.9858414,34.7672458 40.9882599,34.0401373 Z" id="Shape"></path>
                    <rect id="Rectangle-path" x="0.119207048" y="0.143710843" width="27.6506167" height="4.91217349"></rect>
                </g>
                <path d="M48,16.3780922 L48,73.6219078 C48,74.3829666 47.3497026,75 46.5476154,75 L6.45238462,75 C5.65029743,75 5,74.3829666 5,73.6219078 L5,16.3780922 C5,15.6170334 5.65029743,15 6.45238462,15 L46.5476154,15 C47.3497026,15 48,15.6170334 48,16.3780922 Z" id="Shape" fill="#E0E0E3"></path>
                <g id="Group" transform="translate(5.000000, 15.000000)" fill="#D1D1D1">
                    <path d="M42.876888,29.6623729 L42.876888,58.5949153 C42.876888,59.3547458 42.2290332,59.9701695 41.4291618,59.9701695 L26.5977303,59.9701695 C26.0476515,58.5330508 25.6440581,57.0272881 25.4033651,55.4732203 C25.2260124,54.350678 25.1355519,53.2023729 25.1355519,52.0352542 C25.1355519,41.4083051 32.6327178,32.4471186 42.876888,29.6623729 Z" id="Shape"></path>
                    <path d="M42.876888,55.4732203 L42.876888,58.5949153 C42.876888,59.3547458 42.2290332,59.9701695 41.4291618,59.9701695 L1.46253527,59.9701695 C0.6626639,59.9701695 0.0148091286,59.3547458 0.0148091286,58.5949153 L0.0148091286,55.4732203 L42.876888,55.4732203 Z" id="Shape"></path>
                    <path d="M33.2937759,6.58033898 L9.59881328,6.58033898 C8.59946473,6.58033898 7.78924481,5.81067797 7.78924481,4.86135593 L7.78924481,0.0937288136 L35.1033444,0.0937288136 L35.1033444,4.86135593 C35.1033444,5.81067797 34.2931245,6.58033898 33.2937759,6.58033898 Z" id="Shape"></path>
                </g>
                <path d="M32.8849878,8.27570307 C33.573121,7.41128989 33.9810485,6.33692269 33.9812347,5.1726003 C33.9814209,2.30510282 31.5422342,0.00175793618 28.5035375,9.98810537e-07 C25.4747085,-0.00175593855 23.0187653,2.31459028 23.0187653,5.1724246 C23.0187653,6.33692269 23.4266928,7.41128989 24.1150122,8.27587876 L20.5106908,8.27587876 C19.6764037,8.27587876 19,8.91417411 19,9.70145774 L19,16.574421 C19,17.3617047 19.6764037,18 20.5106908,18 L36.4893092,18 C37.3235963,18 38,17.3617047 38,16.574421 L38,9.70128205 C38,8.91399842 37.3235963,8.27570307 36.4893092,8.27570307 C36.4893092,8.27570307 32.8849878,8.27570307 32.8849878,8.27570307 Z" id="Shape" fill="#9FA0FC"></path>
                <path d="M34,4.54414489 C34,5.05489813 33.8987432,5.54388763 33.7117357,6 C32.979212,4.2024079 30.9221298,2.90816012 28.5,2.90816012 C26.0778702,2.90816012 24.020788,4.20225355 23.2882643,6 C23.1012568,5.54373328 23,5.05489813 23,4.54414489 C23,2.03406051 25.4617357,0 28.5,0 C31.5382643,0 34,2.03390615 34,4.54414489 Z" id="Shape" fill="#9FA0FC"></path>
                <path d="M36.4894805,19 L20.5107056,19 C19.6764104,19 19,18.3880748 19,17.6333165 L19,15 L38,15 L38,17.6333165 C38.0001861,18.3880748 37.3237758,19 36.4894805,19 Z" id="Shape" fill="#898AEA"></path>
                <circle id="Oval" fill="#00DDC0" cx="15.5" cy="30.5" r="2.5"></circle>
                <g id="Group" transform="translate(24.000000, 26.000000)" fill="#898AEA">
                    <path d="M6.8514,2.94587234 L1.45322857,2.94587234 C0.693047619,2.94587234 0.0767238095,2.29385106 0.0767238095,1.48921277 C0.0767238095,0.684574468 0.693047619,0.0325531915 1.45322857,0.0325531915 L6.8514,0.0325531915 C7.61158095,0.0325531915 8.22790476,0.684574468 8.22790476,1.48921277 C8.22790476,2.29385106 7.61158095,2.94587234 6.8514,2.94587234 Z" id="Shape"></path>
                    <path d="M17.5056952,8.83570213 L1.45304762,8.83570213 C0.692866667,8.83570213 0.0765428571,8.18368085 0.0765428571,7.37904255 C0.0765428571,6.57440426 0.692866667,5.92238298 1.45304762,5.92238298 L17.5056952,5.92238298 C18.2658762,5.92238298 18.8822,6.57440426 18.8822,7.37904255 C18.8822,8.18368085 18.2658762,8.83570213 17.5056952,8.83570213 Z" id="Shape"></path>
                </g>
                <circle id="Oval" fill="#00DDC0" cx="15.5" cy="45.5" r="2.5"></circle>
                <g id="Group" transform="translate(24.000000, 41.000000)" fill="#898AEA">
                    <path d="M6.8514,2.95257447 L1.45322857,2.95257447 C0.693047619,2.95257447 0.0767238095,2.30055319 0.0767238095,1.49591489 C0.0767238095,0.691276596 0.693047619,0.0392553191 1.45322857,0.0392553191 L6.8514,0.0392553191 C7.61158095,0.0392553191 8.22790476,0.691276596 8.22790476,1.49591489 C8.22790476,2.30055319 7.61158095,2.95257447 6.8514,2.95257447 Z" id="Shape"></path>
                    <path d="M17.5056952,8.84240426 L1.45304762,8.84240426 C0.692866667,8.84240426 0.0765428571,8.19038298 0.0765428571,7.38574468 C0.0765428571,6.58129787 0.692866667,5.92908511 1.45304762,5.92908511 L17.5056952,5.92908511 C18.2658762,5.92908511 18.8822,6.58110638 18.8822,7.38574468 C18.8822,8.19038298 18.2658762,8.84240426 17.5056952,8.84240426 Z" id="Shape"></path>
                </g>
                <circle id="Oval" fill="#FFCE00" cx="15.5" cy="58.5" r="2.5"></circle>
                <g id="Group" transform="translate(24.000000, 55.000000)" fill="#898AEA">
                    <path d="M6.8514,2.95889362 L1.45322857,2.95889362 C0.693047619,2.95889362 0.0767238095,2.30687234 0.0767238095,1.50223404 C0.0767238095,0.697787234 0.693047619,0.0455744681 1.45322857,0.0455744681 L6.8514,0.0455744681 C7.61158095,0.0455744681 8.22790476,0.697595745 8.22790476,1.50223404 C8.22790476,2.30687234 7.61158095,2.95889362 6.8514,2.95889362 Z" id="Shape"></path>
                    <path d="M17.5056952,8.84891489 L1.45304762,8.84891489 C0.692866667,8.84891489 0.0765428571,8.19689362 0.0765428571,7.39225532 C0.0765428571,6.58780851 0.692866667,5.93559574 1.45304762,5.93559574 L17.5056952,5.93559574 C18.2658762,5.93559574 18.8822,6.58761702 18.8822,7.39225532 C18.8822,8.19689362 18.2658762,8.84891489 17.5056952,8.84891489 Z" id="Shape"></path>
                </g>
            </g>
        </g>
    </g>
</svg>