<?xml version="1.0" encoding="UTF-8"?>
<svg width="61px" height="81px" viewBox="0 0 61 81" version="1.1" xmlns="http://www.w3.org/2000/svg" xmlns:xlink="http://www.w3.org/1999/xlink">
    <!-- Generator: Sketch 46.2 (44496) - http://www.bohemiancoding.com/sketch -->
    <title>Confidentiality</title>
    <desc>Created with Sketch.</desc>
    <defs></defs>
    <g id="Page-1" stroke="none" stroke-width="1" fill="none" fill-rule="evenodd">
        <g id="Artboard-2" transform="translate(-1029.000000, -1247.000000)" fill-rule="nonzero">
            <g id="Confidentiality" transform="translate(1029.000000, 1247.000000)">
                <path d="M30.5,0 C30.5,0 21.2571136,11.1724138 0,11.1724138 L0,37.8256034 C0,51.7436379 6.00018182,65.1658966 16.8637273,73.7658621 C20.7081136,76.8103448 25.2429091,79.4288793 30.5,81 C35.7570909,79.4288793 40.2905,76.8103448 44.1362727,73.7658621 C54.9998182,65.1658966 61,51.7436379 61,37.8256034 L61,11.1724138 C39.7428864,11.1724138 30.5,0 30.5,0 Z" id="Shape" fill="#898AEA"></path>
                <path d="M29,72 C26.080875,70.8407063 23.25525,69.1817891 20.574,67.0482991 C12.07375,60.2873765 7,49.3527184 7,37.797358 L7,19.0691292 C17.162625,17.7567475 24.378625,14.1786635 29,11 C33.621375,14.1786635 40.837375,17.7567475 51,19.0691292 L51,37.797358 C51,49.3527184 45.92625,60.2873765 37.427375,67.0482991 C34.74475,69.1817891 31.919125,70.8407063 29,72 Z" id="Shape" fill="#B1B2FE"></path>
                <path d="M49.5171792,27.3298524 C48.9278474,26.8445024 48.0339332,26.9018377 47.518268,27.4551901 L28.6809028,47.715887 L18.4185976,38.0568881 C17.8646824,37.5355368 16.9693515,37.5355368 16.4154364,38.0568881 C15.8615212,38.5782394 15.8615212,39.420935 16.4154364,39.9422863 L27.7487387,50.6093199 C28.0150713,50.8599952 28.3749037,51 28.7503193,51 C28.7659026,51 28.7814859,51 28.7970692,51 C29.1894848,50.9879996 29.5578171,50.8226606 29.8156497,50.5453177 L49.6489288,29.2112505 C50.1645941,28.6565647 50.1050942,27.8138691 49.5171792,27.3298524 Z" id="Shape" fill="#FFFFFF"></path>
            </g>
        </g>
    </g>
</svg>