<?xml version="1.0" encoding="UTF-8"?>
<svg width="77px" height="77px" viewBox="0 0 77 77" version="1.1" xmlns="http://www.w3.org/2000/svg" xmlns:xlink="http://www.w3.org/1999/xlink">
    <!-- Generator: Sketch 46.2 (44496) - http://www.bohemiancoding.com/sketch -->
    <title>developemnt</title>
    <desc>Created with Sketch.</desc>
    <defs>
        <circle id="path-1" cx="27.5" cy="27.5" r="27.5"></circle>
        <filter x="-36.4%" y="-23.6%" width="172.7%" height="172.7%" filterUnits="objectBoundingBox" id="filter-2">
            <feOffset dx="0" dy="7" in="SourceAlpha" result="shadowOffsetOuter1"></feOffset>
            <feGaussianBlur stdDeviation="5.5" in="shadowOffsetOuter1" result="shadowBlurOuter1"></feGaussianBlur>
            <feColorMatrix values="0 0 0 0 0.333333333   0 0 0 0 0.525490196   0 0 0 0 0.870588235  0 0 0 0.0871546649 0" type="matrix" in="shadowBlurOuter1"></feColorMatrix>
        </filter>
    </defs>
    <g id="Page-1" stroke="none" stroke-width="1" fill="none" fill-rule="evenodd">
        <g id="Learn-Page" transform="translate(-744.000000, -1961.000000)">
            <g id="developemnt" transform="translate(755.000000, 1965.000000)">
                <g id="Oval-4">
                    <use fill="black" fill-opacity="1" filter="url(#filter-2)" xlink:href="#path-1"></use>
                    <use fill="#FFFFFF" fill-rule="evenodd" xlink:href="#path-1"></use>
                </g>
                <g id="settings-(2)" transform="translate(12.000000, 11.000000)" fill-rule="nonzero">
                    <path d="M28.3580331,11.9230639 C28.0938027,10.8632154 27.653503,9.80336679 27.1250421,8.8319305 L28.1818795,6.35900687 L24.4829909,2.73790691 L22.0170933,3.79775547 C21.0483328,3.26787345 20.0795723,2.82623467 18.9347424,2.56125139 L18.0540587,0 L12.8580331,0 L11.8892725,2.56125139 C10.8324352,2.82623467 9.77559787,3.26778893 8.80692162,3.79775547 L6.34093974,2.73790691 L2.730128,6.35900687 L3.78696534,8.8319305 C3.25858881,9.80345131 2.8182048,10.7749721 2.5539744,11.9230639 L0,12.8945847 L0,18.1054153 L2.5539744,19.0769361 C2.8182048,20.1367846 3.25850453,21.1966332 3.78696534,22.1680695 L2.730128,24.6409931 L6.42901654,28.2620931 L8.89491414,27.2022445 C9.86367467,27.7321265 10.8324352,28.1737653 11.9772651,28.4387486 L12.9460256,31 L18.0539744,31 L19.0227349,28.4387486 C20.0795723,28.1737653 21.1364096,27.7322111 22.1050859,27.2022445 L24.5709835,28.2620931 L28.269872,24.6409931 L27.2130347,22.1680695 C27.7414112,21.1965487 28.1817952,20.2250279 28.4460256,19.0769361 L31,18.1054153 L31,12.8945847 L28.3580331,11.9230639 Z M15.4120075,21.814843 C11.8892725,21.814843 9.07106774,18.9886083 9.07106774,15.4558361 C9.07106774,11.9230639 11.8892725,9.09682925 15.4120075,9.09682925 C18.9347424,9.09682925 21.7529472,11.9230639 21.7529472,15.4558361 C21.7529472,18.9886083 18.9347424,21.814843 15.4120075,21.814843 Z" id="Shape" fill="#12D4C4"></path>
                    <g id="Group" transform="translate(6.000000, 6.000000)" fill="#33FFEE">
                        <path d="M13.9279248,13.9065771 C11.4682655,16.3554009 7.51517257,16.3554009 5.05551327,13.9065771 L2.77156195,16.180467 C6.46109292,19.8537445 12.5224292,19.8537445 16.2118761,16.180467 C19.901323,12.5071894 19.9014071,6.56002203 16.2118761,2.79936123 L13.9279248,5.0732511 C16.3876681,7.52207489 16.3876681,11.4577533 13.9279248,13.9065771 Z" id="Shape"></path>
                        <path d="M2.77156195,2.79936123 C-0.917969027,6.47263877 -0.917969027,12.4198062 2.77156195,16.180467 L5.05551327,13.9065771 C2.59585398,11.4577533 2.59585398,7.52207489 5.05551327,5.0732511 C7.51517257,2.62442731 11.4682655,2.62442731 13.9279248,5.0732511 L16.2118761,2.79936123 C12.5224292,-0.8739163 6.46109292,-0.8739163 2.77156195,2.79936123 Z" id="Shape"></path>
                    </g>
                </g>
            </g>
        </g>
    </g>
</svg>