<?xml version="1.0" encoding="UTF-8"?>
<svg width="62px" height="62px" viewBox="0 0 62 62" version="1.1" xmlns="http://www.w3.org/2000/svg" xmlns:xlink="http://www.w3.org/1999/xlink">
    <!-- Generator: Sketch 46.2 (44496) - http://www.bohemiancoding.com/sketch -->
    <title>Difference</title>
    <desc>Created with Sketch.</desc>
    <defs>
        <circle id="path-1" cx="20.846002" cy="21" r="20"></circle>
        <filter x="-50.0%" y="-32.5%" width="200.0%" height="200.0%" filterUnits="objectBoundingBox" id="filter-2">
            <feOffset dx="0" dy="7" in="SourceAlpha" result="shadowOffsetOuter1"></feOffset>
            <feGaussianBlur stdDeviation="5.5" in="shadowOffsetOuter1" result="shadowBlurOuter1"></feGaussianBlur>
            <feColorMatrix values="0 0 0 0 0.333333333   0 0 0 0 0.525490196   0 0 0 0 0.870588235  0 0 0 0.0871546649 0" type="matrix" in="shadowBlurOuter1"></feColorMatrix>
        </filter>
    </defs>
    <g id="Page-1" stroke="none" stroke-width="1" fill="none" fill-rule="evenodd">
        <g id="Home-Page-Copy" transform="translate(-456.000000, -103.000000)">
            <g id="Difference" transform="translate(473.000000, 113.000000)">
                <g id="Oval-4" transform="translate(20.846002, 21.000000) rotate(89.000000) translate(-20.846002, -21.000000) ">
                    <use fill="black" fill-opacity="1" filter="url(#filter-2)" xlink:href="#path-1"></use>
                    <use fill="#FFFFFF" fill-rule="evenodd" xlink:href="#path-1"></use>
                </g>
                <g id="shield-(2)" transform="translate(11.000000, 9.000000)" fill-rule="nonzero">
                    <path d="M19.9999716,3.74999702 C20.0192099,3.74999702 10.2499992,0.0937392139 9.99999992,0 C9.8077153,0.0749818496 -0.0192100167,3.74999702 2.82100873e-05,3.74999702 L2.82100873e-05,10.6499935 C2.82100873e-05,15.4312647 1.40388166,21.675039 9.99999992,24 C18.5768799,21.6749914 19.9807334,15.3187205 19.9807334,10.6499935 C19.9999716,8.2875177 19.9999716,3.74999702 19.9999716,3.74999702 Z" id="Shape" fill="#F3F3F3"></path>
                    <path d="M3.46944695e-16,10.6500199 C3.46944695e-16,15.4312817 1.40385742,21.6750436 10,24 L10,0 C9.63461914,0.131253682 0,3.74998959 0,3.74998959 C0,3.74998959 4.8828125e-05,10.6500199 3.46944695e-16,10.6500199 Z" id="Shape" fill="#E7E7E7"></path>
                    <path d="M17.9857215,5.12963586 C18.0047595,5.12963586 10.2022,2.07405614 9.99287804,2 C9.82158384,2.05557737 1.98099656,5.00000235 2.00003461,4.98147656 L2.00003461,10.7036885 C2.00003461,14.6666557 2.79934312,20.0740702 9.99287804,22 C17.1674232,20.0740702 17.9857215,14.5740738 17.9857215,10.7036885 C18.0047595,8.74075415 18.0047595,5.12963586 17.9857215,5.12963586 Z" id="Shape" fill="#33FFEE"></path>
                    <path d="M10,1 C9.82855317,1.05557737 1.98097962,4.00000235 2.00003464,3.98147656 L2.00003464,9.70368847 C2.00003464,13.6666557 2.80005536,19.0740702 10,21 L10,1 Z" id="Shape" fill="#12D4C4"></path>
                    <path d="M13.963502,10.6089527 C13.9033495,10.4252479 13.7229938,10.2966359 13.5025365,10.2598763 L11.4180646,9.98427254 L10.5161336,8.29398358 C10.4159303,8.11027883 10.2154729,8 9.99501558,8 C9.77455825,8 9.57410085,8.11023218 9.4738976,8.29398358 L8.57196656,9.98427254 L6.48749465,10.2598763 C6.26703732,10.2966359 6.08663076,10.4252479 6.02652916,10.6089527 C5.96642757,10.7926574 6.00647833,10.9947886 6.16683407,11.1234006 L7.69008634,12.5013262 L7.3293241,14.4120795 C7.28922245,14.5957842 7.38947659,14.7979154 7.56983226,14.9081476 C7.67003551,14.963287 7.79028959,15 7.91054367,15 C8.01074692,15 8.11095018,14.9816202 8.19115349,14.9448606 L10.0150664,14.0629565 L11.8389793,14.9448606 C11.9191317,14.9816202 12.0193859,15 12.1195891,15 C12.2398432,15 12.3600973,14.9632404 12.4603005,14.9081476 C12.6407071,14.7979154 12.7409104,14.5958309 12.7008087,14.4120795 L12.3400465,12.5013262 L13.8632987,11.1234006 C13.9835528,10.9764088 14.0436544,10.7926574 13.963502,10.6089527 Z" id="Shape" fill="#F9F9F9"></path>
                </g>
            </g>
        </g>
    </g>
</svg>