<?xml version="1.0" encoding="UTF-8"?>
<svg width="76px" height="58px" viewBox="0 0 76 58" version="1.1" xmlns="http://www.w3.org/2000/svg" xmlns:xlink="http://www.w3.org/1999/xlink">
    <!-- Generator: Sketch 46.2 (44496) - http://www.bohemiancoding.com/sketch -->
    <title>Engineering</title>
    <desc>Created with Sketch.</desc>
    <defs></defs>
    <g id="Page-1" stroke="none" stroke-width="1" fill="none" fill-rule="evenodd">
        <g id="Artboard-2" transform="translate(-270.000000, -525.000000)" fill-rule="nonzero">
            <g id="Engineering" transform="translate(270.000000, 525.000000)">
                <path d="M72.0689297,0 L3.93107031,0 C1.76002344,0 0,1.77054895 0,3.95457939 L0,54.0454206 C0,56.229451 1.76002344,58 3.93107031,58 L72.0689297,58 C74.2399766,58 76,56.229451 76,54.0454206 L76,3.95457939 C76,1.77054895 74.2399766,0 72.0689297,0 Z M65.5171953,2.63633649 L66.8276016,2.63633649 C67.5512344,2.63633649 68.1380078,3.22661902 68.1380078,3.95457939 C68.1380078,4.68253976 67.5512344,5.2728223 66.8276016,5.2728223 L65.5171953,5.2728223 C64.7935625,5.2728223 64.2067891,4.68253976 64.2067891,3.95457939 C64.2069375,3.22661902 64.7935625,2.63633649 65.5171953,2.63633649 Z M28.8276016,2.63633649 L60.2758672,2.63633649 C60.9995,2.63633649 61.5862734,3.22661902 61.5862734,3.95457939 C61.5862734,4.68253976 60.9995,5.2728223 60.2758672,5.2728223 L28.8276016,5.2728223 C28.1039687,5.2728223 27.5171953,4.68253976 27.5171953,3.95457939 C27.5171953,3.22661902 28.1039687,2.63633649 28.8276016,2.63633649 Z M22.2758672,2.63633649 L23.5862734,2.63633649 C24.3099062,2.63633649 24.8966797,3.22661902 24.8966797,3.95457939 C24.8966797,4.68253976 24.3099062,5.2728223 23.5862734,5.2728223 L22.2758672,5.2728223 C21.5522344,5.2728223 20.9654609,4.68253976 20.9654609,3.95457939 C20.9654609,3.22661902 21.5522344,2.63633649 22.2758672,2.63633649 Z M17.0345391,2.63633649 L18.3449453,2.63633649 C19.0685781,2.63633649 19.6553516,3.22661902 19.6553516,3.95457939 C19.6553516,4.68253976 19.0685781,5.2728223 18.3449453,5.2728223 L17.0345391,5.2728223 C16.3109062,5.2728223 15.7241328,4.68253976 15.7241328,3.95457939 C15.7241328,3.22661902 16.3109062,2.63633649 17.0345391,2.63633649 Z M11.7930625,2.63633649 C12.5166953,2.63633649 13.1034688,3.22661902 13.1034688,3.95457939 C13.1034688,4.68253976 12.5166953,5.2728223 11.7930625,5.2728223 C11.0694297,5.2728223 10.4826562,4.68253976 10.4826562,3.95457939 C10.4828047,3.22661902 11.0694297,2.63633649 11.7930625,2.63633649 Z M7.86214062,2.63633649 C8.58577344,2.63633649 9.17254687,3.22661902 9.17254687,3.95457939 C9.17254687,4.68253976 8.58577344,5.2728223 7.86214062,5.2728223 C7.13850781,5.2728223 6.55173438,4.68253976 6.55173438,3.95457939 C6.55173438,3.22661902 7.13835938,2.63633649 7.86214062,2.63633649 Z M3.93107031,2.63633649 C4.65470312,2.63633649 5.24147656,3.22661902 5.24147656,3.95457939 C5.24147656,4.68253976 4.65470312,5.2728223 3.93107031,5.2728223 C3.2074375,5.2728223 2.62066406,4.68253976 2.62066406,3.95457939 C2.62066406,3.22661902 3.2074375,2.63633649 3.93107031,2.63633649 Z M73.3793359,15.8181682 L73.3793359,54.0454206 C73.3793359,54.773381 72.7925625,55.3636635 72.0689297,55.3636635 L3.93107031,55.3636635 C3.2074375,55.3636635 2.62066406,54.773381 2.62066406,54.0454206 L2.62066406,15.8181682 L2.62066406,9.22725236 C2.62066406,8.49929199 3.2074375,7.90900946 3.93107031,7.90900946 L72.0689297,7.90900946 C72.7925625,7.90900946 73.3793359,8.49929199 73.3793359,9.22725236 L73.3793359,15.8181682 L73.3793359,15.8181682 Z M72.0689297,5.27267297 L70.7585234,5.27267297 C70.0348906,5.27267297 69.4481172,4.68239044 69.4481172,3.95443007 C69.4481172,3.22646969 70.0348906,2.63618716 70.7585234,2.63618716 L72.0689297,2.63618716 C72.7925625,2.63618716 73.3793359,3.22646969 73.3793359,3.95443007 C73.3793359,4.68253976 72.7925625,5.27267297 72.0689297,5.27267297 Z" id="Shape" fill="#D2DCF0"></path>
                <path d="M2,54.6666063 C2,55.4029332 2.58877468,56 3.3148755,56 L71.6851245,56 C72.4112253,56 73,55.4029332 73,54.6666063 L73,16 L2,16 L2,54.6666063 Z M58.5369653,22.6666667 L58.5369653,21.3332729 C58.5369653,20.5969459 59.12574,19.9998792 59.8518408,19.9998792 L67.7407959,19.9998792 C68.4668967,19.9998792 69.0556714,20.5969459 69.0556714,21.3332729 L69.0556714,22.6666667 L69.0556714,33.3333635 C69.0556714,34.0696905 68.4668967,34.6667573 67.7407959,34.6667573 L59.8518408,34.6667573 C59.12574,34.6667573 58.5369653,34.0696905 58.5369653,33.3333635 L58.5369653,22.6666667 Z M44.0740796,22.6666667 L44.0740796,21.3332729 C44.0740796,20.5969459 44.6628543,19.9998792 45.3889551,19.9998792 L53.2779102,19.9998792 C54.004011,19.9998792 54.5927857,20.5969459 54.5927857,21.3332729 L54.5927857,22.6666667 L54.5927857,33.3333635 C54.5927857,34.0696905 54.004011,34.6667573 53.2779102,34.6667573 L45.3889551,34.6667573 C44.6628543,34.6667573 44.0740796,34.0696905 44.0740796,33.3333635 L44.0740796,22.6666667 Z M44.0740796,40.0000302 C44.0740796,39.2637032 44.6628543,38.6666365 45.3889551,38.6666365 L46.7038306,38.6666365 L67.7407959,38.6666365 C68.4668967,38.6666365 69.0556714,39.2637032 69.0556714,40.0000302 L69.0556714,50.6667271 C69.0556714,51.4030541 68.4668967,52.0001208 67.7407959,52.0001208 L46.7036816,52.0001208 L45.3888061,52.0001208 C44.6627053,52.0001208 44.0739306,51.4030541 44.0739306,50.6667271 L44.0739306,40.0000302 L44.0740796,40.0000302 Z M29.6110449,22.6666667 L29.6110449,21.3332729 C29.6110449,20.5969459 30.1998196,19.9998792 30.9259204,19.9998792 L38.8148755,19.9998792 C39.5409763,19.9998792 40.129751,20.5969459 40.129751,21.3332729 L40.129751,22.6666667 L40.129751,33.3333635 C40.129751,34.0696905 39.5409763,34.6667573 38.8148755,34.6667573 L30.9259204,34.6667573 C30.1998196,34.6667573 29.6110449,34.0696905 29.6110449,33.3333635 L29.6110449,22.6666667 L29.6110449,22.6666667 Z M5.94447754,22.6666667 L5.94447754,21.3332729 C5.94447754,20.5969459 6.53325222,19.9998792 7.25935304,19.9998792 L24.3519898,19.9998792 C25.0780906,19.9998792 25.6668653,20.5969459 25.6668653,21.3332729 L25.6668653,22.6666667 L25.6668653,33.3333635 C25.6668653,34.0696905 25.0780906,34.6667573 24.3519898,34.6667573 L7.25935304,34.6667573 C6.53325222,34.6667573 5.94447754,34.0696905 5.94447754,33.3333635 L5.94447754,22.6666667 Z M5.94447754,40.0000302 C5.94447754,39.2637032 6.53325222,38.6666365 7.25935304,38.6666365 L8.57422853,38.6666365 L38.8148755,38.6666365 C39.5409763,38.6666365 40.129751,39.2637032 40.129751,40.0000302 L40.129751,50.6667271 C40.129751,51.4030541 39.5409763,52.0001208 38.8148755,52.0001208 L8.57407959,52.0001208 L7.25920409,52.0001208 C6.53310327,52.0001208 5.9443286,51.4030541 5.9443286,50.6667271 L5.9443286,40.0000302 L5.94447754,40.0000302 Z" id="Shape" fill="#FFFFFF"></path>
                <circle id="Oval" fill="#FF6469" cx="3" cy="3" r="1"></circle>
                <circle id="Oval" fill="#FFE169" cx="8" cy="3" r="1"></circle>
                <circle id="Oval" fill="#87E1AA" cx="12" cy="3" r="1"></circle>
                <g id="Group" transform="translate(16.000000, 2.000000)" fill="#E4EAF6">
                    <path d="M1.45133846,1.90557895 L2.76422051,1.90557895 C3.48922051,1.90557895 4.07710256,1.48947368 4.07710256,0.976315789 C4.07710256,0.463157895 3.48922051,0.0470526316 2.76422051,0.0470526316 L1.45133846,0.0470526316 C0.726338462,0.0470526316 0.13845641,0.463157895 0.13845641,0.976315789 C0.13845641,1.48957895 0.726338462,1.90557895 1.45133846,1.90557895 Z" id="Shape"></path>
                    <path d="M6.70256923,1.90557895 L8.01545128,1.90557895 C8.74045128,1.90557895 9.32833333,1.48947368 9.32833333,0.976315789 C9.32833333,0.463157895 8.74045128,0.0470526316 8.01545128,0.0470526316 L6.70256923,0.0470526316 C5.97756923,0.0470526316 5.38968718,0.463157895 5.38968718,0.976315789 C5.38968718,1.48957895 5.97756923,1.90557895 6.70256923,1.90557895 Z" id="Shape"></path>
                    <path d="M50.0255949,1.90557895 L51.3384769,1.90557895 C52.0634769,1.90557895 52.651359,1.48947368 52.651359,0.976315789 C52.651359,0.463157895 52.0634769,0.0470526316 51.3384769,0.0470526316 L50.0255949,0.0470526316 C49.3005949,0.0470526316 48.7127128,0.463157895 48.7127128,0.976315789 C48.7128615,1.48957895 49.3005949,1.90557895 50.0255949,1.90557895 Z" id="Shape"></path>
                    <path d="M56.5897077,0.0471578947 L55.2768256,0.0471578947 C54.5518256,0.0471578947 53.9639436,0.463263158 53.9639436,0.976421053 C53.9639436,1.48957895 54.5518256,1.90568421 55.2768256,1.90568421 L56.5897077,1.90568421 C57.3147077,1.90568421 57.9025897,1.48957895 57.9025897,0.976421053 C57.9025897,0.463263158 57.3147077,0.0471578947 56.5897077,0.0471578947 Z" id="Shape"></path>
                    <path d="M13.2666821,1.90557895 L44.7743641,1.90557895 C45.4993641,1.90557895 46.0872462,1.48947368 46.0872462,0.976315789 C46.0872462,0.463157895 45.4993641,0.0470526316 44.7743641,0.0470526316 L13.2666821,0.0470526316 C12.5416821,0.0470526316 11.9538,0.463157895 11.9538,0.976315789 C11.9538,1.48957895 12.5416821,1.90557895 13.2666821,1.90557895 Z" id="Shape"></path>
                </g>
                <path d="M71.6851245,8 L3.3148755,8 C2.58877468,8 2,8.59706227 2,9.33338368 L2,16 L73,16 L73,9.33338368 C73,8.59691123 72.4112253,8 71.6851245,8 Z M16.4630347,13.3332326 L5.94447754,13.3332326 C5.21837672,13.3332326 4.62960205,12.7361704 4.62960205,11.999849 C4.62960205,11.2635275 5.21837672,10.6664653 5.94447754,10.6664653 L16.4630347,10.6664653 C17.1891355,10.6664653 17.7779102,11.2635275 17.7779102,11.999849 C17.7779102,12.7361704 17.1891355,13.3332326 16.4630347,13.3332326 Z M26.9814429,13.3332326 L21.7222388,13.3332326 C20.996138,13.3332326 20.4073633,12.7361704 20.4073633,11.999849 C20.4073633,11.2635275 20.996138,10.6664653 21.7222388,10.6664653 L26.9814429,10.6664653 C27.7075437,10.6664653 28.2963184,11.2635275 28.2963184,11.999849 C28.2963184,12.7361704 27.7075437,13.3332326 26.9814429,13.3332326 Z M37.5,13.3332326 L32.2407959,13.3332326 C31.5146951,13.3332326 30.9259204,12.7361704 30.9259204,11.999849 C30.9259204,11.2635275 31.5146951,10.6664653 32.2407959,10.6664653 L37.5,10.6664653 C38.2261008,10.6664653 38.8148755,11.2635275 38.8148755,11.999849 C38.8148755,12.7361704 38.2261008,13.3332326 37.5,13.3332326 Z M48.0185571,13.3332326 L42.759353,13.3332326 C42.0332522,13.3332326 41.4444775,12.7361704 41.4444775,11.999849 C41.4444775,11.2635275 42.0332522,10.6664653 42.759353,10.6664653 L48.0185571,10.6664653 C48.744658,10.6664653 49.3334326,11.2635275 49.3334326,11.999849 C49.3334326,12.7361704 48.744658,13.3332326 48.0185571,13.3332326 Z M58.5369653,13.3332326 L53.2777612,13.3332326 C52.5516604,13.3332326 51.9628857,12.7361704 51.9628857,11.999849 C51.9628857,11.2635275 52.5516604,10.6664653 53.2777612,10.6664653 L58.5369653,10.6664653 C59.2630661,10.6664653 59.8518408,11.2635275 59.8518408,11.999849 C59.8518408,12.7361704 59.2630661,13.3332326 58.5369653,13.3332326 Z M69.0555225,13.3332326 L63.7963184,13.3332326 C63.0702175,13.3332326 62.4814429,12.7361704 62.4814429,11.999849 C62.4814429,11.2635275 63.0702175,10.6664653 63.7963184,10.6664653 L69.0555225,10.6664653 C69.7816233,10.6664653 70.370398,11.2635275 70.370398,11.999849 C70.370398,12.7361704 69.7816233,13.3332326 69.0555225,13.3332326 Z" id="Shape" fill="#898AEA"></path>
                <path d="M16.6999558,11 L6.30004418,11 C5.58213351,11 5,11.4477798 5,12 C5,12.5522202 5.58213351,13 6.30004418,13 L16.6999558,13 C17.4178665,13 18,12.5522202 18,12 C18,11.4477798 17.4178665,11 16.6999558,11 Z" id="Shape" fill="#FFDC69"></path>
                <g id="Group" transform="translate(21.000000, 11.000000)" fill="#A2A3FB">
                    <path d="M6.4719375,0.0435789474 L1.3225625,0.0435789474 C0.611625,0.0435789474 0.0351458333,0.459684211 0.0351458333,0.972842105 C0.0351458333,1.486 0.611625,1.90210526 1.3225625,1.90210526 L6.4719375,1.90210526 C7.182875,1.90210526 7.75935417,1.486 7.75935417,0.972842105 C7.75935417,0.459684211 7.182875,0.0435789474 6.4719375,0.0435789474 Z" id="Shape"></path>
                    <path d="M16.7708333,0.0435789474 L11.6214583,0.0435789474 C10.9105208,0.0435789474 10.3340417,0.459684211 10.3340417,0.972842105 C10.3340417,1.486 10.9105208,1.90210526 11.6214583,1.90210526 L16.7708333,1.90210526 C17.4817708,1.90210526 18.05825,1.486 18.05825,0.972842105 C18.05825,0.459684211 17.4817708,0.0435789474 16.7708333,0.0435789474 Z" id="Shape"></path>
                    <path d="M27.0697292,0.0435789474 L21.9203542,0.0435789474 C21.2094167,0.0435789474 20.6329375,0.459684211 20.6329375,0.972842105 C20.6329375,1.486 21.2094167,1.90210526 21.9203542,1.90210526 L27.0697292,1.90210526 C27.7806667,1.90210526 28.3571458,1.486 28.3571458,0.972842105 C28.3571458,0.459684211 27.7806667,0.0435789474 27.0697292,0.0435789474 Z" id="Shape"></path>
                    <path d="M37.3684792,0.0435789474 L32.2191042,0.0435789474 C31.5081667,0.0435789474 30.9316875,0.459684211 30.9316875,0.972842105 C30.9316875,1.486 31.5081667,1.90210526 32.2191042,1.90210526 L37.3684792,1.90210526 C38.0794167,1.90210526 38.6558958,1.486 38.6558958,0.972842105 C38.6558958,0.459684211 38.0794167,0.0435789474 37.3684792,0.0435789474 Z" id="Shape"></path>
                    <path d="M47.667375,0.0435789474 L42.518,0.0435789474 C41.8070625,0.0435789474 41.2305833,0.459684211 41.2305833,0.972842105 C41.2305833,1.486 41.8070625,1.90210526 42.518,1.90210526 L47.667375,1.90210526 C48.3783125,1.90210526 48.9547917,1.486 48.9547917,0.972842105 C48.9547917,0.459684211 48.3783125,0.0435789474 47.667375,0.0435789474 Z" id="Shape"></path>
                </g>
                <g id="Group" transform="translate(7.000000, 23.000000)" fill="#DEE3ED">
                    <path d="M1.33221226,11.8977778 L18.3836675,11.8977778 C19.1080189,11.8977778 19.695375,11.3121481 19.695375,10.5899259 L19.695375,0.127555556 C19.695375,0.849777778 19.1080189,1.43540741 18.3836675,1.43540741 L1.33221226,1.43540741 C0.607860849,1.43540741 0.020504717,0.849777778 0.020504717,0.127555556 L0.020504717,10.5899259 C0.020504717,11.3122963 0.607712264,11.8977778 1.33221226,11.8977778 Z" id="Shape"></path>
                    <path d="M24.9417594,11.8977778 L32.8117075,11.8977778 C33.536059,11.8977778 34.1234151,11.3121481 34.1234151,10.5899259 L34.1234151,0.127555556 C34.1234151,0.849777778 33.536059,1.43540741 32.8117075,1.43540741 L24.9417594,1.43540741 C24.217408,1.43540741 23.6300519,0.849777778 23.6300519,0.127555556 L23.6300519,10.5899259 C23.6300519,11.3122963 24.217408,11.8977778 24.9417594,11.8977778 Z" id="Shape"></path>
                    <path d="M39.3699481,11.8977778 L47.2398962,11.8977778 C47.9642476,11.8977778 48.5516038,11.3121481 48.5516038,10.5899259 L48.5516038,0.127555556 C48.5516038,0.849777778 47.9642476,1.43540741 47.2398962,1.43540741 L39.3699481,1.43540741 C38.6455967,1.43540741 38.0582406,0.849777778 38.0582406,0.127555556 L38.0582406,10.5899259 C38.0582406,11.3122963 38.6454481,11.8977778 39.3699481,11.8977778 Z" id="Shape"></path>
                    <path d="M53.7979882,11.8977778 L61.6679363,11.8977778 C62.3922877,11.8977778 62.9796439,11.3121481 62.9796439,10.5899259 L62.9796439,0.127555556 C62.9796439,0.849777778 62.3922877,1.43540741 61.6679363,1.43540741 L53.7979882,1.43540741 C53.0736368,1.43540741 52.4862807,0.849777778 52.4862807,0.127555556 L52.4862807,10.5899259 C52.4862807,11.3122963 53.0736368,11.8977778 53.7979882,11.8977778 Z" id="Shape"></path>
                </g>
                <path d="M8.2667145,23 L24.7332855,23 C25.4327908,23 26,22.4029603 26,21.6666667 L26,20.3333333 C26,19.5970397 25.4327908,19 24.7332855,19 L8.2667145,19 C7.56720915,19 7,19.5970397 7,20.3333333 L7,21.6666667 C7,22.4029603 7.56706566,23 8.2667145,23 Z" id="Shape" fill="#FFDC69"></path>
                <path d="M31.3750389,23 L39.6249611,23 C40.3842854,23 41,22.4029603 41,21.6666667 L41,20.3333333 C41,19.5970397 40.3842854,19 39.6249611,19 L31.3750389,19 C30.6157146,19 30,19.5970397 30,20.3333333 L30,21.6666667 C30,22.4029603 30.6157146,23 31.3750389,23 Z" id="Shape" fill="#33FFEE"></path>
                <path d="M46.3750389,23 L54.6249611,23 C55.3842854,23 56,22.4029603 56,21.6666667 L56,20.3333333 C56,19.5970397 55.3842854,19 54.6249611,19 L46.3750389,19 C45.6157146,19 45,19.5970397 45,20.3333333 L45,21.6666667 C45,22.4029603 45.6155589,23 46.3750389,23 Z" id="Shape" fill="#898AEA"></path>
                <path d="M60.3750389,23 L68.6249611,23 C69.3842854,23 70,22.4029603 70,21.6666667 L70,20.3333333 C70,19.5970397 69.3842854,19 68.6249611,19 L60.3750389,19 C59.6157146,19 59,19.5970397 59,20.3333333 L59,21.6666667 C59,22.4029603 59.6157146,23 60.3750389,23 Z" id="Shape" fill="#12D4C4"></path>
                <g id="Group" transform="translate(8.000000, 39.000000)" fill="#DEE3ED">
                    <path d="M1.41832924,1.3897 L1.41832924,11.5905111 C1.41832924,12.2946778 0.835577396,12.8656667 0.116904177,12.8656667 L30.0482064,12.8656667 C30.7668796,12.8656667 31.3496314,12.2946778 31.3496314,11.5905111 L31.3496314,1.3897 C31.3496314,0.685533333 30.7668796,0.114544444 30.0482064,0.114544444 L0.116904177,0.114544444 C0.835577396,0.114544444 1.41832924,0.685533333 1.41832924,1.3897 Z" id="Shape"></path>
                    <path d="M39.157887,1.3897 L39.157887,11.5905111 C39.157887,12.2946778 38.5751351,12.8656667 37.8564619,12.8656667 L58.678231,12.8656667 C59.3969042,12.8656667 59.979656,12.2946778 59.979656,11.5905111 L59.979656,1.3897 C59.979656,0.685533333 59.3969042,0.114544444 58.678231,0.114544444 L37.8564619,0.114544444 C38.5751351,0.114544444 39.157887,0.685533333 39.157887,1.3897 Z" id="Shape"></path>
                </g>
                <path d="M8.33333333,52 L9.66666667,52 C10.4029603,52 11,51.4178665 11,50.6999558 L11,40.3000442 C11,39.5821335 10.4029603,39 9.66666667,39 L8.33333333,39 C7.59703972,39 7,39.5821335 7,40.3000442 L7,50.6999558 C7,51.4178665 7.59688869,52 8.33333333,52 Z" id="Shape" fill="#C3B4FA"></path>
                <path d="M46.3333333,52 L47.6666667,52 C48.4029603,52 49,51.4178665 49,50.6999558 L49,40.3000442 C49,39.5821335 48.4029603,39 47.6666667,39 L46.3333333,39 C45.5970397,39 45,39.5821335 45,40.3000442 L45,50.6999558 C45,51.4178665 45.5968887,52 46.3333333,52 Z" id="Shape" fill="#12D4C4"></path>
            </g>
        </g>
    </g>
</svg>