<?xml version="1.0" encoding="UTF-8"?>
<svg width="84px" height="59px" viewBox="0 0 84 59" version="1.1" xmlns="http://www.w3.org/2000/svg" xmlns:xlink="http://www.w3.org/1999/xlink">
    <!-- Generator: Sketch 46.2 (44496) - http://www.bohemiancoding.com/sketch -->
    <title>general</title>
    <desc>Created with Sketch.</desc>
    <defs></defs>
    <g id="Page-1" stroke="none" stroke-width="1" fill="none" fill-rule="evenodd">
        <g id="FAQ" transform="translate(-294.000000, -527.000000)" fill-rule="nonzero">
            <g id="general" transform="translate(294.000000, 527.000000)">
                <path d="M38.4118039,19 L79.5881961,19 C82.024742,19 84,20.9185015 84,23.2850362 L84,48.9950919 C84,51.3616266 82.024742,53.2801281 79.5881961,53.2801281 L56.0588529,53.2801281 L56.0588529,57.9911924 C56.0588529,58.8882298 54.9423665,59.3373957 54.2893336,58.702965 L48.705902,53.2801281 L38.4118039,53.2801281 C35.975258,53.2801281 34,51.3616266 34,48.9950919 L34,23.2850362 C34,20.9185015 35.975258,19 38.4118039,19 Z" id="Shape" fill="#33FFEE"></path>
                <path d="M34,23.1613719 L34,48.1303892 C34,48.4289545 34.037043,48.7190343 34.1017832,49 C44.5868159,45.1076511 52,35.6363736 52,24.5486007 C52,22.643754 51.7700956,20.7901348 51.3551463,19 L38.4998726,19 C36.0147643,18.9998429 34,20.8630476 34,23.1613719 Z" id="Shape" fill="#12D4C4"></path>
                <path d="M50,24.4103566 C50,10.9288597 38.8071487,0 25,0 C11.1928513,0 0,10.9288597 0,24.4103566 C0,36.2192117 8.58854927,46.0680031 19.9991337,48.3302907 L27.5288367,55.6824001 C28.2236838,56.3608586 29.4118039,55.8803584 29.4118039,54.9208218 L29.4118039,48.4179649 C41.1110889,46.3806373 50,36.4194472 50,24.4103566 Z" id="Shape" fill="#898AEA"></path>
                <circle id="Oval" fill="#A8A9F4" cx="25" cy="25" r="19"></circle>
                <g id="Group" transform="translate(15.000000, 11.000000)" fill="#FFFFFF">
                    <path d="M8.62635262,25.8147353 C8.62586501,25.8147353 8.62505234,25.8148971 8.62456474,25.8147353 C7.83220937,25.8147353 7.18889807,25.1746324 7.18889807,24.3858676 C7.18889807,24.3857059 7.18889807,24.3853824 7.18889807,24.3848971 C7.18889807,24.3844118 7.18889807,24.3844118 7.18889807,24.3839265 C7.18889807,23.5953235 7.83204683,22.9550588 8.62456474,22.9550588 C8.62488981,22.9550588 8.62570248,22.9548971 8.62635262,22.9550588 C9.41870799,22.9550588 10.0620193,23.5951618 10.0620193,24.3839265 C10.0620193,24.3840882 10.0620193,24.38425 10.0620193,24.3844118 C10.0620193,24.3847353 10.0620193,24.3850588 10.0620193,24.3855441 C10.0621818,25.1746324 9.41887052,25.8147353 8.62635262,25.8147353 Z" id="Shape"></path>
                    <path d="M43.0604105,32.9466176 C42.6932452,32.9466176 42.3259174,32.8071765 42.0458705,32.5284559 L34.8719256,25.3884853 C34.3115069,24.8308824 34.3115069,23.9267794 34.8719256,23.3691765 C35.4321818,22.8115735 36.3405868,22.8115735 36.900843,23.3691765 L43.0604105,29.49925 L56.3937603,16.2290441 C56.9540165,15.6714412 57.8624215,15.6714412 58.4226777,16.2290441 C58.9830964,16.7866471 58.9830964,17.69075 58.4226777,18.2483529 L44.0747879,32.5282941 C43.7949036,32.8071765 43.4275758,32.9466176 43.0604105,32.9466176 Z" id="Shape"></path>
                    <path d="M8.62553994,20.1010441 C7.83318457,20.1010441 7.19068595,19.4615882 7.19068595,18.6729853 L7.19068595,18.2464118 C7.19068595,16.3468088 8.43098623,14.7003676 10.2770523,14.1493971 C12.6835372,13.4311618 14.3644683,11.1811765 14.3646309,8.67754412 C14.3647934,7.19205882 13.7565895,5.76852941 12.652168,4.66933824 C11.5479091,3.57030882 10.1179311,2.96498529 8.62537741,2.96498529 C8.62521488,2.96498529 8.62521488,2.96498529 8.62488981,2.96498529 C5.46050689,2.96514706 2.88612397,5.5275 2.88612397,8.67689706 C2.88612397,9.4655 2.24362534,10.1049559 1.45126997,10.1049559 C0.658914601,10.1049559 0.016415978,9.4655 0.016415978,8.67689706 C0.016415978,3.95288235 3.87790909,0.109352941 8.62456474,0.108867647 C8.62456474,0.108867647 8.62505234,0.108867647 8.62521488,0.108867647 C10.8841185,0.108867647 13.034449,1.01119118 14.6809229,2.64954412 C16.3273967,4.28822059 17.2340138,6.42885294 17.2336887,8.67722059 C17.2333636,12.4319412 14.7114793,15.8068382 11.1009394,16.8843529 C10.47827,17.0702206 10.0597438,17.6173088 10.0597438,18.2457647 L10.0597438,18.6723382 C10.0603939,19.4619118 9.41789532,20.1010441 8.62553994,20.1010441 Z" id="Shape"></path>
                </g>
            </g>
        </g>
    </g>
</svg>