<?xml version="1.0" encoding="UTF-8"?>
<svg width="35px" height="35px" viewBox="0 0 35 35" version="1.1" xmlns="http://www.w3.org/2000/svg" xmlns:xlink="http://www.w3.org/1999/xlink">
    <!-- Generator: Sketch 46.2 (44496) - http://www.bohemiancoding.com/sketch -->
    <title>group (1)</title>
    <desc>Created with Sketch.</desc>
    <defs></defs>
    <g id="Page-1" stroke="none" stroke-width="1" fill="none" fill-rule="evenodd">
        <g id="Home-Page" transform="translate(-767.000000, -1887.000000)">
            <g id="group-(1)" transform="translate(767.000000, 1887.000000)">
                <g id="Layer_1">
                    <path d="M19.8488966,29.5552386 C19.6307555,28.828171 19.4853976,28.0283897 19.4853976,27.2286083 L19.4853976,26.6469682 L15.5592744,26.6469682 L15.5592744,27.2286083 C15.5592744,28.0283897 15.4138469,28.828171 15.1957753,29.5552386 L19.8488966,29.5552386 Z M8.5793837,19.449006 C9.59730616,19.5217197 10.5424453,19.812505 11.4149404,20.321501 L14.5413519,14.9412425 C13.5961431,14.5777435 12.7963618,13.9960338 12.142008,13.3416799 L8.5793837,19.449006 Z M22.9025944,13.3416799 C22.1755268,13.9960338 21.3757455,14.577674 20.4305368,14.9412425 L23.5569483,20.321501 C24.4294433,19.8852883 25.3745825,19.5944334 26.392505,19.449006 L22.9025944,13.3416799 Z" id="Shape" fill="#9870D0"></path>
                    <path d="M15.5592048,27.1558946 C15.5592048,28.9735288 14.9048509,30.7185189 13.8142147,32.0272266 C12.3600795,33.7722167 10.2515905,34.935497 7.7795328,34.935497 C5.30747515,34.935497 3.19912525,33.8449304 1.74499006,32.0272962 C0.654353877,30.7185189 0,28.9735984 0,27.1558946 C0,22.8662028 3.48991054,19.3762922 7.77960239,19.3762922 C12.142008,19.449006 15.5592048,22.8662028 15.5592048,27.1558946 Z" id="Shape" fill="#F2F2F2"></path>
                    <path d="M13.886998,32.0272962 C12.4328628,33.7722863 10.3243738,34.9355666 7.8523161,34.9355666 C5.38025845,34.9355666 3.27176938,33.8449304 1.81763419,32.0272962 C2.10848907,31.6637972 2.54470179,31.3729423 2.98091451,31.1548012 C3.92612326,30.7185885 5.23483101,30.1368787 5.81647117,29.7733797 C5.88918489,29.700666 5.96189861,29.700666 5.96189861,29.6279523 C5.96189861,29.6279523 6.10732604,28.5373857 6.10732604,28.464672 C6.10732604,28.464672 5.52568588,27.5921769 5.23483101,26.7923956 C5.23483101,26.7923956 5.23483101,26.7923956 5.1621173,26.7923956 C4.94397614,26.8651093 4.72590457,26.5015408 4.65319085,25.9926143 C4.58047714,25.4836879 4.65319085,25.1201193 4.87133201,25.0474056 L4.87133201,25.0474056 C4.72590457,24.0294831 4.72590457,21.2666402 7.8523161,21.3393539 C10.9787276,21.2666402 10.9060139,24.0294831 10.8333002,25.0474056 L10.8333002,25.0474056 C11.0514414,25.1201193 11.1241551,25.4836183 11.0514414,25.9926143 C10.9787276,26.5015408 10.6879423,26.7923956 10.5425149,26.7923956 C10.5425149,26.7923956 10.5425149,26.7923956 10.4698012,26.7923956 C10.25166,27.5921769 9.59730616,28.464672 9.59730616,28.464672 C9.59730616,28.5373857 9.7427336,29.6279523 9.7427336,29.6279523 C9.81544732,29.700666 9.81544732,29.700666 9.88816103,29.7733797 C10.4698012,30.1368787 11.7785089,30.7913022 12.7237177,31.1548012 C13.1599304,31.3728728 13.5234294,31.6637276 13.886998,32.0272962 Z" id="Shape" fill="#33FFEE"></path>
                    <path d="M34.9718887,27.1558946 C34.9718887,28.9735288 34.3175348,30.7185189 33.2268986,32.0272266 C31.7727634,33.7722167 29.6642744,34.935497 27.1922167,34.935497 C24.720159,34.935497 22.61167,33.8449304 21.1575348,32.0272266 C20.0669682,30.7185189 19.4125447,28.9735288 19.4125447,27.1558946 C19.4125447,22.8662028 22.9024553,19.3762922 27.1921471,19.3762922 C31.4819781,19.449006 34.9718887,22.8662028 34.9718887,27.1558946 Z" id="Shape" fill="#F2F2F2"></path>
                    <path d="M33.2268986,32.0272962 C31.7727634,33.7722863 29.6642744,34.9355666 27.1922167,34.9355666 C24.720159,34.9355666 22.61167,33.845 21.1575348,32.0272962 C21.4483897,31.6637972 21.8846024,31.3729423 22.3208151,31.1548012 C23.2660239,30.7185885 24.5747316,30.1368787 25.1563718,29.7733797 C25.2290855,29.700666 25.3017992,29.700666 25.3017992,29.6279523 C25.3017992,29.6279523 25.4472266,28.5373857 25.4472266,28.464672 C25.4472266,28.464672 24.8655865,27.5921769 24.5747316,26.7923956 C24.5747316,26.7923956 24.5747316,26.7923956 24.5020179,26.7923956 C24.2838767,26.8651093 24.0658052,26.5015408 23.9930915,25.9926143 C23.9203777,25.4836879 23.9930915,25.1201193 24.2112326,25.0474056 C24.0658052,24.0294831 24.0658052,21.2666402 27.1922167,21.3393539 C30.3186282,21.2666402 30.2459145,24.0294831 30.1732008,25.0474056 C30.3913419,25.1201193 30.4640557,25.4836183 30.3913419,25.9926143 C30.3186282,26.5015408 30.0278429,26.7923956 29.8824155,26.7923956 C29.8824155,26.7923956 29.8824155,26.7923956 29.8097018,26.7923956 C29.5915606,27.5921769 28.9372068,28.464672 28.9372068,28.464672 C28.9372068,28.5373857 29.0826342,29.6279523 29.0826342,29.6279523 C29.1553479,29.700666 29.1553479,29.700666 29.2280616,29.7733797 C29.8097018,30.1368787 31.1184095,30.7913022 32.0636183,31.1548012 C32.5725447,31.3728728 32.9361133,31.6637276 33.2268986,32.0272962 Z" id="Shape" fill="#9870D0"></path>
                    <path d="M25.3019384,7.81599404 C25.3019384,9.63362823 24.6475845,11.3786183 23.5569483,12.687326 C22.1028131,14.4323161 19.9943241,15.5955964 17.5222664,15.5955964 C15.0502087,15.5955964 12.9417197,14.5050298 11.4875845,12.687326 C10.3970179,11.3786183 9.74259443,9.63362823 9.74259443,7.81599404 C9.74259443,3.52630219 13.232505,0.0363916501 17.5221968,0.0363916501 C21.8118887,0.0363916501 25.3019384,3.52630219 25.3019384,7.81599404 Z" id="Shape" fill="#F2F2F2"></path>
                    <path d="M23.5569483,12.687326 C22.1028131,14.4323161 19.9943241,15.5955964 17.5222664,15.5955964 C15.0502087,15.5955964 12.9417197,14.5050298 11.4875845,12.687326 C11.7784394,12.323827 12.2146521,12.0329722 12.6508648,11.814831 C13.5960736,11.3786183 14.9047813,10.7969085 15.4864215,10.4334095 C15.5591352,10.3606958 15.6318489,10.3606958 15.6318489,10.2879821 C15.6318489,10.2879821 15.7772763,9.19741551 15.7772763,9.12470179 C15.7772763,9.12470179 15.1956362,8.25220676 14.9047813,7.45242545 C14.9047813,7.45242545 14.9047813,7.45242545 14.8320676,7.45242545 C14.6139264,7.52513917 14.3958549,7.16157058 14.3231412,6.65264414 C14.2504274,6.14371769 14.3231412,5.78014911 14.5412823,5.70743539 L14.5412823,5.70743539 C14.3958549,4.68951292 14.3958549,1.92666998 17.5222664,1.9993837 C20.6486779,1.92666998 20.5759642,4.68951292 20.5032505,5.70743539 L20.5032505,5.70743539 C20.7213917,5.78014911 20.7941054,6.14364811 20.7213917,6.65264414 C20.6486779,7.16157058 20.3578926,7.45242545 20.2124652,7.45242545 C20.2124652,7.45242545 20.2124652,7.45242545 20.1397515,7.45242545 C19.9216103,8.25220676 19.2672565,9.12470179 19.2672565,9.12470179 C19.2672565,9.19741551 19.4126839,10.2879821 19.4126839,10.2879821 C19.4853976,10.3606958 19.4853976,10.3606958 19.5581113,10.4334095 C20.1397515,10.7969085 21.4484592,11.451332 22.393668,11.814831 C22.8298807,11.9602584 23.2660934,12.2510437 23.5569483,12.687326 Z" id="Shape" fill="#12D4C4"></path>
                </g>
            </g>
        </g>
    </g>
</svg>