<svg width="512" height="512" xmlns="http://www.w3.org/2000/svg">

 <g>
  <title>background</title>
  <rect fill="none" id="canvas_background" height="402" width="582" y="-1" x="-1"/>
 </g>
 <g>
  <title>Layer 1</title>
  <circle id="svg_1" r="256" fill="#ff5c76" cy="256" cx="256.71991"/>
  <path id="svg_2" fill="#FFFFFF" d="m268.7,256l119.6,-119.6c3.2,-3.2 3.2,-8.3 0,-11.4c-3.2,-3.2 -8.3,-3.2 -11.4,0l-119.7,119.6l-122.1,-122.1c-3.2,-3.2 -8.3,-3.2 -11.4,0c-3.2,3.2 -3.2,8.3 0,11.4l122.1,122.1l-122.1,122.1c-3.2,3.2 -3.2,8.3 0,11.4c1.6,1.6 3.7,2.4 5.7,2.4c2.1,0 4.1,-0.8 5.7,-2.4l122.1,-122.1l119.6,119.6c1.6,1.6 3.7,2.4 5.7,2.4c2.1,0 4.1,-0.8 5.7,-2.4c3.2,-3.2 3.2,-8.3 0,-11.4l-119.5,-119.6z"/>
 </g>
</svg>