<?xml version="1.0" encoding="UTF-8"?>
<svg width="67px" height="67px" viewBox="0 0 67 67" version="1.1" xmlns="http://www.w3.org/2000/svg" xmlns:xlink="http://www.w3.org/1999/xlink">
    <!-- Generator: Sketch 46.2 (44496) - http://www.bohemiancoding.com/sketch -->
    <title>Maintenace</title>
    <desc>Created with Sketch.</desc>
    <defs></defs>
    <g id="Page-1" stroke="none" stroke-width="1" fill="none" fill-rule="evenodd">
        <g id="Artboard-2" transform="translate(-651.000000, -1252.000000)" fill-rule="nonzero">
            <g id="Maintenace" transform="translate(651.000000, 1252.000000)">
                <path d="M61.2899425,25.7692027 C60.7188639,23.4785622 59.7672483,21.1879218 58.6250911,19.0883659 L60.9092234,13.74366 L52.9148514,5.91741171 L47.5853308,8.20805215 C45.491558,7.06282327 43.3977852,6.10831363 40.9234755,5.53560785 L39.0200623,0 L27.7899425,0 L25.6961697,5.53560785 C23.4120374,6.10831363 21.1279051,7.06264059 19.0343145,8.20805215 L13.7046117,5.91741171 L5.90059923,13.74366 L8.18473154,19.0883659 C7.04275647,21.1881045 6.09095877,23.287843 5.51988015,25.7692027 L0,27.8689412 L0,39.1310588 L5.51988015,41.2307973 C6.09095877,43.5214378 7.04257431,45.8120782 8.18473154,47.9116341 L5.90059923,53.25634 L13.8949712,61.0825883 L19.2244918,58.7919478 C21.3182646,59.9371767 23.4120374,60.8916864 25.8863471,61.4643921 L27.9801198,67 L39.0198802,67 L41.1136529,61.4643921 C43.3977852,60.8916864 45.6819175,59.9373594 47.7755082,58.7919478 L53.1050288,61.0825883 L61.0994008,53.25634 L58.8152685,47.9116341 C59.9572435,45.8118955 60.9090412,43.712157 61.4801198,41.2307973 L67,39.1310588 L67,27.8689412 L61.2899425,25.7692027 Z M33.3098226,47.148209 C25.6961697,47.148209 19.6052109,41.0398954 19.6052109,33.404549 C19.6052109,25.7692027 25.6961697,19.660889 33.3098226,19.660889 C40.9234755,19.660889 47.0144343,25.7692027 47.0144343,33.404549 C47.0144343,41.0398954 40.9234755,47.148209 33.3098226,47.148209 Z" id="Shape" fill="#12D4C4"></path>
                <g id="Group" transform="translate(13.000000, 13.000000)" fill="#33FFEE">
                    <path d="M30.0549956,30.0089295 C24.7473097,35.2932335 16.2169513,35.2932335 10.9092655,30.0089295 L5.98073894,34.9157445 C13.9423584,42.8422907 27.0220841,42.8422907 34.9835221,34.9157445 C42.9449602,26.9891982 42.9451416,14.155837 34.9835221,6.04072687 L30.0549956,10.9475419 C35.3628628,16.2318458 35.3628628,24.7246256 30.0549956,30.0089295 Z" id="Shape"></path>
                    <path d="M5.98073894,6.04072687 C-1.98088053,13.9672731 -1.98088053,26.8006344 5.98073894,34.9157445 L10.9092655,30.0089295 C5.60157965,24.7246256 5.60157965,16.2318458 10.9092655,10.9475419 C16.2169513,5.66323789 24.7473097,5.66323789 30.0549956,10.9475419 L34.9835221,6.04072687 C27.0220841,-1.88581938 13.9423584,-1.88581938 5.98073894,6.04072687 Z" id="Shape"></path>
                </g>
            </g>
        </g>
    </g>
</svg>