<?xml version="1.0" encoding="UTF-8"?>
<svg width="70px" height="51px" viewBox="0 0 70 51" version="1.1" xmlns="http://www.w3.org/2000/svg" xmlns:xlink="http://www.w3.org/1999/xlink">
    <!-- Generator: Sketch 46.2 (44496) - http://www.bohemiancoding.com/sketch -->
    <title>Payment</title>
    <desc>Created with Sketch.</desc>
    <defs></defs>
    <g id="Page-1" stroke="none" stroke-width="1" fill="none" fill-rule="evenodd">
        <g id="Artboard-2" transform="translate(-273.000000, -1261.000000)" fill-rule="nonzero">
            <g id="Payment" transform="translate(273.000000, 1261.000000)">
                <path d="M66.1174138,51 L3.88258621,51 C1.73793103,51 0,49.2514286 0,47.0936429 L0,3.90635714 C0,1.74857143 1.73793103,0 3.88258621,0 L66.1174138,0 C68.262069,0 70,1.74857143 70,3.90635714 L70,47.0936429 C70,49.2514286 68.262069,51 66.1174138,51" id="XMLID_120_" fill="#12D4C4"></path>
                <path d="M16.8181818,12 L6.18181818,12 C5.52827273,12 5,11.328 5,10.5 C5,9.672 5.52827273,9 6.18181818,9 L16.8181818,9 C17.4717273,9 18,9.672 18,10.5 C18,11.328 17.4717273,12 16.8181818,12" id="XMLID_119_" fill="#FFFFFF"></path>
                <path d="M31.8181818,12 L21.1818182,12 C20.5282727,12 20,11.328 20,10.5 C20,9.672 20.5282727,9 21.1818182,9 L31.8181818,9 C32.4717273,9 33,9.672 33,10.5 C33,11.328 32.4717273,12 31.8181818,12" id="XMLID_118_" fill="#FFFFFF"></path>
                <path d="M7,18 L6,18 C5.447,18 5,17.328 5,16.5 C5,15.672 5.447,15 6,15 L7,15 C7.553,15 8,15.672 8,16.5 C8,17.328 7.553,18 7,18" id="XMLID_117_" fill="#FFFFFF"></path>
                <path d="M13.75,18 L11.25,18 C10.55875,18 10,17.328 10,16.5 C10,15.672 10.55875,15 11.25,15 L13.75,15 C14.44125,15 15,15.672 15,16.5 C15,17.328 14.44125,18 13.75,18" id="XMLID_116_" fill="#FFFFFF"></path>
                <path d="M20,18 L19,18 C18.447,18 18,17.328 18,16.5 C18,15.672 18.447,15 19,15 L20,15 C20.553,15 21,15.672 21,16.5 C21,17.328 20.553,18 20,18" id="XMLID_115_" fill="#FFFFFF"></path>
                <path d="M27.75,18 L25.25,18 C24.55875,18 24,17.328 24,16.5 C24,15.672 24.55875,15 25.25,15 L27.75,15 C28.44125,15 29,15.672 29,16.5 C29,17.328 28.44125,18 27.75,18" id="XMLID_114_" fill="#FFFFFF"></path>
                <path d="M33.5,18 C33.11,18 32.717,17.8339623 32.435,17.5622642 C32.1635,17.2754717 32,16.8830189 32,16.490566 C32,16.0981132 32.1635,15.7056604 32.435,15.4188679 C32.99,14.8603774 33.995,14.8603774 34.565,15.4188679 C34.835,15.7056604 35,16.0981132 35,16.490566 C35,16.8830189 34.835,17.2754717 34.565,17.5622642 C34.2785,17.8339623 33.9035,18 33.5,18" id="XMLID_113_" fill="#FFFFFF"></path>
                <rect id="XMLID_112_" fill="#33FFEE" x="45" y="9" width="19" height="12"></rect>
                <path d="M66,22 L44,22 L44,7 L66,7 L66,22 Z M46.4444444,19.5 L63.5555556,19.5 L63.5555556,9.5 L46.4444444,9.5 L46.4444444,19.5 Z" id="XMLID_109_" fill="#FFFFFF"></path>
                <rect id="XMLID_108_" fill="#33FFEE" x="6" y="35" width="10" height="7"></rect>
                <rect id="XMLID_107_" fill="#33FFEE" x="22" y="35" width="10" height="7"></rect>
                <rect id="XMLID_106_" fill="#33FFEE" x="38" y="35" width="11" height="7"></rect>
                <rect id="XMLID_105_" fill="#33FFEE" x="53" y="35" width="10" height="7"></rect>
            </g>
        </g>
    </g>
</svg>