<?xml version="1.0" encoding="UTF-8"?>
<svg width="19px" height="19px" viewBox="0 0 19 19" version="1.1" xmlns="http://www.w3.org/2000/svg" xmlns:xlink="http://www.w3.org/1999/xlink">
    <!-- Generator: Sketch 46.2 (44496) - http://www.bohemiancoding.com/sketch -->
    <title>plus</title>
    <desc>Created with Sketch.</desc>
    <defs></defs>
    <g id="Page-1" stroke="none" stroke-width="1" fill="none" fill-rule="evenodd">
        <g id="FAQ" transform="translate(-405.000000, -1374.000000)" fill-rule="nonzero" fill="#898AEA">
            <g id="plus" transform="translate(405.000000, 1374.000000)">
                <path d="M17.812529,8.31258293 L10.6875041,8.31258293 L10.6875041,1.18748341 C10.6875041,0.531640663 10.1558691,0 9.50003317,0 C8.84419729,0 8.3125622,0.531640663 8.3125622,1.18748341 L8.3125622,8.31251659 L1.18760367,8.31251659 C0.531767787,8.31251659 0,8.84415725 0,9.5 C0,10.1558427 0.531767787,10.6874834 1.18760367,10.6874834 L8.3125622,10.6874834 L8.3125622,17.8125166 C8.3125622,18.4683593 8.84419729,19 9.50003317,19 C10.1558691,19 10.6875041,18.4683593 10.6875041,17.8125166 L10.6875041,10.6874834 L17.812529,10.6874834 C18.4683649,10.6874834 19,10.1557764 19,9.5 C19.0000663,8.8442236 18.4683649,8.31258293 17.812529,8.31258293 Z" id="Shape"></path>
            </g>
        </g>
    </g>
</svg>