<?xml version="1.0" encoding="UTF-8"?>
<svg width="75px" height="78px" viewBox="0 0 75 78" version="1.1" xmlns="http://www.w3.org/2000/svg" xmlns:xlink="http://www.w3.org/1999/xlink">
    <!-- Generator: Sketch 46.2 (44496) - http://www.bohemiancoding.com/sketch -->
    <title>Price</title>
    <desc>Created with Sketch.</desc>
    <defs></defs>
    <g id="Page-1" stroke="none" stroke-width="1" fill="none" fill-rule="evenodd">
        <g id="FAQ" transform="translate(-1046.000000, -519.000000)" fill-rule="nonzero">
            <g id="Price" transform="translate(1046.000000, 519.000000)">
                <path d="M39.2523951,7 L0.977702515,45.4160814 C-0.325900838,46.7137976 -0.325900838,48.8188064 0.977702515,50.1178374 L28.0086511,77.0267128 C29.3122544,78.3244291 31.4268126,78.3244291 32.7317368,77.0267128 L70,38.9235559 L70,7 L39.2523951,7 Z M56.7922659,25.4073222 C53.8746775,25.4073222 51.5091723,23.0524998 51.5091723,20.1480873 C51.5091723,17.2436748 53.8746775,14.8888524 56.7922659,14.8888524 C59.7098544,14.8888524 62.0753596,17.2436748 62.0753596,20.1480873 C62.0753596,23.0524998 59.7098544,25.4073222 56.7922659,25.4073222 Z" id="Shape" fill="#898AEA"></path>
                <path d="M56.5,9 C50.701375,9 46,13.701375 46,19.5 C46,25.298625 50.701375,30 56.5,30 C62.298625,30 67,25.298625 67,19.5 C67,13.701375 62.298625,9 56.5,9 Z M56.5,24.75 C53.6006875,24.75 51.25,22.3993125 51.25,19.5 C51.25,16.6006875 53.6006875,14.25 56.5,14.25 C59.3993125,14.25 61.75,16.6006875 61.75,19.5 C61.75,22.3993125 59.3993125,24.75 56.5,24.75 Z" id="Shape" fill="#6061CA"></path>
                <path d="M55.3127871,21 C54.9767976,21 54.6408081,20.871377 54.3848786,20.6154435 C53.8717071,20.102264 53.8717071,19.272777 54.3848786,18.7595975 L72.7593044,0.384884611 C73.2724759,-0.12829487 74.1019499,-0.12829487 74.6151214,0.384884611 C75.1282929,0.898064093 75.1282929,1.72755113 74.6151214,2.24073061 L56.2406956,20.6154435 C55.9847661,20.871377 55.6487766,21 55.3127871,21 Z" id="Shape" fill="#FDD7AD"></path>
                <path d="M27.8199645,58 C25.220824,58 22.7271787,56.9757088 20.8730987,55.1222294 C17.0423004,51.292672 17.0423004,45.0599191 20.8730987,41.2303617 C21.388707,40.7149204 22.2221199,40.7149204 22.7377282,41.2303617 C23.2533365,41.745803 23.2533365,42.5789459 22.7377282,43.0943872 C19.9355092,45.8970168 19.9355092,50.4555742 22.7377282,53.2582038 C24.2370802,54.7570702 26.3113817,55.5163903 28.4239252,55.3384247 C29.4867904,55.250101 30.4533911,54.7307049 31.1443853,53.8791063 C31.8736216,52.9787318 32.2098879,51.8041585 32.0661506,50.6533139 L30.3175659,36.6731225 C30.0854762,34.8130518 30.6274583,32.9121149 31.8076871,31.4580695 C32.9562672,30.0435721 34.5716641,29.1814273 36.3571721,29.0337818 C39.2490621,28.7951759 42.077655,29.828695 44.1269013,31.8759593 C47.9576996,35.7055166 47.9576996,41.9382696 44.1269013,45.7678269 C43.611293,46.2832682 42.7778801,46.2832682 42.2622718,45.7678269 C41.7466635,45.2523856 41.7466635,44.4192427 42.2622718,43.9038014 C45.0644908,41.1011718 45.0644908,36.5426144 42.2622718,33.7399848 C40.7629198,32.2424367 38.6978492,31.48048 36.5760748,31.6597639 C35.5132096,31.7480876 34.5466089,32.2674837 33.8556147,33.1190824 C33.1263784,34.0181385 32.7901121,35.1940301 32.9338494,36.3448748 L34.6824341,50.3250661 C34.9145238,52.1838186 34.371223,54.0860737 33.1923129,55.5388008 C32.0437328,56.9546165 30.4283359,57.8167613 28.6428279,57.9644069 C28.3685401,57.9894539 28.0942523,58 27.8199645,58 Z" id="Shape" fill="#FFFFFF"></path>
                <path d="M21.3452938,58 C21.0009847,58 20.6566756,57.8681926 20.3944088,57.6059227 C19.8685304,57.0800379 19.8685304,56.2300145 20.3944088,55.7041298 L45.7038211,30.3944136 C46.2296995,29.8685288 47.0797128,29.8685288 47.6055912,30.3944136 C48.1314696,30.9202983 48.1314696,31.7703217 47.6055912,32.2962065 L22.2961789,57.6059227 C22.0325672,57.8681926 21.689603,58 21.3452938,58 Z" id="Shape" fill="#FFFFFF"></path>
            </g>
        </g>
    </g>
</svg>