<?xml version="1.0" encoding="UTF-8"?>
<svg width="63px" height="67px" viewBox="0 0 63 67" version="1.1" xmlns="http://www.w3.org/2000/svg" xmlns:xlink="http://www.w3.org/1999/xlink">
    <!-- Generator: Sketch 46.2 (44496) - http://www.bohemiancoding.com/sketch -->
    <title>Process</title>
    <desc>Created with Sketch.</desc>
    <defs></defs>
    <g id="Page-1" stroke="none" stroke-width="1" fill="none" fill-rule="evenodd">
        <g id="Artboard-2" transform="translate(-277.000000, -883.000000)" fill-rule="nonzero">
            <g id="Process" transform="translate(277.000000, 883.000000)">
                <path d="M52.8515625,58.8041958 L11.3151042,58.8041958 C7.44519531,58.8041958 4.296875,55.7299301 4.296875,51.951049 C4.296875,48.1721678 7.44519531,45.0979021 11.3151042,45.0979021 L25.0651042,45.0979021 C31.3043099,45.0979021 36.3802083,40.1413986 36.3802083,34.048951 C36.3802083,27.9565035 31.3043099,23 25.0651042,23 L11.3151042,23 C10.1285937,23 9.16666667,23.9393007 9.16666667,25.0979021 C9.16666667,26.2565035 10.1285937,27.1958042 11.3151042,27.1958042 L25.0651042,27.1958042 C28.935013,27.1958042 32.0833333,30.2700699 32.0833333,34.048951 C32.0833333,37.8278322 28.935013,40.9020979 25.0651042,40.9020979 L11.3151042,40.9020979 C5.07589844,40.9020979 0,45.8586014 0,51.951049 C0,58.0434965 5.07589844,63 11.3151042,63 L52.8515625,63 C54.0380729,63 55,62.0606993 55,60.9020979 C55,59.7434965 54.0380729,58.8041958 52.8515625,58.8041958 Z" id="Shape" fill="#DEE3ED"></path>
                <path d="M57,67 C53.6915745,67 51,64.3084255 51,61 C51,57.6915745 53.6915745,55 57,55 C60.3084255,55 63,57.6915745 63,61 C63,64.3084255 60.3084255,67 57,67 Z" id="Shape" fill="#898AEA"></path>
                <path d="M6,30 C2.69157447,30 0,27.3084255 0,24 C0,20.6915745 2.69157447,18 6,18 C9.30842553,18 12,20.6915745 12,24 C12,27.3084255 9.30842553,30 6,30 Z" id="Shape" fill="#12D4C4"></path>
                <path d="M6,22 C4.89546667,22 4,21.0648608 4,19.9113924 L4,2.08860759 C4,0.935139241 4.89546667,0 6,0 C7.10453333,0 8,0.935139241 8,2.08860759 L8,19.9113924 C8,21.0648608 7.10453333,22 6,22 Z" id="Shape" fill="#5C5F66"></path>
                <path d="M19.8571429,12 L6.14285714,12 C4.95942857,12 4,11.1426383 4,10.0851064 L4,1.91489362 C4,0.857361702 4.95942857,0 6.14285714,0 L19.8571429,0 C21.0405714,0 22,0.857361702 22,1.91489362 L22,10.0851064 C22,11.1426383 21.0405714,12 19.8571429,12 Z" id="Shape" fill="#12D4C4"></path>
            </g>
        </g>
    </g>
</svg>