<?xml version="1.0" encoding="UTF-8"?>
<svg width="54px" height="54px" viewBox="0 0 54 54" version="1.1" xmlns="http://www.w3.org/2000/svg" xmlns:xlink="http://www.w3.org/1999/xlink">
    <!-- Generator: Sketch 46.2 (44496) - http://www.bohemiancoding.com/sketch -->
    <title>chat (1)</title>
    <desc>Created with Sketch.</desc>
    <defs></defs>
    <g id="Page-1" stroke="none" stroke-width="1" fill="none" fill-rule="evenodd">
        <g id="Difference" transform="translate(-552.000000, -621.000000)" fill-rule="nonzero">
            <g id="chat-(1)" transform="translate(552.000000, 621.000000)">
                <path d="M36,0 C26.0584615,0 18,7.1956845 18,16.0728443 C18,19.3438607 19.0975385,22.3850418 20.9769231,24.9242625 C20.7295385,27.8569613 20.0196923,31.9884812 18,34 C18,34 24.1716923,33.1376578 28.3513846,30.6232593 C30.6729231,31.5977611 33.264,32.1456886 36,32.1456886 C45.9415385,32.1456886 54,24.9500041 54,16.0728443 C54,7.1956845 45.9415385,0 36,0 Z" id="Shape" fill="#12D4C4"></path>
                <path d="M22.4707155,51.8074595 L18.7811685,49.3539459 C17.8651857,48.8338378 16.7990418,47.0345946 16.7990418,45.9493514 L16.7990418,42.9720541 C16.7990418,42.9720541 19.3447144,41.2215135 20.1273188,37.6772432 C20.7756615,37.2407568 21.2102454,36.4863243 21.2102454,35.6271351 C21.2102454,35.6271351 21.2102454,34.3627027 21.2102454,33.3987568 C18.3775001,34.336973 15.8980751,34.7017838 15.8980751,34.7017838 C17.830737,32.6911892 18.5099952,28.5615676 18.7467198,25.6302162 C17.7406403,24.2114054 16.9801184,22.6308649 16.4951863,20.9455676 C15.2629819,20.3712432 13.6412418,20 11.5001209,20 C1.9578235,20 2.66711395,27.3513514 2.66711395,27.3513514 L2.66711395,30.2238919 C2.19013158,30.6723243 1.78999636,31.6528108 1.78999636,32.3695676 L1.78999636,35.6280541 C1.78999636,36.4863243 2.22369701,37.2416757 2.87292302,37.6781622 C3.65552743,41.2224324 6.20120003,42.972973 6.20120003,42.972973 L6.20120003,45.9502703 C6.20120003,47.0364324 5.13505609,48.8356757 4.21907327,49.3548649 L0.529526274,51.8083784 C-0.433271482,52.4488649 0.00307906059,54 1.14518686,54 L21.8577048,54 C22.9971627,53.9990811 23.43263,52.4479459 22.4707155,51.8074595 Z" id="Shape" fill="#898AEA"></path>
                <circle id="Oval" fill="#FFFFFF" cx="25.5" cy="16.5" r="2.5"></circle>
                <circle id="Oval" fill="#FFFFFF" cx="34.5" cy="16.5" r="2.5"></circle>
                <circle id="Oval" fill="#FFFFFF" cx="45.5" cy="16.5" r="2.5"></circle>
            </g>
        </g>
    </g>
</svg>