<?xml version="1.0" encoding="UTF-8"?>
<svg width="69px" height="63px" viewBox="0 0 69 63" version="1.1" xmlns="http://www.w3.org/2000/svg" xmlns:xlink="http://www.w3.org/1999/xlink">
    <!-- Generator: Sketch 46.2 (44496) - http://www.bohemiancoding.com/sketch -->
    <title>Quoting</title>
    <desc>Created with Sketch.</desc>
    <defs></defs>
    <g id="Page-1" stroke="none" stroke-width="1" fill="none" fill-rule="evenodd">
        <g id="Artboard-2" transform="translate(-647.000000, -883.000000)" fill-rule="nonzero">
            <g id="Quoting" transform="translate(647.000000, 883.000000)">
                <path d="M63.7598182,50.8552642 L52.4710909,45.1781321 C51.0127273,44.444717 50.0909091,42.9446038 50.0909091,41.3042264 L50.0909091,36.8490566 C50.4076364,36.4865094 50.7716364,36.0193585 51.1592727,35.4678113 C52.698,33.2830189 53.8609091,30.8783208 54.6680909,28.3547547 C56.1158182,27.9066226 57.1818182,26.5610377 57.1818182,24.9622642 L57.1818182,20.2075472 C57.1818182,19.1615094 56.7197273,18.2260189 56,17.5722453 L56,10.6981132 C56,10.6981132 57.4028182,0 43,0 C28.596,0 30,10.6981132 30,10.6981132 L30,17.5722453 C29.2802727,18.2260189 28.8181818,19.1615094 28.8181818,20.2075472 L28.8181818,24.9622642 C28.8181818,26.2151321 29.4729091,27.3170377 30.4526364,27.9541698 C31.6332727,33.1273019 34.7272727,36.8490566 34.7272727,36.8490566 L34.7272727,41.1936792 C34.7272727,42.7781887 33.8669091,44.2366981 32.483,44.9950755 L21.94,50.7803774 C18.8944545,52.4504717 17,55.6610943 17,59.1498679 L17,63 L69,63 L69,59.3828491 C69,55.7716415 66.9708182,52.4706792 63.7598182,50.8552642 Z" id="Shape" fill="#12D4C4"></path>
                <path d="M21.9413793,50.7086957 L29.1175862,46.8311957 C29.0765517,46.7917391 29.1115517,46.7797826 29.1960345,46.7881522 L32.7081034,44.8906522 C34.1213793,44.1266304 35,42.6607609 35,41.0657609 L35,36.6956522 C35,36.6956522 33.7182759,35.1711957 32.4751724,32.7225 L32.4751724,32.7225 C32.4751724,32.7213043 32.4739655,32.7201087 32.4739655,32.718913 C32.3110345,32.3984783 32.1505172,32.0601087 31.9924138,31.7097826 C31.9706897,31.6607609 31.9489655,31.6141304 31.9272414,31.5651087 C31.7667241,31.2028261 31.6098276,30.828587 31.4613793,30.436413 C31.4517241,30.4113043 31.4432759,30.3838043 31.4336207,30.3586957 C31.3032759,30.0119565 31.1813793,29.6544565 31.0643103,29.2873913 C31.032931,29.1869565 31.0015517,29.0877174 30.9713793,28.9872826 C30.8494828,28.5831522 30.7348276,28.1718478 30.6358621,27.7461957 C29.6341379,27.1077174 28.9655172,25.9993478 28.9655172,24.7391304 L28.9655172,19.9565217 C28.9655172,18.9043478 29.4374138,17.9633696 30.1724138,17.3057609 L30.1724138,10.5527174 C28.467069,9.24228261 25.8239655,8 21.7241379,8 C10.1825862,8 9.65517241,17.5652174 9.65517241,17.5652174 L9.65517241,23.5375 C9.02034483,24.1054348 8.44827586,24.9172826 8.44827586,25.8259783 L8.44827586,29.9569565 C8.44827586,31.0461957 9.02637931,32.0027174 9.88931034,32.5563043 C10.9308621,37.0495652 14.4272414,40.2838043 14.4272414,40.2838043 L14.4272414,44.0584783 C14.4272414,45.4346739 13.6681034,46.7020652 12.447931,47.3608696 L4.35689655,52.385 C1.67155172,53.8365217 0,56.6247826 0,59.6557609 L0,63 L16.8965517,63 L16.8965517,59.1272826 C16.8965517,55.6180435 18.8312069,52.388587 21.9413793,50.7086957 Z" id="Shape" fill="#33FFEE"></path>
            </g>
        </g>
    </g>
</svg>