<?xml version="1.0" encoding="UTF-8"?>
<svg width="29px" height="29px" viewBox="0 0 29 29" version="1.1" xmlns="http://www.w3.org/2000/svg" xmlns:xlink="http://www.w3.org/1999/xlink">
    <!-- Generator: Sketch 46.2 (44496) - http://www.bohemiancoding.com/sketch -->
    <title>rocket</title>
    <desc>Created with Sketch.</desc>
    <defs></defs>
    <g id="Page-1" stroke="none" stroke-width="1" fill="none" fill-rule="evenodd">
        <g id="Home-Page" transform="translate(-772.000000, -2197.000000)">
            <g id="rocket" transform="translate(772.000000, 2197.000000)">
                <g id="Layer_1">
                    <g id="Group">
                        <polygon id="Shape" fill="#9870D0" points="5.01532028 16.3709677 2.80645161 19.7566654 9.39163835 26.3419115 12.777336 24.1329835"></polygon>
                        <polygon id="Shape" fill="#9870D0" points="6.71441931 6.39081485 0.935483871 12.1697503 5.55082309 13.6398965 13.1100744 6.08064516"></polygon>
                        <polygon id="Shape" fill="#9870D0" points="16.90563 28.0782317 22.6846248 22.2992963 22.9948539 15.9032258 15.4354839 23.4625364"></polygon>
                        <polyline id="Rectangle-path" fill="#FFB655" points="2.0175265 20.5806452 3.69593837 22.259057 1.67841186 24.2765835 2.44249065e-15 22.5981717"></polyline>
                        <polyline id="Rectangle-path" fill="#FF9811" points="6.82357315 28.9540029 5.14516129 27.275591 7.16268779 25.2580645 8.84109966 26.9364764"></polyline>
                        <polyline id="Rectangle-path" fill="#FFB655" points="1.40322581 25.8935941 4.37746511 22.9193548 6.05583502 24.5977247 3.08159571 27.5719641"></polyline>
                        <path d="M28.2258535,1.43732146 L28.0362032,0.935483871 L23.8713132,5.10037386 C25.0302215,6.25928223 25.0298062,8.13786498 23.8713132,9.29635796 C22.7124048,10.4552663 20.8342968,10.4552663 19.6753291,9.29635796 L8.88709677,20.0845903 L13.8047728,25.0022663 L25.7166656,13.0903142 C28.7637697,10.0432694 29.7485748,5.46923072 28.2258535,1.43732146 Z" id="Shape" fill="#12D4C4"></path>
                        <path d="M23.8411454,9.34114539 C24.9996384,8.1826524 25.0000538,6.304129 23.8411454,5.14516129 L19.6451613,9.34114539 C20.8040697,10.5000538 22.682237,10.5000538 23.8411454,9.34114539 Z" id="Shape" fill="#96C8EF"></path>
                        <path d="M19.9155858,9.25839017 C18.7570928,8.09989718 18.7566774,6.22137378 19.9155858,5.06240607 C21.0740787,3.90391308 22.9530769,3.90391308 24.1115699,5.06240607 L28.2764598,0.89751608 L27.7750376,0.708281119 C26.5309765,0.237893684 25.2230656,0 23.8887485,0 C20.9549242,0 18.1965087,1.14211517 16.1220449,3.21663829 L4.20967742,15.1289464 L9.12735346,20.0466225 L19.9155858,9.25839017 Z" id="Shape" fill="#33FFEE"></path>
                        <path d="M19.5787029,5.07854716 C18.4197946,6.23745553 18.4202099,8.11603827 19.5787029,9.27453126 L23.774687,5.07854716 C22.616194,3.92005417 20.7371959,3.92005417 19.5787029,5.07854716 Z" id="Shape" fill="#D1E7F8"></path>
                    </g>
                </g>
            </g>
        </g>
    </g>
</svg>