<?xml version="1.0" encoding="UTF-8"?>
<svg width="77px" height="77px" viewBox="0 0 77 77" version="1.1" xmlns="http://www.w3.org/2000/svg" xmlns:xlink="http://www.w3.org/1999/xlink">
    <!-- Generator: Sketch 46.2 (44496) - http://www.bohemiancoding.com/sketch -->
    <title>second</title>
    <desc>Created with Sketch.</desc>
    <defs>
        <circle id="path-1" cx="27.5" cy="27.5" r="27.5"></circle>
        <filter x="-36.4%" y="-23.6%" width="172.7%" height="172.7%" filterUnits="objectBoundingBox" id="filter-2">
            <feOffset dx="0" dy="7" in="SourceAlpha" result="shadowOffsetOuter1"></feOffset>
            <feGaussianBlur stdDeviation="5.5" in="shadowOffsetOuter1" result="shadowBlurOuter1"></feGaussianBlur>
            <feColorMatrix values="0 0 0 0 0.333333333   0 0 0 0 0.525490196   0 0 0 0 0.870588235  0 0 0 0.0871546649 0" type="matrix" in="shadowBlurOuter1"></feColorMatrix>
        </filter>
    </defs>
    <g id="Page-1" stroke="none" stroke-width="1" fill="none" fill-rule="evenodd">
        <g id="Learn-Page" transform="translate(-586.000000, -1635.000000)">
            <g id="second" transform="translate(597.000000, 1639.000000)">
                <g id="Oval-4">
                    <use fill="black" fill-opacity="1" filter="url(#filter-2)" xlink:href="#path-1"></use>
                    <use fill="#FFFFFF" fill-rule="evenodd" xlink:href="#path-1"></use>
                </g>
                <g id="chat-(1)" transform="translate(17.000000, 12.000000)">
                    <path d="M0.348,28.64 L0.348,24.068 C0.99600324,23.4919971 1.90799412,22.700005 3.084,21.692 C4.26000588,20.683995 5.17199676,19.8980028 5.82,19.334 C6.46800324,18.7699972 7.22399568,18.0620043 8.088,17.21 C8.95200432,16.3579957 9.59999784,15.632003 10.032,15.032 C11.1600056,13.4719922 11.724,12.1160058 11.724,10.964 C11.724,8.9239898 10.824009,7.904 9.024,7.904 C8.15999568,7.904 7.47600252,8.20999694 6.972,8.822 C6.46799748,9.43400306 6.216,10.3159942 6.216,11.468 L0.276,11.468 C0.276,8.5879856 1.10999166,6.41000738 2.778,4.934 C4.44600834,3.45799262 6.63598644,2.72 9.348,2.72 C12.0600136,2.72 14.1719924,3.49399226 15.684,5.042 C17.1960076,6.59000774 17.952,8.45598908 17.952,10.64 C17.952,12.2960083 17.5920036,13.7479938 16.872,14.996 C16.4399978,15.7160036 16.0680016,16.3279975 15.756,16.832 C15.4439984,17.3360025 14.9280036,17.9599963 14.208,18.704 C13.4879964,19.4480037 12.9600017,19.9879983 12.624,20.324 C12.2879983,20.6600017 11.6700045,21.2359959 10.77,22.052 C9.8699955,22.8680041 9.3000012,23.3959988 9.06,23.636 L18.42,23.636 L18.42,28.64 L0.348,28.64 Z" id="2" fill="#898AEA"></path>
                    <path d="M21,0 C15.4769231,0 11,4.02111781 11,8.98188357 C11,10.8098045 11.6097436,12.5092881 12.6538462,13.9282643 C12.5164103,15.5671254 12.1220513,17.875916 11,19 C11,19 14.4287179,18.5181029 16.7507692,17.1129979 C18.0405128,17.6575724 19.48,17.9637671 21,17.9637671 C26.5230769,17.9637671 31,13.9426493 31,8.98188357 C31,4.02111781 26.5230769,0 21,0 Z" id="Shape" fill="#12D4C4" fill-rule="nonzero"></path>
                    <circle id="Oval" fill="#FFFFFF" fill-rule="nonzero" cx="15.5" cy="9.5" r="1.5"></circle>
                    <circle id="Oval" fill="#FFFFFF" fill-rule="nonzero" cx="20.5" cy="9.5" r="1.5"></circle>
                    <circle id="Oval" fill="#FFFFFF" fill-rule="nonzero" cx="26.5" cy="9.5" r="1.5"></circle>
                </g>
            </g>
        </g>
    </g>
</svg>