<?xml version="1.0" encoding="UTF-8"?>
<svg width="62px" height="65px" viewBox="0 0 62 65" version="1.1" xmlns="http://www.w3.org/2000/svg" xmlns:xlink="http://www.w3.org/1999/xlink">
    <!-- Generator: Sketch 46.2 (44496) - http://www.bohemiancoding.com/sketch -->
    <title>puzzle</title>
    <desc>Created with Sketch.</desc>
    <defs></defs>
    <g id="Page-1" stroke="none" stroke-width="1" fill="none" fill-rule="evenodd">
        <g id="Difference" transform="translate(-952.000000, -467.000000)" fill-rule="nonzero">
            <g id="puzzle" transform="translate(952.000000, 467.000000)">
                <path d="M24.630883,30.8480817 C22.3638285,30.8480817 20.5257144,29.0376145 20.5257144,26.804532 C20.5257144,24.5717025 22.3638285,22.7611087 24.630883,22.7611087 C25.1109213,22.7611087 25.5709312,22.8421669 26,22.9921434 L26,14 L16.1861115,14 C16.3374796,14.4226152 16.4206742,14.8757062 16.4206742,15.3485243 C16.4206742,17.5814803 14.5825601,19.3919476 12.3155057,19.3919476 C10.0484512,19.3919476 8.21033711,17.5816068 8.21033711,15.3485243 C8.21033711,14.8757062 8.29353177,14.4226152 8.44489983,14 L0,14 L0,39.6080524 L9.12932997,39.6080524 C8.97796191,40.0306676 8.89476725,40.4847702 8.89476725,40.9565767 C8.89476725,43.1895327 10.7328813,45 12.9999358,45 C15.2669903,45 17.1051044,43.1896592 17.1051044,40.9565767 C17.1051044,40.4847702 17.0219097,40.0306676 16.8705416,39.6080524 L25.9998716,39.6080524 L25.9998716,30.6170471 C25.5710596,30.7671501 25.1110497,30.8480817 24.630883,30.8480817 Z" id="Shape" fill="#12D4C4"></path>
                <path d="M50.6330183,56.1062193 C48.3638312,56.1062193 46.5275794,54.2681233 46.5275794,52.0009629 C46.5275794,49.7338024 48.3638312,47.8958349 50.6330183,47.8958349 C51.1099918,47.8958349 51.5711732,47.9780016 52,48.1302669 L52,39 L26,39 L26,65 L52,65 L52,55.8716589 C51.5710448,56.0219984 51.1098634,56.1062193 50.6330183,56.1062193 Z" id="Shape" fill="#37BC9B"></path>
                <path d="M26.9564503,47.8958788 C26.4836321,47.8958788 26.0305411,47.978046 25.6089376,48.130312 L25.6089376,39 L2.24630574e-16,39 L2.24630574e-16,48.130312 C0.422488731,47.9779176 0.875579759,47.8958788 1.34852434,47.8958788 C3.58148035,47.8958788 5.39194762,49.7338554 5.39194762,52.0010271 C5.39194762,54.2681987 3.58148035,56.1063038 1.34852434,56.1063038 C0.875706215,56.1063038 0.422615187,56.0220824 0,55.8717422 L0,65 L25.609064,65 L25.609064,55.8716138 C26.0305411,56.021954 26.4837586,56.1061754 26.9565767,56.1061754 C29.1895327,56.1061754 31,54.2680704 31,52.0008987 C31,49.7337271 29.1894063,47.8958788 26.9564503,47.8958788 Z" id="Shape" fill="#5859C3"></path>
                <path d="M62,19.6159767 C61.5775251,19.7650687 61.1233107,19.8468859 60.6496229,19.8468859 C58.4186365,19.8468859 56.6062051,18.0374229 56.6062051,15.8034461 C56.6062051,13.570481 58.4186365,11.7598799 60.6496229,11.7598799 C61.1233107,11.7598799 61.5775251,11.8418236 62,11.9909155 L62,3 L36.3897484,3 L36.3897484,11.991042 C35.9692967,11.84195 35.5171056,11.7600064 35.0434178,11.7600064 C32.8105346,11.7600064 31,13.570481 31,15.8035726 C31,18.0375494 32.8104082,19.8470124 35.0434178,19.8470124 C35.5171056,19.8470124 35.9692967,19.7651952 36.3897484,19.6161032 L36.3897484,28.6081568 L45.3824836,28.6081568 C45.2344087,29.0306473 45.1515829,29.4827285 45.1515829,29.9565602 C45.1515829,32.1895253 46.9618646,34 49.1948742,34 C51.4278838,34 53.2381656,32.1896518 53.2381656,29.9565602 C53.2381656,29.4827285 53.1552133,29.0306473 53.0072649,28.6081568 L62,28.6081568 L62,19.6159767 L62,19.6159767 Z" id="Shape" fill="#F6BB42"></path>
                <path d="M50.6330183,53.104334 C48.3638312,53.104334 46.5275794,51.2662199 46.5275794,48.9990371 C46.5275794,46.732111 48.3638312,44.8938685 50.6330183,44.8938685 C51.1099918,44.8938685 51.5711732,44.9779619 52,45.1284313 L52,36 L26,36 L26,62 L52,62 L52,52.8696429 C51.5710448,53.0221665 51.1098634,53.104334 50.6330183,53.104334 Z" id="Shape" fill="#48CFAD"></path>
                <path d="M26.9564503,44.8938246 C26.4836321,44.8938246 26.0305411,44.9779176 25.6089376,45.1283862 L25.6089376,36 L0,36 L0,45.1283862 C0.422488731,44.9779176 0.875579759,44.8938246 1.34852434,44.8938246 C3.58148035,44.8938246 5.39194762,46.7319296 5.39194762,48.9989729 C5.39194762,51.2660162 3.58148035,53.1042496 1.34852434,53.1042496 C0.875706215,53.1042496 0.422615187,53.021954 2.24630574e-16,52.869688 L2.24630574e-16,62 L25.609064,62 L25.609064,52.869688 C26.0305411,53.0220824 26.4837586,53.1042496 26.9565767,53.1042496 C29.1895327,53.1042496 31,51.2661446 31,48.9989729 C30.9998735,46.7319296 29.1894063,44.8938246 26.9564503,44.8938246 Z" id="Shape" fill="#898AEA"></path>
                <path d="M62,16.6174629 C61.5775251,16.7665591 61.1233107,16.8483787 60.6496229,16.8483787 C58.4186365,16.8483787 56.6062051,15.0379788 56.6062051,12.8048234 C56.6062051,10.5716681 58.4186365,8.76114173 60.6496229,8.76114173 C61.1233107,8.76114173 61.5775251,8.84308774 62,8.99218396 L62,0 L36.3897484,0 L36.3897484,8.99231042 C35.9692967,8.8432142 35.5171056,8.76126819 35.0434178,8.76126819 C32.8105346,8.76126819 31,10.5717945 31,12.8049499 C31,15.0381052 32.8104082,16.8485051 35.0434178,16.8485051 C35.5171056,16.8485051 35.9692967,16.7666856 36.3897484,16.6175893 L36.3897484,25.6098998 L45.3824836,25.6098998 C45.2344087,26.0303789 45.1515829,26.4844964 45.1515829,26.9563183 C45.1515829,29.1893472 46.9618646,31 49.1948742,31 C51.4278838,31 53.2381656,29.1894736 53.2381656,26.9563183 C53.2381656,26.4844964 53.1552133,26.0303789 53.0072649,25.6098998 L62,25.6098998 L62,16.6174629 L62,16.6174629 Z" id="Shape" fill="#FFCE54"></path>
                <path d="M24.630883,27.8478976 C22.3638285,27.8478976 20.5257144,26.0374229 20.5257144,23.8044578 C20.5257144,21.5714927 22.3638285,19.7600064 24.630883,19.7600064 C25.1109213,19.7600064 25.5709312,19.84195 26,19.991042 L26,11 L16.1861115,11 C16.3374796,11.4214788 16.4206742,11.8745717 16.4206742,12.3473917 C16.4206742,14.5803569 14.5825601,16.3908315 12.3155057,16.3908315 C10.0484512,16.3908315 8.21033711,14.5804833 8.21033711,12.3473917 C8.21033711,11.8745717 8.29353177,11.4214788 8.44489983,11 L0,11 L0,36.6081568 L9.12932997,36.6081568 C8.97796191,37.0306473 8.89476725,37.4827285 8.89476725,37.9565602 C8.89476725,40.1895253 10.7328813,42 12.9999358,42 C15.2669903,42 17.1051044,40.1896518 17.1051044,37.9565602 C17.1051044,37.4827285 17.0219097,37.0306473 16.8705416,36.6081568 L25.9998716,36.6081568 L25.9998716,27.6168619 C25.5710596,27.7649422 25.1110497,27.8478976 24.630883,27.8478976 Z" id="Shape" fill="#33FFEE"></path>
            </g>
        </g>
    </g>
</svg>