<?xml version="1.0" encoding="UTF-8"?>
<svg width="77px" height="77px" viewBox="0 0 77 77" version="1.1" xmlns="http://www.w3.org/2000/svg" xmlns:xlink="http://www.w3.org/1999/xlink">
    <!-- Generator: Sketch 46.2 (44496) - http://www.bohemiancoding.com/sketch -->
    <title>support</title>
    <desc>Created with Sketch.</desc>
    <defs>
        <circle id="path-1" cx="27.5" cy="27.5" r="27.5"></circle>
        <filter x="-36.4%" y="-23.6%" width="172.7%" height="172.7%" filterUnits="objectBoundingBox" id="filter-2">
            <feOffset dx="0" dy="7" in="SourceAlpha" result="shadowOffsetOuter1"></feOffset>
            <feGaussianBlur stdDeviation="5.5" in="shadowOffsetOuter1" result="shadowBlurOuter1"></feGaussianBlur>
            <feColorMatrix values="0 0 0 0 0.333333333   0 0 0 0 0.525490196   0 0 0 0 0.870588235  0 0 0 0.0871546649 0" type="matrix" in="shadowBlurOuter1"></feColorMatrix>
        </filter>
    </defs>
    <g id="Page-1" stroke="none" stroke-width="1" fill="none" fill-rule="evenodd">
        <g id="Learn-Page" transform="translate(-730.000000, -2672.000000)">
            <g id="support" transform="translate(741.000000, 2676.000000)">
                <g id="Oval-4">
                    <use fill="black" fill-opacity="1" filter="url(#filter-2)" xlink:href="#path-1"></use>
                    <use fill="#FFFFFF" fill-rule="evenodd" xlink:href="#path-1"></use>
                </g>
                <g id="phone-call-(1)" transform="translate(11.000000, 11.000000)" fill-rule="nonzero">
                    <circle id="Oval" fill="#33FFEE" cx="16.5" cy="16.5" r="16.5"></circle>
                    <path d="M17.0755871,22.32489 L16.3053904,23.3517646 C15.8273373,24.0100176 14.871231,24.0363477 14.3135023,23.4570851 L9.21426896,17.90143 C8.6565403,17.2958372 8.81589135,16.3742831 9.50641254,15.9530012 L10.6218698,15.2947482 C11.4983006,14.7681458 11.6842101,13.5832905 10.9936889,12.819717 L8.01913613,9.52845211 C7.40829046,8.87019914 6.37250868,8.8175389 5.708546,9.42313164 L5.01802481,10.0287244 C1.83100394,12.8987074 2.7871102,16.1109819 5.3367269,18.9019745 L12.9059015,27.195962 C15.4555182,29.9606245 18.589422,31.2508003 21.7764429,28.3808174 L22.4669641,27.7752246 C23.1309268,27.1696319 23.1840438,26.1427572 22.5731981,25.4845043 L19.5986453,22.1932394 C18.9081241,21.4296659 17.6864328,21.5086563 17.0755871,22.32489 Z" id="Shape" fill="#0EBCAE"></path>
                    <g id="Group" transform="translate(14.000000, 9.000000)" fill="#FFFFFF">
                        <path d="M0.855555556,9.98742138 C0.362962963,9.98742138 0,9.61006289 0,9.1572327 C0,9.03144654 0.0259259259,6.11320755 3.05925926,4.62893082 C4.2,4.05031447 4.32962963,3.37106918 4.32962963,3.14465409 L4.32962963,2.99371069 C4.32962963,2.28930818 3.73333333,1.73584906 3.03333333,1.73584906 C2.30740741,1.73584906 1.73703704,2.31446541 1.73703704,2.99371069 C1.73703704,3.47169811 1.34814815,3.82389937 0.881481481,3.82389937 C0.388888889,3.82389937 0.0259259259,3.44654088 0.0259259259,2.99371069 C0.0259259259,1.3836478 1.37407407,0.0503144654 3.05925926,0.0503144654 C4.71851852,0.0503144654 6.06666667,1.35849057 6.09259259,2.96855346 L6.09259259,3.11949686 C6.09259259,3.69811321 5.88518519,5.1572327 3.88888889,6.13836478 C2.67037037,6.71698113 2.15185185,7.64779874 1.91851852,8.32704403 L5.21111111,8.32704403 C5.7037037,8.32704403 6.06666667,8.70440252 6.06666667,9.1572327 C6.06666667,9.63522013 5.67777778,9.98742138 5.21111111,9.98742138 L0.855555556,9.98742138 Z" id="Shape"></path>
                        <path d="M11.0444444,9.1572327 L11.0444444,7.89937107 L8.06296296,7.89937107 C7.77777778,7.89937107 7.49259259,7.74842767 7.33703704,7.49685535 C7.25925926,7.37106918 7.20740741,7.22012579 7.20740741,7.06918239 C7.20740741,6.91823899 7.23333333,6.79245283 7.31111111,6.66666667 L10.7074074,0.452830189 C10.862963,0.176100629 11.1481481,0 11.4592593,0 L11.8740741,0 C12.3666667,0 12.7296296,0.377358491 12.7296296,0.830188679 L12.7296296,6.21383648 L13.1444444,6.21383648 C13.6111111,6.21383648 14,6.59119497 14,7.04402516 C14,7.49685535 13.6111111,7.87421384 13.1444444,7.87421384 L12.7296296,7.87421384 L12.7296296,9.13207547 C12.7296296,9.58490566 12.3407407,9.96226415 11.8740741,9.96226415 C11.4333333,9.98742138 11.0444444,9.61006289 11.0444444,9.1572327 Z M9.48888889,6.23899371 L11.0444444,6.23899371 L11.0444444,3.42138365 L9.48888889,6.23899371 Z" id="Shape"></path>
                    </g>
                </g>
            </g>
        </g>
    </g>
</svg>