<?xml version="1.0" encoding="UTF-8"?>
<svg width="53px" height="52px" viewBox="0 0 53 52" version="1.1" xmlns="http://www.w3.org/2000/svg" xmlns:xlink="http://www.w3.org/1999/xlink">
    <!-- Generator: Sketch 46.2 (44496) - http://www.bohemiancoding.com/sketch -->
    <title>trophy</title>
    <desc>Created with Sketch.</desc>
    <defs></defs>
    <g id="Page-1" stroke="none" stroke-width="1" fill="none" fill-rule="evenodd">
        <g id="Difference" transform="translate(-129.000000, -461.000000)" fill-rule="nonzero">
            <g id="trophy" transform="translate(129.000000, 461.000000)">
                <polygon id="Shape" fill="#FF7058" points="32 43 22 43 23.7044948 39.3870863 25.1818034 36 28.8181966 36 30.2955052 39.3870863"></polygon>
                <path d="M36.9254513,43 L15.175041,43 C13.9787581,43 13,43.9529364 13,45.117659 L13,52 L38.9917299,52 L38.9917299,45.117659 C39.1004923,43.9529364 38.1217343,43 36.9254513,43 Z" id="Shape" fill="#FFD15C"></path>
                <path d="M30,39.6046382 C29.1724445,40.0697959 28.344889,40.5348423 27.5172346,40.8837106 L27.0000495,41 L26.4827654,40.7674212 C25.65521,40.4185529 24.8276545,39.9535065 24,39.4883488 L25.3448395,36 L28.5517037,36 L30,39.6046382 Z" id="Shape" fill="#F1543F"></path>
                <g id="Group" fill="#F8B64C">
                    <path d="M0,6.04077557 L0,10.5439489 C0,21.5272727 6.83974502,30.9728892 16.4373904,34.9269489 C19.5262769,36.2449687 22.9461494,36.9039261 26.4763506,36.9039261 C30.0065518,36.9039261 33.4264243,36.2449687 36.5153108,34.9269489 C46.1129562,30.9729943 52.9527012,21.5272727 52.9527012,10.544054 L52.9527012,6.04077557 L0,6.04077557 Z M48.5398705,10.5439489 C48.5398705,15.8159233 46.664494,20.6486278 43.4652789,24.4927386 C39.3835398,29.3253381 33.31599,32.5105966 26.4763506,32.5105966 C19.6367112,32.5105966 13.5691614,29.4352869 9.48742231,24.4927386 C6.39853586,20.7583665 4.41283068,15.8159233 4.41283068,10.5439489 L4.41283068,10.4341051 L48.4295418,10.4341051 L48.4295418,10.5439489 L48.5398705,10.5439489 Z" id="Shape"></path>
                    <path d="M43.6859363,0 L9.26665936,0 C8.49446414,0 7.94282072,0.658957386 7.94282072,1.31801989 C7.94282072,2.08682102 8.49435857,2.74588352 9.26665936,2.74588352 L43.6859363,2.74588352 C44.4581315,2.74588352 45.0097749,2.08692614 45.0097749,1.42786364 C45.0096693,0.658957386 44.4581315,0 43.6859363,0 Z" id="Shape"></path>
                </g>
                <path d="M43,3 L43,14.9283541 C43,25.973146 36.2435523,36.0239172 26,40 C15.7564477,35.9134587 9,25.973146 9,14.8178956 L9,3 L43,3 Z" id="Shape" fill="#FFD15C"></path>
                <polygon id="Shape" fill="#FFFFFF" points="27.0000544 8 29.3863123 15.2380385 37 15.2380385 30.8636129 19.7618532 33.1363327 27 27.0000544 22.4761853 20.8636673 27 23.1363871 19.7618532 17 15.2380385 24.6136877 15.2380385"></polygon>
                <rect id="Rectangle-path" fill="#FFC952" x="9" y="3" width="34" height="1"></rect>
            </g>
        </g>
    </g>
</svg>