<?xml version="1.0" encoding="UTF-8"?>
<svg width="77px" height="77px" viewBox="0 0 77 77" version="1.1" xmlns="http://www.w3.org/2000/svg" xmlns:xlink="http://www.w3.org/1999/xlink">
    <!-- Generator: Sketch 46.2 (44496) - http://www.bohemiancoding.com/sketch -->
    <title>your-idea</title>
    <desc>Created with Sketch.</desc>
    <defs>
        <circle id="path-1" cx="27.5" cy="27.5" r="27.5"></circle>
        <filter x="-36.4%" y="-23.6%" width="172.7%" height="172.7%" filterUnits="objectBoundingBox" id="filter-2">
            <feOffset dx="0" dy="7" in="SourceAlpha" result="shadowOffsetOuter1"></feOffset>
            <feGaussianBlur stdDeviation="5.5" in="shadowOffsetOuter1" result="shadowBlurOuter1"></feGaussianBlur>
            <feColorMatrix values="0 0 0 0 0.333333333   0 0 0 0 0.525490196   0 0 0 0 0.870588235  0 0 0 0.0871546649 0" type="matrix" in="shadowBlurOuter1"></feColorMatrix>
        </filter>
    </defs>
    <g id="Page-1" stroke="none" stroke-width="1" fill="none" fill-rule="evenodd">
        <g id="Learn-Page" transform="translate(-586.000000, -563.000000)">
            <g id="your-idea" transform="translate(597.000000, 567.000000)">
                <g id="Oval-4">
                    <use fill="black" fill-opacity="1" filter="url(#filter-2)" xlink:href="#path-1"></use>
                    <use fill="#FFFFFF" fill-rule="evenodd" xlink:href="#path-1"></use>
                </g>
                <g id="idea" transform="translate(13.000000, 10.000000)" fill-rule="nonzero">
                    <path d="M18.2869876,26 C18.6999733,24.577153 19.5259448,23.2965706 20.6272616,22.3005177 C22.6921903,20.5219089 24,17.8184795 24,14.830454 C24,9.28126389 19.5260093,4.72806001 14.0194897,5.0126561 C9.13244878,5.22608649 5.14023177,9.49469428 5.00259137,14.5458579 C4.9337389,17.6762148 6.24154859,20.4508099 8.37532977,22.3005177 C9.54543453,23.2965039 10.371406,24.5770863 10.7843917,26 L18.2869876,26 L18.2869876,26 Z" id="Shape" fill="#FFD15C"></path>
                    <path d="M13.6085322,24 L14.1897586,24 L11.6065102,14.1264896 C11.6711111,14.1264896 11.7356514,14.1264896 11.8002523,14.1264896 C12.1231357,14.1264896 12.4460796,13.9939796 12.704362,13.7288977 C12.8335032,13.5963878 12.962705,13.5301018 13.1564471,13.5301018 C13.3501892,13.5301018 13.4793305,13.5963878 13.6085322,13.7288977 C14.0606174,14.2589995 14.8355858,14.2589995 15.2876104,13.7288977 C15.4167516,13.5963878 15.5459534,13.5301018 15.7396955,13.5301018 C15.8688367,13.5301018 16.0625789,13.5963878 16.1917806,13.7288977 C16.4501236,13.9939796 16.7084061,14.1264896 17.0958903,14.1264896 C17.1604912,14.1264896 17.2250315,14.1264896 17.2896324,14.1264896 L14.7709849,24 L15.3522113,24 L18,13.6626117 C18,13.5301018 18,13.3975297 17.8708588,13.3313058 C17.7417175,13.2650198 17.6125158,13.3313058 17.5479754,13.3975919 C17.4188342,13.5301018 17.2896324,13.5963878 17.1604912,13.5963878 C16.9667491,13.5963878 16.8376079,13.5301018 16.6438657,13.3975919 C16.3855227,13.1325099 16.1272403,13 15.8042964,13 C15.4813525,13 15.22307,13.1325099 14.964727,13.3975919 C14.706384,13.6626738 14.3188998,13.6626738 14.0606174,13.3975919 C13.8668752,13.1325099 13.5439919,13 13.221048,13 L13.221048,13 C12.8981647,13 12.5752208,13.1325099 12.3814787,13.3975919 C12.2523374,13.5301018 12.0585953,13.5963878 11.8648532,13.5963878 C11.735712,13.5963878 11.5419699,13.5301018 11.477369,13.3975919 C11.4127681,13.3313058 11.2836269,13.2650819 11.1544856,13.3313058 C11.0253444,13.3975919 10.9607435,13.5301018 11.0253444,13.6626117 L13.6085322,24 Z" id="Shape" fill="#FFFFFF"></path>
                    <g id="Group" transform="translate(10.000000, 25.000000)">
                        <path d="M2,7 C2.40327214,7.57142857 3.37100432,8 4.5,8 C5.62899568,8 6.59672786,7.57142857 7,7 L2,7 Z" id="Shape" fill="#6566C7"></path>
                        <path d="M7.51376573,7 L1.48623427,7 C0.660522762,7 0,6.40428057 0,5.65957892 L0,0 L9,0 L9,5.65957892 C9,6.40421076 8.33939983,7 7.51376573,7 Z" id="Shape" fill="#898AEA"></path>
                    </g>
                    <g id="Group" transform="translate(10.000000, 26.000000)" fill="#B0B1FB">
                        <path d="M8.20285714,1.54406452 L0.797142857,1.54406452 C0.385714286,1.54406452 0.0428785714,1.2 0.0428785714,0.787096774 L0.0428785714,0.787096774 C0.0428785714,0.374193548 0.385714286,0.0301290323 0.797142857,0.0301290323 L8.20285714,0.0301290323 C8.61428571,0.0301290323 8.95712143,0.374193548 8.95712143,0.787096774 L8.95712143,0.787096774 C8.95712143,1.2 8.61428571,1.54406452 8.20285714,1.54406452 Z" id="Shape"></path>
                        <path d="M8.20285714,3.95270968 L0.797142857,3.95270968 C0.385714286,3.95270968 0.0428785714,3.60864516 0.0428785714,3.19574194 L0.0428785714,3.19574194 C0.0428785714,2.78283871 0.385714286,2.43877419 0.797142857,2.43877419 L8.20285714,2.43877419 C8.61428571,2.43877419 8.95712143,2.78283871 8.95712143,3.19574194 L8.95712143,3.19574194 C8.95712143,3.60858065 8.61428571,3.95270968 8.20285714,3.95270968 Z" id="Shape"></path>
                    </g>
                    <g id="Group" fill="#FFD15C">
                        <path d="M14.5,0 C14.1532354,0 13.8064058,0.277799479 13.8064058,0.694466146 L13.8064058,3.05559896 C13.8064058,3.40279948 14.0838565,3.7500651 14.5,3.7500651 C14.9161435,3.7500651 15.1935942,3.47226563 15.1935942,3.05559896 L15.1935942,0.694466146 C15.1935942,0.277799479 14.8467646,0 14.5,0 Z" id="Shape"></path>
                        <path d="M5.20615022,4.23613281 C4.92869955,3.95833333 4.51255605,3.95833333 4.2351704,4.23613281 C3.95778475,4.51393229 3.95771973,4.93059896 4.2351704,5.20833333 L5.89974439,6.875 C6.17719507,7.15279948 6.59333857,7.15279948 6.87072422,6.875 C7.14810987,6.59720052 7.14817489,6.18053385 6.87072422,5.90279948 L5.20615022,4.23613281 Z" id="Shape"></path>
                        <path d="M3.05605381,13.8194661 L0.69788565,13.8194661 C0.351121076,13.8194661 0.00429147982,14.0972656 0.00429147982,14.5139323 L0.00429147982,14.5139323 C0.00429147982,14.8611328 0.281742152,15.2083984 0.69788565,15.2083984 L3.05605381,15.2083984 C3.40281839,15.2083984 3.74964798,14.930599 3.74964798,14.5139323 L3.74964798,14.5139323 C3.74964798,14.1666667 3.40281839,13.8194661 3.05605381,13.8194661 Z" id="Shape"></path>
                        <path d="M5.89967937,22.1527995 L4.23510538,23.8194661 C3.95765471,24.0972656 3.95765471,24.5139323 4.23510538,24.7916667 C4.51255605,25.069401 4.92869955,25.0694661 5.2060852,24.7916667 L6.87065919,23.125 C7.14810987,22.8472005 7.14810987,22.4305339 6.87065919,22.1527995 C6.59320852,21.8750651 6.17713004,21.875 5.89967937,22.1527995 Z" id="Shape"></path>
                        <path d="M23.1003206,22.1527995 C22.82287,21.875 22.4067265,21.875 22.1292758,22.1527995 C21.8518251,22.430599 21.8518251,22.8472656 22.1292758,23.125 L23.7938498,24.7916667 C24.0713004,25.0694661 24.4874439,25.0694661 24.7648296,24.7916667 C25.0422152,24.5138672 25.0422803,24.0972005 24.7648296,23.8194661 L23.1003206,22.1527995 Z" id="Shape"></path>
                        <path d="M28.3021143,13.8194661 L25.9439462,13.8194661 C25.5971816,13.8194661 25.250352,14.0972656 25.250352,14.5139323 L25.250352,14.5139323 C25.250352,14.8611328 25.5278027,15.2083984 25.9439462,15.2083984 L28.3021143,15.2083984 C28.6488789,15.2083984 28.9957085,14.930599 28.9957085,14.5139323 L28.9957085,14.5139323 C28.9956435,14.1666667 28.7182578,13.8194661 28.3021143,13.8194661 Z" id="Shape"></path>
                        <path d="M23.7938498,4.23613281 L22.1292758,5.90279948 C21.8518251,6.18059896 21.8518251,6.59726562 22.1292758,6.875 C22.4067265,7.15279948 22.82287,7.15279948 23.1002556,6.875 L24.7648296,5.20833333 C25.0422803,4.93053385 25.0422803,4.51386719 24.7648296,4.23613281 C24.4873789,3.95839844 24.0713004,3.95833333 23.7938498,4.23613281 Z" id="Shape"></path>
                    </g>
                </g>
            </g>
        </g>
    </g>
</svg>