<?xml version="1.0" encoding="UTF-8"?>
<svg width="59px" height="59px" viewBox="0 0 59 59" version="1.1" xmlns="http://www.w3.org/2000/svg" xmlns:xlink="http://www.w3.org/1999/xlink">
    <!-- Generator: Sketch 41.2 (35397) - http://www.bohemiancoding.com/sketch -->
    <title>customer-service</title>
    <desc>Created with Sketch.</desc>
    <defs></defs>
    <g id="Page-1" stroke="none" stroke-width="1" fill="none" fill-rule="evenodd">
        <g id="customer-service">
            <g id="Capa_1">
                <g id="Group" transform="translate(25.302144, 38.500548)" fill="#40596B">
                    <path d="M6.82456335,20.3420804 L1.45740351,20.3420804 C0.7127154,20.3420804 0.107994152,19.7389434 0.107994152,18.9947911 L0.107994152,15.3134491 C0.107994152,14.5692968 0.711565302,13.9661598 1.45740351,13.9661598 L6.82456335,13.9661598 C7.56798635,13.9661598 8.17282261,14.5692968 8.17282261,15.3134491 L8.17282261,18.9947911 C8.1727076,19.7389434 7.56798635,20.3420804 6.82456335,20.3420804" id="Shape"></path>
                    <path d="M14.3692027,18.3794719 L5.20154581,18.3794719 L5.20154581,15.927734 L14.3692027,15.927734 C19.7706355,15.927734 24.166193,11.5366029 24.166193,6.13905597 L24.166193,0.0170091971 L26.6196959,0.0170091971 L26.6196959,6.13905597 C26.620961,12.8887191 21.1237251,18.3794719 14.3692027,18.3794719" id="Shape"></path>
                </g>
                <path d="M51.9231053,38.5174419 L49.4696023,38.5174419 L49.4696023,44.6383394 C49.4696023,45.6337222 49.3174444,46.5948567 49.040271,47.4995622 C50.0008324,47.4112982 50.9061891,47.1404153 51.7305789,46.7272527 C51.8483489,46.0468848 51.9219552,45.3518062 51.9219552,44.6383394 L51.9219552,38.5174419 L51.9231053,38.5174419 Z" id="Shape" fill="#334A5E"></path>
                <path d="M5.16589279,34.0097748 L5.16589279,28.8549537 C5.16589279,15.4792888 16.0559357,4.59708031 29.4424951,4.59708031 C42.8277895,4.59708031 53.7190975,15.4792888 53.7190975,28.8549537 L53.7190975,34.0097748 L57.3994094,34.0097748 L57.3994094,28.8549537 C57.4005595,13.4516316 44.8580565,0.919416062 29.4424951,0.919416062 C14.0269337,0.919416062 1.4855809,13.4516316 1.4855809,28.8549537 L1.4855809,34.0097748 L5.16589279,34.0097748 Z" id="Shape" fill="#F2F2F2"></path>
                <path d="M49.560345,9.9370488 C49.6376316,9.86475971 49.6965166,9.7813227 49.7651774,9.70167828 C44.6642651,4.3004537 37.4434932,0.919416062 29.4424951,0.919416062 C21.4414971,0.919416062 14.2207251,4.3004537 9.11981287,9.70167828 C9.18732359,9.78017343 9.24862378,9.86475971 9.32349513,9.9370488 L11.7929844,12.2392666 C11.7953996,12.2405308 11.7966647,12.2416801 11.7990799,12.2442085 C16.2289103,7.54783123 22.490386,4.59708031 29.4424951,4.59708031 C36.3946043,4.59708031 42.65723,7.5489805 47.0883255,12.2442085 C47.0907407,12.241795 47.093271,12.2405308 47.0956862,12.2381173 L49.560345,9.9370488 Z" id="Shape" fill="#E8EAEA"></path>
                <path d="M6.96188499,41.7414892 C6.49080507,41.8591745 6.0050039,41.9424965 5.49217544,41.9424965 C2.45844834,41.9424965 0,39.7347487 0,37.0107488 C0,34.2867489 2.45844834,32.079001 5.49229045,32.079001 C6.00511891,32.079001 6.49092008,32.1623231 6.962,32.2800084 L6.962,41.7414892 L6.96188499,41.7414892 Z" id="Shape" fill="#40596B"></path>
                <path d="M6.96188499,41.7414892 L6.96188499,32.2801233 C6.49080507,32.162438 6.0050039,32.079116 5.49217544,32.079116 C4.82603899,32.079116 4.19302534,32.2017431 3.60176023,32.3978086 C3.57105263,32.6638646 3.55150097,32.9347475 3.55150097,33.2093082 L3.55150097,39.9284007 C3.55150097,40.5315377 3.63488304,41.1150221 3.78094542,41.6740271 C4.32321637,41.8345801 4.8911345,41.9424965 5.49355556,41.9424965 C6.0050039,41.9424965 6.49207018,41.8591745 6.96188499,41.7414892" id="Shape" fill="#334A5E"></path>
                <path d="M10.5501891,45.6973917 L10.5501891,45.6973917 C7.36303899,45.6973917 4.77819493,43.1144072 4.77819493,39.9284007 L4.77819493,33.2093082 C4.77819493,30.0231867 7.36303899,27.4403171 10.5501891,27.4403171 L10.5501891,45.6973917 Z" id="Shape" fill="#F2F2F2"></path>
                <path d="M10.5514542,45.6973917 L10.5514542,27.4403171 C9.9037193,27.4403171 9.29152242,27.5714489 8.71129825,27.7676293 L8.71129825,45.3701946 C9.29152242,45.56626 9.9037193,45.6973917 10.5514542,45.6973917" id="Shape" fill="#E8EAEA"></path>
                <path d="M13.0687875,48.1774016 L13.0687875,48.1774016 C11.6776296,48.1774016 10.5514542,47.0520364 10.5514542,45.6631435 L10.5514542,27.4758296 C10.5514542,26.0869367 11.6776296,24.9603072 13.0687875,24.9603072 C14.4586803,24.9603072 15.5848558,26.0869367 15.5848558,27.4758296 L15.5848558,45.6631435 C15.5848558,47.0520364 14.4586803,48.1774016 13.0687875,48.1774016" id="Shape" fill="#4CDBC4"></path>
                <path d="M51.9231053,31.3962197 C52.3941852,31.2785344 52.8799864,31.1952123 53.3928148,31.1952123 C56.4266569,31.1952123 58.8851053,33.4030751 58.8851053,36.1269601 C58.8851053,38.8508451 56.4266569,41.0587079 53.3928148,41.0587079 C52.8799864,41.0587079 52.3941852,40.9753858 51.9231053,40.8577005 L51.9231053,31.3962197 L51.9231053,31.3962197 Z" id="Shape" fill="#40596B"></path>
                <path d="M51.9231053,31.3962197 L51.9231053,40.8575856 C52.3941852,40.9752708 52.8799864,41.0585929 53.3928148,41.0585929 C54.0602164,41.0585929 54.6919649,40.9359658 55.28323,40.7399003 C55.3150877,40.4738443 55.3347544,40.2029614 55.3347544,39.9284007 L55.3347544,33.2093082 C55.3347544,32.6061712 55.2501072,32.0226868 55.1041598,31.4636818 C54.563154,31.3031288 53.9951209,31.1952123 53.3915497,31.1952123 C52.8799864,31.1952123 52.3929201,31.2785344 51.9231053,31.3962197" id="Shape" fill="#334A5E"></path>
                <path d="M48.3335361,27.4403171 L48.3335361,27.4403171 C51.5231014,27.4403171 54.1079454,30.0233016 54.1079454,33.2093082 L54.1079454,39.9284007 C54.1079454,43.1145222 51.5231014,45.6973917 48.3335361,45.6973917 L48.3335361,27.4403171 Z" id="Shape" fill="#F2F2F2"></path>
                <path d="M48.3335361,27.4403171 L48.3335361,45.6975067 C48.981271,45.6975067 49.5934678,45.566375 50.173692,45.3701946 L50.173692,27.7676293 C49.5934678,27.5714489 48.981271,27.4403171 48.3335361,27.4403171" id="Shape" fill="#E8EAEA"></path>
                <g id="Group" transform="translate(10.005848, 0.000000)" fill="#4CDBC4">
                    <path d="M35.8116199,24.9603072 L35.8116199,24.9603072 C37.2015127,24.9603072 38.3276881,26.0856725 38.3276881,27.4745654 L38.3276881,45.6618793 C38.3276881,47.0507722 37.2015127,48.1774016 35.8116199,48.1774016 C34.4217271,48.1774016 33.2955517,47.0507722 33.2955517,45.6618793 L33.2955517,27.4745654 C33.2954366,26.0856725 34.4216121,24.9603072 35.8116199,24.9603072" id="Shape"></path>
                    <path d="M19.4366472,5.51649637 C25.2184172,5.51649637 30.5009298,7.6434505 34.5823957,11.1347031 C35.0080468,11.4987919 35.6312846,11.5000561 36.0397992,11.1187283 L38.5092885,8.81651047 C38.9742729,8.38254609 38.9791033,7.63230258 38.5019279,7.21178466 C33.4120565,2.72882687 26.7408012,0 19.4366472,0 C12.1324932,0 5.46123782,2.72756267 0.371366472,7.21189959 C-0.105808967,7.63241751 -0.100978558,8.38266102 0.365270955,8.8166254 L2.83349513,11.1188432 C3.24327485,11.5000561 3.86639766,11.4989068 4.29089864,11.1348181 C8.37236452,7.6434505 13.6561423,5.51649637 19.4366472,5.51649637" id="Shape"></path>
                </g>
                <g id="Group" transform="translate(18.056530, 29.191460)" fill="#898AEA">
                    <path d="M6.32795127,5.96574604 C6.68988694,5.45455071 6.87137232,4.96047951 6.87137232,4.48238316 C6.87137232,4.005551 6.71311891,3.60583487 6.39902729,3.28472881 C6.08378558,2.96477202 5.68263158,2.80536826 5.19188499,2.80536826 C4.29020858,2.80536826 3.43764133,3.44654603 2.63038791,4.72878666 L0.0713060429,3.21358899 C0.7398577,2.17775187 1.47476998,1.39314519 2.27339766,0.859883872 C3.07076023,0.329036023 4.08779142,0.0618307302 5.32311111,0.0618307302 C6.55969591,0.0618307302 7.64538791,0.455340805 8.58018713,1.23994749 C9.51498635,2.02455417 9.98365107,3.0910768 9.98365107,4.44192885 C9.98365107,5.1774617 9.79595517,5.88357323 9.42056335,6.56026346 C9.04390643,7.23454021 8.3520078,8.09752711 7.34245224,9.14807489 L4.76140351,11.8279429 L10.4130975,11.8279429 L10.4130975,14.6915791 L0.318001949,14.6915791 L0.318001949,12.3194857 L4.51597271,8.02156036 C5.36255945,7.16351532 5.9672807,6.47694137 6.32795127,5.96574604" id="Shape"></path>
                    <polygon id="Shape" points="18.0117914 8.5132181 18.0117914 6.01723334 21.0835867 6.01723334 21.0835867 8.5132181 22.7005088 8.5132181 22.7005088 11.2762932 21.0835867 11.2762932 21.0835867 14.6928433 18.0117914 14.6928433 18.0117914 11.2762932 12.2557836 11.2762932 12.2557836 8.84167949 17.3554308 0.390407045 20.8370058 0.390407045 15.9850897 8.5132181"></polygon>
                </g>
            </g>
        </g>
    </g>
</svg>