<?xml version="1.0" encoding="UTF-8"?>
<svg width="57px" height="57px" viewBox="0 0 57 57" version="1.1" xmlns="http://www.w3.org/2000/svg" xmlns:xlink="http://www.w3.org/1999/xlink">
    <!-- Generator: Sketch 41.2 (35397) - http://www.bohemiancoding.com/sketch -->
    <title>cloud-computing</title>
    <desc>Created with Sketch.</desc>
    <defs></defs>
    <g id="Page-1" stroke="none" stroke-width="1" fill="none" fill-rule="evenodd">
        <g id="cloud-computing">
            <g id="Capa_1">
                <g id="Group" transform="translate(10.812371, 30.810758)" fill="#F2F2F2">
                    <polygon id="Shape" points="31.4381443 0.0583537091 26.6901031 0.0583537091 26.6901031 17.494442 35.3164948 17.494442 35.3164948 12.7794623 31.4381443 12.7794623"></polygon>
                    <polygon id="Shape" points="3.9371134 0.0583537091 3.9371134 9.24322753 0.0587628866 9.24322753 0.0587628866 13.9582072 8.68515464 13.9582072 8.68515464 0.0583537091"></polygon>
                </g>
                <g id="Group" transform="translate(0.000000, 36.996252)" fill="#16C6CC">
                    <rect id="Rectangle-path" x="0" y="0.0233414837" width="10.871134" height="10.7954362"></rect>
                    <rect id="Rectangle-path" x="46.128866" y="3.55957626" width="10.871134" height="10.7954362"></rect>
                    <rect id="Rectangle-path" x="23.0585567" y="8.81141008" width="10.871134" height="10.7954362"></rect>
                </g>
                <rect id="Rectangle-path" fill="#F2F2F2" x="26.1259794" y="31.2192344" width="4.74804124" height="14.5884273"></rect>
                <path d="M48.9847423,14.9268788 C48.9964948,14.7634884 49.0317526,14.600098 49.0317526,14.4250369 C49.0317526,11.3556318 46.7870103,8.81141008 43.8371134,8.29789744 C42.1682474,3.46621032 37.5612371,0 32.1315464,0 C27.6185567,0 23.6696907,2.40417282 21.5072165,5.9987613 C20.6492784,5.75367572 19.7443299,5.61362682 18.8041237,5.61362682 C13.6447423,5.61362682 9.42556701,9.59334978 9.06123711,14.6234395 C5.26515464,15.4287207 2.40927835,18.7898943 2.40927835,22.8163003 C2.40927835,27.4612555 6.19360825,31.2192344 10.871134,31.2192344 L46.128866,31.2192344 C50.7946392,31.2192344 54.5789691,27.4612555 54.5789691,22.827971 C54.5907216,19.1866996 52.2519588,16.093953 48.9847423,14.9268788 Z" id="Shape" fill="#898AEA"></path>
            </g>
        </g>
    </g>
</svg>