<?xml version="1.0" encoding="UTF-8"?>
<svg width="45px" height="64px" viewBox="0 0 45 64" version="1.1" xmlns="http://www.w3.org/2000/svg" xmlns:xlink="http://www.w3.org/1999/xlink">
    <!-- Generator: Sketch 41.2 (35397) - http://www.bohemiancoding.com/sketch -->
    <title>medal</title>
    <desc>Created with Sketch.</desc>
    <defs></defs>
    <g id="Page-1" stroke="none" stroke-width="1" fill="none" fill-rule="evenodd">
        <g id="medal">
            <g id="Layer_1">
                <g id="Group">
                    <path d="M24.3369802,3.64512111 C13.0348515,3.64512111 3.84683168,12.7787405 3.84683168,24.0139516 C3.84683168,30.1719031 6.60787129,35.6865329 10.9648515,39.4259931 L10.9648515,62.0675986 C10.9648515,62.7450242 11.3531436,63.3540208 11.9744554,63.6281799 C12.5870792,63.9109758 13.3032921,63.8084429 13.8207921,63.3706298 L24.7259406,54.0047059 L34.8117327,63.3272249 C35.1309653,63.6272941 35.5535644,63.7818685 35.985297,63.7818685 C36.2183168,63.7818685 36.4513366,63.7393495 36.6754455,63.6447889 C37.3054455,63.3706298 37.7104455,62.7529965 37.7104455,62.0669343 L37.7104455,39.4259931 C42.0587376,35.6865329 44.8284653,30.1719031 44.8284653,24.0139516 C44.8271287,12.7787405 35.6304208,3.64512111 24.3369802,3.64512111 Z" id="Shape" fill="#4CDBC4"></path>
                    <g id="XMLID_6_" fill="#898AEA">
                        <g id="Group">
                            <path d="M30.5919802,38.1823114 L30.5919802,54.4861453 L22.2747772,46.8019377 C21.627401,46.2015779 20.6351733,46.1843045 19.9710891,46.7594187 L10.7483168,54.675045 L10.7483168,38.18209 C13.6900248,39.8119862 17.0721535,40.7376609 20.6701485,40.7376609 C24.2679208,40.7385467 27.6502723,39.8119862 30.5919802,38.1823114 Z" id="Shape"></path>
                            <path d="M20.6701485,7.93289965 C27.5638366,7.93289965 33.1801485,13.5079862 33.1801485,20.3688304 C33.1801485,27.2217024 27.5638366,32.8047612 20.6701485,32.8047612 C13.7677723,32.8047612 8.16014851,27.2217024 8.16014851,20.3688304 C8.16014851,13.5079862 13.7684406,7.93289965 20.6701485,7.93289965 Z M22.6980446,26.3726505 L22.6980446,13.3795433 L17.1158168,13.8428235 L17.1158168,16.1069619 L19.7126733,16.1069619 L19.7126733,26.3733149 L22.6978218,26.3733149 L22.6978218,26.3726505 L22.6980446,26.3726505 L22.6980446,26.3726505 Z" id="Shape"></path>
                            <path d="M41.1609653,20.3688304 C41.1609653,26.526782 38.3912376,32.0414118 34.0429455,35.780872 L34.0429455,58.4224775 C34.0429455,59.1085398 33.6372772,59.726173 33.0079455,60.0003322 C32.7836139,60.0948927 32.5505941,60.1374118 32.317797,60.1374118 C31.8867327,60.1374118 31.4634653,59.9830588 31.1442327,59.6827682 L21.0584406,50.3609135 L10.1532921,59.726173 C9.63579208,60.1633218 8.91935644,60.266519 8.30695545,59.9837232 C7.68564356,59.709564 7.29735149,59.1005675 7.29735149,58.4231419 L7.29735149,35.7810934 C2.94037129,32.0416332 0.179331683,26.5270035 0.179331683,20.3690519 C0.18,9.13361938 9.36846535,0 20.6701485,0 C31.9635891,0 41.1609653,9.13361938 41.1609653,20.3688304 Z M37.7097772,20.3688304 C37.7097772,11.0288166 30.0655693,3.43008997 20.6701485,3.43008997 C11.2747277,3.43008997 3.63118812,11.0297024 3.63118812,20.3688304 C3.63118812,29.7086228 11.275396,37.3069066 20.6708168,37.3069066 C30.0662376,37.3069066 37.7097772,29.7088443 37.7097772,20.3688304 Z M30.5919802,54.4861453 L30.5919802,38.1823114 C27.6502723,39.8122076 24.2681436,40.7378824 20.6701485,40.7378824 C17.0721535,40.7378824 13.6900248,39.8115433 10.7483168,38.1823114 L10.7483168,54.6752664 L19.9710891,46.7589758 C20.6351733,46.184526 21.627401,46.2013564 22.2747772,46.8014948 L30.5919802,54.4861453 Z" id="Shape"></path>
                            <path d="M20.6701485,4.50280969 C29.4705446,4.50280969 36.6313366,11.6212042 36.6313366,20.3694948 C36.6313366,29.1177855 29.4705446,36.2361799 20.6701485,36.2361799 C11.8697525,36.2361799 4.70962871,29.1171211 4.70962871,20.3688304 C4.70962871,11.6212042 11.8704208,4.50280969 20.6701485,4.50280969 Z M33.1801485,20.3688304 C33.1801485,13.5079862 27.5638366,7.93289965 20.6701485,7.93289965 C13.7677723,7.93289965 8.16014851,13.5079862 8.16014851,20.3688304 C8.16014851,27.2217024 13.7677723,32.8047612 20.6701485,32.8047612 C27.5638366,32.8047612 33.1801485,27.2217024 33.1801485,20.3688304 Z" id="Shape"></path>
                        </g>
                    </g>
                </g>
            </g>
        </g>
    </g>
</svg>