<?xml version="1.0" encoding="UTF-8"?>
<svg width="69px" height="68px" viewBox="0 0 69 68" version="1.1" xmlns="http://www.w3.org/2000/svg" xmlns:xlink="http://www.w3.org/1999/xlink">
    <!-- Generator: Sketch 41.2 (35397) - http://www.bohemiancoding.com/sketch -->
    <title>idea</title>
    <desc>Created with Sketch.</desc>
    <defs></defs>
    <g id="Page-1" stroke="none" stroke-width="1" fill="none" fill-rule="evenodd">
        <g id="idea">
            <g id="Layer_1">
                <path d="M63.7060704,36.567959 C63.7060704,24.1691179 53.3054472,14.1485333 40.7753593,14.9036821 C29.8480477,15.6588308 20.9491281,24.9242667 20.6242387,36.0267487 C20.4113442,43.2518359 23.7287186,49.6091385 28.8730327,53.7008205 L28.8730327,67.9257231 L53.9555729,67.9257231 L53.9555729,61.1513538 L58.5619296,61.1513538 C60.9155578,61.1513538 62.7423241,59.2126564 62.7423241,56.9470359 L62.7423241,54.4673026 L62.7423241,47.5689641 L67.4606759,47.5689641 L63.7060704,36.567959 Z" id="Shape" fill="#FFFFFF"></path>
                <path d="M53.2047211,36.7934051 L56.2083015,36.0382564 L55.7823392,32.1608615 L52.6778593,32.0482256 C52.251897,30.6505641 51.5010452,29.4556821 50.6380251,28.3849436 L52.2406281,25.6909231 L49.1361482,23.2111897 L46.8834196,25.364 C45.5946106,24.7214872 44.3056281,24.2819282 42.8150201,24.1804513 L42.0641683,21.1596821 L38.2088367,21.5880821 L38.0968417,24.7103282 C36.7071332,25.1387282 35.5190503,25.8938769 34.4544045,26.7618359 L31.7757136,25.1500615 L29.3100905,28.2723077 L31.4506508,30.5379282 C30.811794,31.8341128 30.3747362,33.1191385 30.2738367,34.6296103 L27.2702563,35.384759 L27.6962186,39.2621538 L30.8006985,39.3747897 C31.2266608,40.7724513 31.9775126,41.9673333 32.8405327,43.0380718 L31.3386558,45.7320923 L34.4431357,48.2118256 L36.6958643,46.0590154 C37.9846734,46.7015282 39.2736558,47.1410872 40.7642638,47.2425641 L41.5151156,50.2633333 L45.3704472,49.8349333 L45.4824422,46.7126872 C46.8721508,46.2842872 48.0602337,45.5291385 49.1248794,44.6611795 L51.8146658,46.2729538 L54.2802889,43.1507077 L52.1397286,40.8850872 C52.6665905,39.5887282 52.9916533,38.1910667 53.2047211,36.7934051 Z" id="Shape" fill="#898AEA"></path>
                <ellipse id="Oval" fill="#FFFFFF" cx="10.8737412" cy="11.0262872" rx="9.86266583" ry="9.91910769"></ellipse>
                <g id="Group" transform="translate(35.020101, 62.594872)" fill="#193651">
                    <rect id="Rectangle-path" x="0.073160804" y="0.0671282051" width="2.1405603" height="2.15281026"></rect>
                    <rect id="Rectangle-path" x="5.64326382" y="0.0671282051" width="2.1405603" height="2.15281026"></rect>
                    <rect id="Rectangle-path" x="11.2133668" y="0.0671282051" width="2.1405603" height="2.15281026"></rect>
                </g>
                <ellipse id="Oval" fill="#FFFFFF" cx="41.7392789" cy="35.7113333" rx="4.18039447" ry="4.20431795"></ellipse>
                <path d="M64.8828844,36.4664821 C64.8828844,30.3234667 62.2041935,24.2817538 57.6989095,20.0774359 C53.0925528,15.7603077 47.085392,13.6074974 40.7642638,13.9344205 C37.3347211,14.1485333 34.1182462,15.2306051 31.2266608,16.8425538 L19.3354296,4.02664615 C17.4077638,2.03145641 15.5808241,1.03952821 14.1014849,0.532317949 C12.6108769,0.0364410256 11.467696,0.0364410256 10.8737412,0.0364410256 C6.15538945,0.0364410256 1.97499497,3.05721026 0.47311809,7.68992821 C-0.322635678,10.2824718 -0.838228643,16.4593128 5.18037437,20.2690564 C5.67342965,20.5846462 20.6131432,29.466841 20.6131432,29.466841 C19.9742864,31.5183487 19.5372286,33.671159 19.4363291,35.9367795 C19.2234347,43.0492308 22.2270151,49.6206462 27.6851231,54.1518872 L27.6851231,67.8357538 L29.8256834,67.8357538 L29.8256834,53.1712923 L29.3997211,52.8443692 C24.255407,48.7526872 21.3638216,42.6096718 21.5768894,36.0269231 C21.6888844,34.0882256 22.0028518,32.363641 22.540809,30.5264205 L38.724603,40.0059692 C39.1169322,40.3102256 40.4506432,40.9865641 41.5040201,40.9865641 C41.5825553,40.9865641 41.6609171,40.9865641 41.7281834,40.9752308 C44.0818116,40.9752308 46.0207462,39.464759 46.7603291,37.3119487 C47.5111809,35.0463282 46.6483342,32.7807077 44.8326633,31.3830462 L32.7285377,18.4656615 C35.1941608,17.1694769 37.9848467,16.3128513 40.8764322,16.0985641 C46.5587035,15.771641 52.0168116,17.7103385 56.197206,21.5990667 C60.3776005,25.5892718 62.6303291,30.8643282 62.6303291,36.5791179 L62.6303291,36.7932308 L65.9477035,46.4982256 L61.6551407,46.4982256 L61.6551407,56.845559 C61.6551407,58.5701436 60.2654322,59.9678051 58.5506608,59.9678051 L52.8683894,59.9678051 L52.8683894,67.8354051 L55.0089497,67.8354051 L55.0089497,62.1206154 L58.5504874,62.1206154 C61.4420729,62.1206154 63.8067965,59.7535179 63.8067965,56.8342256 L63.8067965,48.6397026 L68.962206,48.6397026 L64.8828844,36.4664821 Z M21.5881583,27.4153333 L12.1512814,21.8133538 C21.8010528,20.0887692 21.9017789,11.2517333 21.8010528,9.7414359 L29.4109899,17.935959 C25.9814472,20.3028821 23.3029296,23.6394154 21.5881583,27.4153333 Z M42.7031985,32.6905641 C44.3058015,33.2316 45.2809899,34.9561846 44.7430327,36.6807692 C43.7791131,39.4874256 41.1005955,38.8335795 40.7755327,38.7322769 C39.1729296,38.191241 38.1977412,36.4666564 38.7356985,34.7420718 C40.125407,31.8339385 42.3781357,32.5890872 42.7031985,32.6905641 Z M40.9884271,30.4249436 C38.948593,30.7518667 37.3459899,32.0367179 36.6958643,34.0882256 C36.4829698,34.8433744 36.3708015,35.5986974 36.4829698,36.2410359 L23.4038291,28.4749128 C25.0064322,24.8116308 27.5842236,21.6893846 30.8008719,19.525241 L40.9884271,30.4249436 Z" id="Shape" fill="#193651"></path>
                <ellipse id="Oval" fill="#FFFFFF" cx="10.9073744" cy="11.1390974" rx="8.85401759" ry="8.90468718"></ellipse>
            </g>
        </g>
    </g>
</svg>