<?xml version="1.0" encoding="UTF-8"?>
<svg width="68px" height="68px" viewBox="0 0 68 68" version="1.1" xmlns="http://www.w3.org/2000/svg" xmlns:xlink="http://www.w3.org/1999/xlink">
    <!-- Generator: Sketch 41.2 (35397) - http://www.bohemiancoding.com/sketch -->
    <title>settings (1)</title>
    <desc>Created with Sketch.</desc>
    <defs></defs>
    <g id="Page-1" stroke="none" stroke-width="1" fill="none" fill-rule="evenodd">
        <g id="settings-(1)">
            <g id="Layer_1">
                <path d="M45.5559443,19.0698767 C45.1321272,17.3747435 44.4259006,15.6796103 43.5782664,14.1258847 L45.2733996,10.170664 L39.340501,4.37903777 L35.3852803,6.07417097 C33.8314195,5.22667197 32.2775586,4.52031014 30.4412883,4.09649304 L29.0286998,0 L20.6944414,0 L19.1405805,4.09649304 C17.4454473,4.52031014 15.7503141,5.22653678 14.1965885,6.07417097 L10.2412326,4.37903777 L4.44960636,10.170664 L6.14473956,14.1258847 C5.29724056,15.6797455 4.59087873,17.2336064 4.16706163,19.0698767 L0.0705685885,20.6237376 L0.0705685885,28.957996 L4.16706163,30.5118569 C4.59087873,32.2069901 5.29710537,33.9021233 6.14473956,35.4558489 L4.44960636,39.4110696 L10.382505,45.2026958 L14.3377256,43.5075626 C15.8915865,44.3550616 17.4454473,45.0614235 19.2817177,45.4852406 L20.8355785,49.5817336 L29.0285646,49.5817336 L30.5824254,45.4852406 C32.2775586,45.0614235 33.9726918,44.3551968 35.5264175,43.5075626 L39.4816382,45.2026958 L45.4145368,39.4110696 L43.7194036,35.4558489 C44.5669026,33.9019881 45.2732644,32.3481272 45.6970815,30.5118569 L49.7935746,28.957996 L49.7935746,20.6237376 L45.5559443,19.0698767 Z M24.7909344,34.8908946 C19.1405805,34.8908946 14.6202704,30.3705845 14.6202704,24.7202306 C14.6202704,19.0698767 19.1405805,14.5495666 24.7909344,14.5495666 C30.4412883,14.5495666 34.9615984,19.0698767 34.9615984,24.7202306 C34.9615984,30.3705845 30.4412883,34.8908946 24.7909344,34.8908946 Z" id="Shape" fill="#6D6ED6"></path>
                <g id="Group" transform="translate(9.598410, 9.463221)" fill="#898AEA">
                    <path d="M22.3966044,22.4612247 C18.4413837,26.4164453 12.084668,26.4164453 8.12944732,22.4612247 L4.45677137,26.1339006 C10.38967,32.0667992 20.1365169,32.0667992 26.0692803,26.1339006 C32.0020437,20.201002 32.0021789,10.5954274 26.0692803,4.52139165 L22.3966044,8.19406759 C26.3519602,12.1492883 26.3519602,18.506004 22.3966044,22.4612247 Z" id="Shape"></path>
                    <path d="M4.45677137,4.52139165 C-1.47612724,10.4542903 -1.47612724,20.0598648 4.45677137,26.1339006 L8.12944732,22.4612247 C4.17422664,18.506004 4.17422664,12.1492883 8.12944732,8.19406759 C12.084668,4.23884692 18.4413837,4.23884692 22.3966044,8.19406759 L26.0692803,4.52139165 C20.1365169,-1.41150696 10.38967,-1.41150696 4.45677137,4.52139165 Z" id="Shape"></path>
                </g>
                <path d="M47.9573042,57.915992 C48.0985765,57.068493 48.0985765,56.3621312 47.9573042,55.5146322 L49.3698926,54.1020437 L47.9573042,50.5706402 L45.9796262,50.5706402 C45.5558091,50.0055507 44.8495825,49.4405964 44.284493,48.875507 L44.284493,46.897829 L40.7530895,45.4852406 L39.340501,46.897829 C38.493002,46.7565567 37.7866402,46.7565567 36.9391412,46.897829 L35.5265527,45.4852406 L31.9951491,46.897829 L31.9951491,48.875507 C31.4300596,49.2993241 30.8651054,50.0055507 30.3000159,50.5706402 L28.322338,50.5706402 L26.9097495,54.1020437 L28.322338,55.5146322 C28.1810656,56.3621312 28.1810656,57.068493 28.322338,57.915992 L26.9097495,59.3285805 L28.322338,62.8599841 L30.3000159,62.8599841 C30.723833,63.4250736 31.4300596,63.9900278 31.9951491,64.5551173 L31.9951491,66.5327952 L35.5265527,67.9453837 L36.9391412,66.5327952 C37.7866402,66.6740676 38.493002,66.6740676 39.340501,66.5327952 L40.7530895,67.9453837 L44.284493,66.5327952 L44.284493,64.5551173 C44.8495825,64.1313002 45.4145368,63.4250736 45.9796262,62.8599841 L47.9573042,62.8599841 L49.3698926,59.3285805 L47.9573042,57.915992 Z M36.6565964,60.8824414 C34.2552366,59.89367 33.1251928,57.2097654 34.1139642,54.9495427 C35.1027356,52.5481829 37.7866402,51.4181392 40.0468628,52.4069105 C42.4482227,53.3956819 43.5782664,56.0795865 42.589495,58.3398091 C41.6005885,60.741169 38.9166839,61.8712127 36.6565964,60.8824414 Z" id="Shape" fill="#4CDBC4"></path>
                <path d="M66.4620915,39.4112048 C66.6033638,38.5637058 66.6033638,37.8573439 66.4620915,37.0098449 L67.8746799,35.5972565 L66.4620915,32.0658529 L64.4844135,32.0658529 C64.0605964,31.5007634 63.3543698,30.9358091 62.7892803,30.3707197 L62.7892803,28.3930417 L59.2578767,26.9804533 L57.8452883,28.3930417 C56.9977893,28.2517694 56.2914274,28.2517694 55.4439284,28.3930417 L54.03134,26.9804533 L50.4999364,28.3930417 L50.4999364,30.3707197 C49.9348469,30.7945368 49.3698926,31.5007634 48.8048032,32.0658529 L46.8271252,32.0658529 L45.4145368,35.5972565 L46.8271252,37.0098449 C46.6858529,37.8573439 46.6858529,38.5637058 46.8271252,39.4112048 L45.4145368,40.8237932 L46.8271252,44.3551968 L48.8048032,44.3551968 C49.2286203,44.9202863 49.9348469,45.4852406 50.4999364,46.05033 L50.4999364,48.028008 L54.03134,49.4405964 L55.4439284,48.028008 C56.2914274,48.1692803 56.9977893,48.1692803 57.8452883,48.028008 L59.2578767,49.4405964 L62.7892803,48.028008 L62.7892803,46.05033 C63.3543698,45.6265129 63.9193241,44.9202863 64.4844135,44.3551968 L66.4620915,44.3551968 L67.8746799,40.8237932 L66.4620915,39.4112048 Z M55.0202465,42.5187913 C52.6188867,41.5300199 51.4888429,38.8461153 52.4776143,36.5858926 C53.4663857,34.1845328 56.1502903,33.0544891 58.4105129,34.0432604 C60.8118728,35.0320318 61.9419165,37.7159364 60.9531451,39.976159 C60.1055109,42.3775189 57.4216064,43.5076978 55.0202465,42.5187913 Z" id="Shape" fill="#FF7058"></path>
            </g>
        </g>
    </g>
</svg>