<?xml version="1.0" encoding="UTF-8"?>
<svg width="58px" height="59px" viewBox="0 0 58 59" version="1.1" xmlns="http://www.w3.org/2000/svg" xmlns:xlink="http://www.w3.org/1999/xlink">
    <!-- Generator: Sketch 41.2 (35397) - http://www.bohemiancoding.com/sketch -->
    <title>settings (2)</title>
    <desc>Created with Sketch.</desc>
    <defs></defs>
    <g id="Page-1" stroke="none" stroke-width="1" fill="none" fill-rule="evenodd">
        <g id="settings-(2)">
            <g id="Capa_1">
                <path d="M35.1368594,23.6921875 C33.0542574,21.6026426 30.2364911,20.8651426 27.5413861,21.3567324 L31.5841584,25.4129824 L29.9915129,30.3296875 L25.0911446,31.9276426 L21.0483723,27.8713926 C20.4358693,30.6984375 21.1709188,33.5255977 23.2535208,35.6151426 C25.5812158,37.9505977 28.8889386,38.5651426 31.7065901,37.7046875 L36.9744832,42.9901426 L42.2423762,37.7046875 L36.9744832,32.4192324 C38.0770574,29.3463926 37.3420079,26.0276426 35.1368594,23.6921875 Z" id="Shape" fill="#ACB3BA"></path>
                <path d="M53.0231406,29.4692324 C53.0231406,28.7317324 53.0231406,27.9942324 52.9005941,27.1337773 C54.4932396,26.0275273 56.2083168,24.9212773 57.9233941,23.8150273 C57.3108911,21.4795723 56.5758416,19.1442324 55.7182455,16.9317324 C53.7580752,17.0546875 51.6754733,17.0546875 49.715303,17.1775273 C48.9802535,15.8254824 48.0002257,14.5962773 47.0200832,13.4900273 C47.7551327,11.6462773 48.3676356,9.67957227 49.1026851,7.83582227 C47.2650614,6.23786719 45.3048911,4.88582227 43.2222891,3.53377734 C41.6298733,4.76298242 40.0372277,5.9921875 38.5671287,7.22139258 C37.2195762,6.60684766 35.7494772,6.11514258 34.2793782,5.86934766 C33.7893069,3.90264258 33.176804,2.05889258 32.6867327,0.0921875 C30.2366059,-0.0307675781 27.7863644,-0.0307675781 25.3362376,0.0921875 C24.8461663,2.05889258 24.2336634,4.02548242 23.7435921,5.86923242 C22.2734931,6.23798242 20.8033941,6.7296875 19.4558416,7.22127734 C17.863196,5.99207227 16.2706653,4.76298242 14.8005663,3.53377734 C12.7179644,4.76298242 10.7577941,6.23798242 8.9201703,7.83582227 C9.53267327,9.80264258 10.2677228,11.6463926 11.0027723,13.4901426 C10.0227446,14.5963926 9.16514851,15.8255977 8.30755248,17.1776426 C6.34749703,17.0546875 4.2647802,17.0546875 2.30472475,16.9317324 C1.32469703,19.1442324 0.589647525,21.4796875 0.0995762376,23.8150273 C1.81465347,24.9212773 3.40729901,26.0275273 5.12237624,27.1337773 C4.9998297,27.8712773 4.9998297,28.6087773 4.9998297,29.4692324 C4.9998297,30.2067324 4.9998297,30.9442324 5.12237624,31.6817324 C3.52973069,32.7879824 1.81465347,33.8942324 0.0995762376,35.0004824 C0.712079208,37.3359375 1.44712871,39.6713926 2.30472475,41.8838926 C4.26489505,41.7609375 6.34749703,41.7609375 8.30766733,41.6380977 C9.04271683,42.9901426 10.0227446,44.2193477 11.0028871,45.3255977 C10.2678376,47.1693477 9.65533465,49.1360527 8.92028515,50.9798027 C10.7579089,52.5777578 12.7180792,53.9298027 14.8006812,55.2818477 C16.3933267,54.0526426 17.9858574,52.8235527 19.4559564,51.5943477 C20.8035089,52.2088926 22.2736079,52.7005977 23.7437069,52.9463926 C24.2337782,54.9130977 24.8462812,56.7568477 25.3363525,58.7234375 C27.7864792,58.9692324 30.1141743,58.9692324 32.564301,58.7234375 C33.0543723,56.7567324 33.6668752,54.7901426 34.1569465,52.9463926 C35.6270455,52.5776426 37.0971446,52.0859375 38.444697,51.5943477 C40.0373426,52.8235527 41.6298733,54.0526426 43.0999723,55.2818477 C45.1825743,54.0526426 47.1427446,52.5776426 48.9803683,50.9798027 C48.2453188,49.1360527 47.6328158,47.1693477 46.8977663,45.3255977 C47.8777941,44.2193477 48.7353901,42.9901426 49.5929861,41.6380977 C51.5531564,41.7610527 53.6357584,41.7610527 55.5959287,41.8838926 C56.5759564,39.6713926 57.3110059,37.3359375 57.8010772,35.0005977 C56.086,33.8943477 54.4933545,32.7880977 52.7782772,31.6818477 C53.0231406,30.9442324 53.0231406,30.2067324 53.0231406,29.4692324 Z M36.8520515,37.3359375 C32.564301,41.7609375 25.4587842,41.7609375 21.0484871,37.3359375 C16.6381901,33.0338926 16.6381901,25.9046875 21.0484871,21.4796875 C25.3362376,17.0546875 32.4417545,17.0546875 36.8520515,21.4796875 C39.0572,23.6921875 40.1597743,26.5192324 40.1597743,29.3463926 C40.1597743,32.1735527 39.0572,35.2463926 36.8520515,37.3359375 Z" id="Shape" fill="#898AEA"></path>
                <path d="M41.3847802,17.0546875 C34.5243564,10.1713926 23.3760673,10.1713926 16.5156436,17.0546875 C9.6552198,23.9379824 9.6552198,35.1234375 16.5156436,42.0067324 C19.9459129,45.4484375 24.4786416,47.1692324 28.8889386,47.1692324 C33.4217822,47.1692324 37.8320792,45.4484375 41.2622337,42.0067324 C48.2453188,35.0004824 48.2453188,23.9379824 41.3847802,17.0546875 Z M36.8520515,37.3359375 C32.564301,41.7609375 25.4587842,41.7609375 21.0484871,37.3359375 C16.6381901,33.0338926 16.6381901,25.9046875 21.0484871,21.4796875 C25.3362376,17.0546875 32.4417545,17.0546875 36.8520515,21.4796875 C39.0572,23.6921875 40.1597743,26.5192324 40.1597743,29.3463926 C40.1597743,32.1735527 39.0572,35.2463926 36.8520515,37.3359375 Z" id="Shape" fill="#F2F2F2"></path>
            </g>
        </g>
    </g>
</svg>