<?xml version="1.0" encoding="UTF-8"?>
<svg width="62px" height="47px" viewBox="0 0 62 47" version="1.1" xmlns="http://www.w3.org/2000/svg" xmlns:xlink="http://www.w3.org/1999/xlink">
    <!-- Generator: Sketch 41.2 (35397) - http://www.bohemiancoding.com/sketch -->
    <title>coding</title>
    <desc>Created with Sketch.</desc>
    <defs></defs>
    <g id="Page-1" stroke="none" stroke-width="1" fill="none" fill-rule="evenodd">
        <g id="coding">
            <g id="Layer_1">
                <path d="M58.7930742,0.0955666667 L3.20692578,0.0955666667 C1.43580859,0.0955666667 0,1.52448718 0,3.28710769 L0,43.7128923 C0,45.4755128 1.43580859,46.9044333 3.20692578,46.9044333 L58.7930742,46.9044333 C60.5641914,46.9044333 62,45.4755128 62,43.7128923 L62,3.28710769 C62,1.52448718 60.5641914,0.0955666667 58.7930742,0.0955666667 Z M53.4482383,2.22322051 L54.5172539,2.22322051 C55.1075859,2.22322051 55.5862695,2.69960769 55.5862695,3.28710769 C55.5862695,3.87460769 55.1075859,4.35099487 54.5172539,4.35099487 L53.4482383,4.35099487 C52.8579063,4.35099487 52.3792227,3.87460769 52.3792227,3.28710769 C52.3793438,2.69960769 52.8579063,2.22322051 53.4482383,2.22322051 Z M23.5172539,2.22322051 L49.172418,2.22322051 C49.76275,2.22322051 50.2414336,2.69960769 50.2414336,3.28710769 C50.2414336,3.87460769 49.76275,4.35099487 49.172418,4.35099487 L23.5172539,4.35099487 C22.9269219,4.35099487 22.4482383,3.87460769 22.4482383,3.28710769 C22.4482383,2.69960769 22.9269219,2.22322051 23.5172539,2.22322051 Z M18.172418,2.22322051 L19.2414336,2.22322051 C19.8317656,2.22322051 20.3104492,2.69960769 20.3104492,3.28710769 C20.3104492,3.87460769 19.8317656,4.35099487 19.2414336,4.35099487 L18.172418,4.35099487 C17.5820859,4.35099487 17.1034023,3.87460769 17.1034023,3.28710769 C17.1034023,2.69960769 17.5820859,2.22322051 18.172418,2.22322051 Z M13.8965977,2.22322051 L14.9656133,2.22322051 C15.5559453,2.22322051 16.0346289,2.69960769 16.0346289,3.28710769 C16.0346289,3.87460769 15.5559453,4.35099487 14.9656133,4.35099487 L13.8965977,4.35099487 C13.3062656,4.35099487 12.827582,3.87460769 12.827582,3.28710769 C12.827582,2.69960769 13.3062656,2.22322051 13.8965977,2.22322051 Z M9.62065625,2.22322051 C10.2109883,2.22322051 10.6896719,2.69960769 10.6896719,3.28710769 C10.6896719,3.87460769 10.2109883,4.35099487 9.62065625,4.35099487 C9.03032422,4.35099487 8.55164063,3.87460769 8.55164063,3.28710769 C8.55176172,2.69960769 9.03032422,2.22322051 9.62065625,2.22322051 Z M6.41385156,2.22322051 C7.00418359,2.22322051 7.48286719,2.69960769 7.48286719,3.28710769 C7.48286719,3.87460769 7.00418359,4.35099487 6.41385156,4.35099487 C5.82351953,4.35099487 5.34483594,3.87460769 5.34483594,3.28710769 C5.34483594,2.69960769 5.82339844,2.22322051 6.41385156,2.22322051 Z M3.20692578,2.22322051 C3.79725781,2.22322051 4.27594141,2.69960769 4.27594141,3.28710769 C4.27594141,3.87460769 3.79725781,4.35099487 3.20692578,4.35099487 C2.61659375,4.35099487 2.13791016,3.87460769 2.13791016,3.28710769 C2.13791016,2.69960769 2.61659375,2.22322051 3.20692578,2.22322051 Z M59.8620898,12.8616103 L59.8620898,43.7128923 C59.8620898,44.3003923 59.3834063,44.7767795 58.7930742,44.7767795 L31,44.7767795 L3.20692578,44.7767795 C2.61659375,44.7767795 2.13791016,44.3003923 2.13791016,43.7128923 L2.13791016,12.8616103 L2.13791016,7.54241538 C2.13791016,6.95491538 2.61659375,6.47852821 3.20692578,6.47852821 L31,6.47852821 L58.7930742,6.47852821 C59.3834062,6.47852821 59.8620898,6.95491538 59.8620898,7.54241538 L59.8620898,12.8616103 L59.8620898,12.8616103 Z M58.7930742,4.35087436 L57.7240586,4.35087436 C57.1337266,4.35087436 56.655043,3.87448718 56.655043,3.28698718 C56.655043,2.69948718 57.1337266,2.2231 57.7240586,2.2231 L58.7930742,2.2231 C59.3834063,2.2231 59.8620898,2.69948718 59.8620898,3.28698718 C59.8620898,3.87460769 59.3834063,4.35087436 58.7930742,4.35087436 Z" id="Shape" fill="#D2DCF0"></path>
                <path d="M31,44.7767795 L58.7930742,44.7767795 C59.3834063,44.7767795 59.8620898,44.3003923 59.8620898,43.7128923 L59.8620898,12.8616103 L31,12.8616103 L31,44.7767795 Z M47.0345078,18.1808051 L47.0345078,17.1169179 C47.0345078,16.5294179 47.5131914,16.0530308 48.1035234,16.0530308 L55.5862695,16.0530308 C56.1766016,16.0530308 56.6552852,16.5294179 56.6552852,17.1169179 L56.6552852,18.1808051 L56.6552852,26.691541 C56.6552852,27.279041 56.1766016,27.7554282 55.5862695,27.7554282 L48.1035234,27.7554282 C47.5131914,27.7554282 47.0345078,27.279041 47.0345078,26.691541 L47.0345078,18.1808051 Z M34.2069258,18.1808051 L34.2069258,17.1169179 C34.2069258,16.5294179 34.6856094,16.0530308 35.2759414,16.0530308 L42.7586875,16.0530308 C43.3490195,16.0530308 43.8277031,16.5294179 43.8277031,17.1169179 L43.8277031,18.1808051 L43.8277031,26.691541 C43.8277031,27.279041 43.3490195,27.7554282 42.7586875,27.7554282 L35.2758203,27.7554282 C34.6854883,27.7554282 34.2068047,27.279041 34.2068047,26.691541 L34.2068047,18.1808051 L34.2069258,18.1808051 Z M35.2758203,30.9468487 L36.3448359,30.9468487 L55.5862695,30.9468487 C56.1766016,30.9468487 56.6552852,31.4232359 56.6552852,32.0107359 L56.6552852,40.5214718 C56.6552852,41.1089718 56.1766016,41.585359 55.5862695,41.585359 L36.3448359,41.585359 L35.2758203,41.585359 C34.6854883,41.585359 34.2068047,41.1089718 34.2068047,40.5214718 L34.2068047,32.0107359 C34.2069258,31.4232359 34.6854883,30.9468487 35.2758203,30.9468487 Z" id="Shape" fill="#FFFFFF"></path>
                <ellipse id="Oval" fill="#FF6469" cx="3.20692578" cy="3.28710769" rx="1.06901562" ry="1.06388718"></ellipse>
                <ellipse id="Oval" fill="#FFE169" cx="6.41385156" cy="3.28710769" rx="1.06901563" ry="1.06388718"></ellipse>
                <ellipse id="Oval" fill="#87E1AA" cx="9.62065625" cy="3.28710769" rx="1.06901563" ry="1.06388718"></ellipse>
                <g id="Group" transform="translate(12.714844, 2.169231)" fill="#E4EAF6">
                    <path d="M1.18175391,2.18164359 L2.25076953,2.18164359 C2.84110156,2.18164359 3.31978516,1.70525641 3.31978516,1.11775641 C3.31978516,0.53025641 2.84110156,0.0538692308 2.25076953,0.0538692308 L1.18175391,0.0538692308 C0.591421875,0.0538692308 0.112738281,0.53025641 0.112738281,1.11775641 C0.112738281,1.70537692 0.591421875,2.18164359 1.18175391,2.18164359 Z" id="Shape"></path>
                    <path d="M5.45757422,2.18164359 L6.52658984,2.18164359 C7.11692187,2.18164359 7.59560547,1.70525641 7.59560547,1.11775641 C7.59560547,0.53025641 7.11692187,0.0538692308 6.52658984,0.0538692308 L5.45757422,0.0538692308 C4.86724219,0.0538692308 4.38855859,0.53025641 4.38855859,1.11775641 C4.38855859,1.70537692 4.86724219,2.18164359 5.45757422,2.18164359 Z" id="Shape"></path>
                    <path d="M40.7333945,2.18164359 L41.8024102,2.18164359 C42.3927422,2.18164359 42.8714258,1.70525641 42.8714258,1.11775641 C42.8714258,0.53025641 42.3927422,0.0538692308 41.8024102,0.0538692308 L40.7333945,0.0538692308 C40.1430625,0.0538692308 39.6643789,0.53025641 39.6643789,1.11775641 C39.6645,1.70537692 40.1430625,2.18164359 40.7333945,2.18164359 Z" id="Shape"></path>
                    <path d="M46.0782305,0.0539897436 L45.0092148,0.0539897436 C44.4188828,0.0539897436 43.9401992,0.530376923 43.9401992,1.11787692 C43.9401992,1.70537692 44.4188828,2.1817641 45.0092148,2.1817641 L46.0782305,2.1817641 C46.6685625,2.1817641 47.1472461,1.70537692 47.1472461,1.11787692 C47.1472461,0.530376923 46.6685625,0.0539897436 46.0782305,0.0539897436 Z" id="Shape"></path>
                    <path d="M10.8024102,2.18164359 L36.4575742,2.18164359 C37.0479062,2.18164359 37.5265898,1.70525641 37.5265898,1.11775641 C37.5265898,0.53025641 37.0479062,0.0538692308 36.4575742,0.0538692308 L10.8024102,0.0538692308 C10.2120781,0.0538692308 9.73339453,0.53025641 9.73339453,1.11775641 C9.73339453,1.70537692 10.2120781,2.18164359 10.8024102,2.18164359 Z" id="Shape"></path>
                </g>
                <path d="M58.7930742,6.47864872 L31,6.47864872 L31,12.8617308 L59.8620898,12.8617308 L59.8620898,7.5425359 C59.8620898,6.95491538 59.3834062,6.47864872 58.7930742,6.47864872 Z M38.4827461,10.7339564 L34.2069258,10.7339564 C33.6165937,10.7339564 33.1379102,10.2575692 33.1379102,9.67006923 C33.1379102,9.08256923 33.6165937,8.60618205 34.2069258,8.60618205 L38.4827461,8.60618205 C39.0730781,8.60618205 39.5517617,9.08256923 39.5517617,9.67006923 C39.5517617,10.2575692 39.0730781,10.7339564 38.4827461,10.7339564 Z M47.0345078,10.7339564 L42.7586875,10.7339564 C42.1683555,10.7339564 41.6896719,10.2575692 41.6896719,9.67006923 C41.6896719,9.08256923 42.1683555,8.60618205 42.7586875,8.60618205 L47.0345078,8.60618205 C47.6248398,8.60618205 48.1035234,9.08256923 48.1035234,9.67006923 C48.1035234,10.2575692 47.6248398,10.7339564 47.0345078,10.7339564 Z M55.5861484,10.7339564 L51.3103281,10.7339564 C50.7199961,10.7339564 50.2413125,10.2575692 50.2413125,9.67006923 C50.2413125,9.08256923 50.7199961,8.60618205 51.3103281,8.60618205 L55.5861484,8.60618205 C56.1764805,8.60618205 56.6551641,9.08256923 56.6551641,9.67006923 C56.6551641,10.2575692 56.1766016,10.7339564 55.5861484,10.7339564 Z" id="Shape" fill="#FF6469"></path>
                <g id="Group" transform="translate(33.058594, 8.556410)" fill="#D2555F">
                    <path d="M5.42415234,0.0498923077 L1.14833203,0.0498923077 C0.558,0.0498923077 0.0793164063,0.526279487 0.0793164063,1.11377949 C0.0793164063,1.70127949 0.558,2.17766667 1.14833203,2.17766667 L5.42415234,2.17766667 C6.01448437,2.17766667 6.49316797,1.70127949 6.49316797,1.11377949 C6.49316797,0.526279487 6.01448437,0.0498923077 5.42415234,0.0498923077 Z" id="Shape"></path>
                    <path d="M13.9759141,0.0498923077 L9.70009375,0.0498923077 C9.10976172,0.0498923077 8.63107812,0.526279487 8.63107812,1.11377949 C8.63107812,1.70127949 9.10976172,2.17766667 9.70009375,2.17766667 L13.9759141,2.17766667 C14.5662461,2.17766667 15.0449297,1.70127949 15.0449297,1.11377949 C15.0449297,0.526279487 14.5662461,0.0498923077 13.9759141,0.0498923077 Z" id="Shape"></path>
                    <path d="M22.5275547,0.0498923077 L18.2517344,0.0498923077 C17.6614023,0.0498923077 17.1827187,0.526279487 17.1827187,1.11377949 C17.1827187,1.70127949 17.6614023,2.17766667 18.2517344,2.17766667 L22.5275547,2.17766667 C23.1178867,2.17766667 23.5965703,1.70127949 23.5965703,1.11377949 C23.5965703,0.526279487 23.1180078,0.0498923077 22.5275547,0.0498923077 Z" id="Shape"></path>
                </g>
                <g id="Group" transform="translate(34.148438, 18.076923)" fill="#DEE3ED">
                    <path d="M1.12738281,9.67838462 L8.61012891,9.67838462 C9.20046094,9.67838462 9.67914453,9.20199744 9.67914453,8.61449744 L9.67914453,0.103761538 C9.67914453,0.691261538 9.20046094,1.16764872 8.61012891,1.16764872 L1.12738281,1.16764872 C0.537050781,1.16764872 0.0583671875,0.691261538 0.0583671875,0.103761538 L0.0583671875,8.61449744 C0.0584882813,9.20211795 0.537050781,9.67838462 1.12738281,9.67838462 Z" id="Shape"></path>
                    <path d="M13.9549648,9.67838462 L21.4377109,9.67838462 C22.028043,9.67838462 22.5067266,9.20199744 22.5067266,8.61449744 L22.5067266,0.103761538 C22.5067266,0.691261538 22.028043,1.16764872 21.4377109,1.16764872 L13.9549648,1.16764872 C13.3646328,1.16764872 12.8859492,0.691261538 12.8859492,0.103761538 L12.8859492,8.61449744 C12.8860703,9.20211795 13.3646328,9.67838462 13.9549648,9.67838462 Z" id="Shape"></path>
                </g>
                <path d="M35.2758203,19.2446923 L42.7585664,19.2446923 C43.3488984,19.2446923 43.827582,18.7683051 43.827582,18.1808051 L43.827582,17.1169179 C43.827582,16.5294179 43.3488984,16.0530308 42.7585664,16.0530308 L35.2758203,16.0530308 C34.6854883,16.0530308 34.2068047,16.5294179 34.2068047,17.1169179 L34.2068047,18.1808051 C34.2069258,18.7683051 34.6854883,19.2446923 35.2758203,19.2446923 Z" id="Shape" fill="#FF969B"></path>
                <path d="M48.1034023,19.2446923 L55.5861484,19.2446923 C56.1764805,19.2446923 56.6551641,18.7683051 56.6551641,18.1808051 L56.6551641,17.1169179 C56.6551641,16.5294179 56.1764805,16.0530308 55.5861484,16.0530308 L48.1034023,16.0530308 C47.5130703,16.0530308 47.0343867,16.5294179 47.0343867,17.1169179 L47.0343867,18.1808051 C47.0345078,18.7683051 47.5130703,19.2446923 48.1034023,19.2446923 Z" id="Shape" fill="#A0DCF0"></path>
                <path d="M37.4138516,32.0107359 L37.4138516,40.5214718 C37.4138516,41.1089718 36.935168,41.585359 36.3448359,41.585359 L55.5862695,41.585359 C56.1766016,41.585359 56.6552852,41.1089718 56.6552852,40.5214718 L56.6552852,32.0107359 C56.6552852,31.4232359 56.1766016,30.9468487 55.5862695,30.9468487 L36.3448359,30.9468487 C36.935168,30.9468487 37.4138516,31.4232359 37.4138516,32.0107359 Z" id="Shape" fill="#DEE3ED"></path>
                <path d="M35.2758203,41.5852385 L36.3448359,41.5852385 C36.935168,41.5852385 37.4138516,41.1088513 37.4138516,40.5213513 L37.4138516,32.0106154 C37.4138516,31.4231154 36.935168,30.9467282 36.3448359,30.9467282 L35.2758203,30.9467282 C34.6854883,30.9467282 34.2068047,31.4231154 34.2068047,32.0106154 L34.2068047,40.5213513 C34.2069258,41.1088513 34.6854883,41.5852385 35.2758203,41.5852385 Z" id="Shape" fill="#91E6BE"></path>
                <path d="M31,6.47864872 L3.20692578,6.47864872 C2.61659375,6.47864872 2.13791016,6.9550359 2.13791016,7.5425359 L2.13791016,12.8617308 L2.13791016,43.7130128 C2.13791016,44.3005128 2.61659375,44.7769 3.20692578,44.7769 L31,44.7769 L31,12.8616103 L31,6.47864872 Z M10.6896719,9.67006923 L27.7930742,9.67006923 C28.3834063,9.67006923 28.8620898,10.1464564 28.8620898,10.7339564 C28.8620898,11.3214564 28.3834063,11.7978436 27.7930742,11.7978436 L10.6896719,11.7978436 C10.0993398,11.7978436 9.62065625,11.3214564 9.62065625,10.7339564 C9.62065625,10.1464564 10.0993398,9.67006923 10.6896719,9.67006923 Z M5.34483594,9.67006923 L6.41385156,9.67006923 C7.00418359,9.67006923 7.48286719,10.1464564 7.48286719,10.7339564 C7.48286719,11.3214564 7.00418359,11.7978436 6.41385156,11.7978436 L5.34483594,11.7978436 C4.75450391,11.7978436 4.27582031,11.3214564 4.27582031,10.7339564 C4.27582031,10.1464564 4.75450391,9.67006923 5.34483594,9.67006923 Z M16.0345078,16.0531513 L12.827582,16.0531513 C12.23725,16.0531513 11.7585664,15.5767641 11.7585664,14.9892641 C11.7585664,14.4017641 12.23725,13.9253769 12.827582,13.9253769 L16.0345078,13.9253769 C16.6248398,13.9253769 17.1035234,14.4017641 17.1035234,14.9892641 C17.1034023,15.5767641 16.6248398,16.0531513 16.0345078,16.0531513 Z M17.1034023,19.2446923 C17.1034023,19.8321923 16.6247187,20.3085795 16.0343867,20.3085795 L12.8274609,20.3085795 C12.2371289,20.3085795 11.7584453,19.8321923 11.7584453,19.2446923 C11.7584453,18.6571923 12.2371289,18.1808051 12.8274609,18.1808051 L16.0343867,18.1808051 C16.6248398,18.1808051 17.1034023,18.6571923 17.1034023,19.2446923 Z M5.34483594,26.691541 L6.41385156,26.691541 C7.00418359,26.691541 7.48286719,27.1679282 7.48286719,27.7554282 C7.48286719,28.3429282 7.00418359,28.8193154 6.41385156,28.8193154 L5.34483594,28.8193154 C4.75450391,28.8193154 4.27582031,28.3429282 4.27582031,27.7554282 C4.27582031,27.1679282 4.75450391,26.691541 5.34483594,26.691541 Z M4.27582031,23.5 C4.27582031,22.9125 4.75450391,22.4361128 5.34483594,22.4361128 L6.41385156,22.4361128 C7.00418359,22.4361128 7.48286719,22.9125 7.48286719,23.5 C7.48286719,24.0875 7.00418359,24.5638872 6.41385156,24.5638872 L5.34483594,24.5638872 C4.75450391,24.5638872 4.27582031,24.0875 4.27582031,23.5 Z M7.48274609,30.9468487 L8.55176172,30.9468487 C9.14209375,30.9468487 9.62077734,31.4232359 9.62077734,32.0107359 C9.62077734,32.5982359 9.14209375,33.0746231 8.55176172,33.0746231 L7.48274609,33.0746231 C6.89241406,33.0746231 6.41373047,32.5982359 6.41373047,32.0107359 C6.41373047,31.4232359 6.89241406,30.9468487 7.48274609,30.9468487 Z M8.55176172,20.308459 L7.48274609,20.308459 C6.89241406,20.308459 6.41373047,19.8320718 6.41373047,19.2445718 C6.41373047,18.6570718 6.89241406,18.1806846 7.48274609,18.1806846 L8.55176172,18.1806846 C9.14209375,18.1806846 9.62077734,18.6570718 9.62077734,19.2445718 C9.62077734,19.8320718 9.14209375,20.308459 8.55176172,20.308459 Z M8.55176172,16.0531513 L7.48274609,16.0531513 C6.89241406,16.0531513 6.41373047,15.5767641 6.41373047,14.9892641 C6.41373047,14.4017641 6.89241406,13.9253769 7.48274609,13.9253769 L8.55176172,13.9253769 C9.14209375,13.9253769 9.62077734,14.4017641 9.62077734,14.9892641 C9.62065625,15.5767641 9.14209375,16.0531513 8.55176172,16.0531513 Z M6.41385156,41.5852385 L5.34483594,41.5852385 C4.75450391,41.5852385 4.27582031,41.1088513 4.27582031,40.5213513 C4.27582031,39.9338513 4.75450391,39.4574641 5.34483594,39.4574641 L6.41385156,39.4574641 C7.00418359,39.4574641 7.48286719,39.9338513 7.48286719,40.5213513 C7.48274609,41.1088513 7.00418359,41.5852385 6.41385156,41.5852385 Z M8.55176172,37.3299308 L7.48274609,37.3299308 C6.89241406,37.3299308 6.41373047,36.8535436 6.41373047,36.2660436 C6.41373047,35.6785436 6.89241406,35.2021564 7.48274609,35.2021564 L8.55176172,35.2021564 C9.14209375,35.2021564 9.62077734,35.6785436 9.62077734,36.2660436 C9.62077734,36.8535436 9.14209375,37.3299308 8.55176172,37.3299308 Z M27.7930742,41.5852385 L10.6896719,41.5852385 C10.0993398,41.5852385 9.62065625,41.1088513 9.62065625,40.5213513 C9.62065625,39.9338513 10.0993398,39.4574641 10.6896719,39.4574641 L27.7930742,39.4574641 C28.3834063,39.4574641 28.8620898,39.9338513 28.8620898,40.5213513 C28.8620898,41.1088513 28.3834063,41.5852385 27.7930742,41.5852385 Z M12.827582,35.2021564 L16.0345078,35.2021564 C16.6248398,35.2021564 17.1035234,35.6785436 17.1035234,36.2660436 C17.1035234,36.8535436 16.6248398,37.3299308 16.0345078,37.3299308 L12.827582,37.3299308 C12.23725,37.3299308 11.7585664,36.8535436 11.7585664,36.2660436 C11.7585664,35.6785436 12.23725,35.2021564 12.827582,35.2021564 Z M11.7585664,32.0107359 C11.7585664,31.4232359 12.23725,30.9468487 12.827582,30.9468487 L16.0345078,30.9468487 C16.6248398,30.9468487 17.1035234,31.4232359 17.1035234,32.0107359 C17.1035234,32.5982359 16.6248398,33.0746231 16.0345078,33.0746231 L12.827582,33.0746231 C12.23725,33.0745026 11.7585664,32.5982359 11.7585664,32.0107359 Z M27.7930742,37.3299308 L20.3103281,37.3299308 C19.7199961,37.3299308 19.2413125,36.8535436 19.2413125,36.2660436 C19.2413125,35.6785436 19.7199961,35.2021564 20.3103281,35.2021564 L27.7930742,35.2021564 C28.3834063,35.2021564 28.8620898,35.6785436 28.8620898,36.2660436 C28.8620898,36.8535436 28.3834063,37.3299308 27.7930742,37.3299308 Z M27.7930742,33.0745026 L20.3103281,33.0745026 C19.7199961,33.0745026 19.2413125,32.5981154 19.2413125,32.0106154 C19.2413125,31.4231154 19.7199961,30.9467282 20.3103281,30.9467282 L27.7930742,30.9467282 C28.3834063,30.9467282 28.8620898,31.4231154 28.8620898,32.0106154 C28.8620898,32.5981154 28.3834063,33.0745026 27.7930742,33.0745026 Z M27.7930742,28.8191949 L10.6896719,28.8191949 C10.0993398,28.8191949 9.62065625,28.3428077 9.62065625,27.7553077 C9.62065625,27.1678077 10.0993398,26.6914205 10.6896719,26.6914205 L27.7930742,26.6914205 C28.3834063,26.6914205 28.8620898,27.1678077 28.8620898,27.7553077 C28.8620898,28.3428077 28.3834063,28.8191949 27.7930742,28.8191949 Z M27.7930742,24.5638872 L10.6896719,24.5638872 C10.0993398,24.5638872 9.62065625,24.0875 9.62065625,23.5 C9.62065625,22.9125 10.0993398,22.4361128 10.6896719,22.4361128 L27.7930742,22.4361128 C28.3834063,22.4361128 28.8620898,22.9125 28.8620898,23.5 C28.8620898,24.0875 28.3834063,24.5638872 27.7930742,24.5638872 Z M27.7930742,20.308459 L20.3103281,20.308459 C19.7199961,20.308459 19.2413125,19.8320718 19.2413125,19.2445718 C19.2413125,18.6570718 19.7199961,18.1806846 20.3103281,18.1806846 L27.7930742,18.1806846 C28.3834063,18.1806846 28.8620898,18.6570718 28.8620898,19.2445718 C28.8620898,19.8320718 28.3834063,20.308459 27.7930742,20.308459 Z M27.7930742,16.0531513 L20.3103281,16.0531513 C19.7199961,16.0531513 19.2413125,15.5767641 19.2413125,14.9892641 C19.2413125,14.4017641 19.7199961,13.9253769 20.3103281,13.9253769 L27.7930742,13.9253769 C28.3834063,13.9253769 28.8620898,14.4017641 28.8620898,14.9892641 C28.8620898,15.5767641 28.3834063,16.0531513 27.7930742,16.0531513 Z" id="Shape" fill="#464655"></path>
                <path d="M10.6896719,11.7978436 L27.7930742,11.7978436 C28.3834062,11.7978436 28.8620898,11.3214564 28.8620898,10.7339564 C28.8620898,10.1464564 28.3834062,9.67006923 27.7930742,9.67006923 L10.6896719,9.67006923 C10.0993398,9.67006923 9.62065625,10.1464564 9.62065625,10.7339564 C9.62065625,11.3214564 10.0993398,11.7978436 10.6896719,11.7978436 Z" id="Shape" fill="#FFE169"></path>
                <g id="Group" transform="translate(11.746094, 13.858974)" fill="#91E6BE">
                    <path d="M4.28841406,0.0665230769 L1.08148828,0.0665230769 C0.49115625,0.0665230769 0.0124726562,0.542910256 0.0124726562,1.13041026 C0.0124726562,1.71791026 0.49115625,2.19429744 1.08148828,2.19429744 L4.28841406,2.19429744 C4.87874609,2.19429744 5.35742969,1.71791026 5.35742969,1.13041026 C5.35730859,0.542789744 4.87874609,0.0665230769 4.28841406,0.0665230769 Z" id="Shape"></path>
                    <path d="M4.28841406,4.32183077 L1.08148828,4.32183077 C0.49115625,4.32183077 0.0124726562,4.79821795 0.0124726562,5.38571795 C0.0124726562,5.97321795 0.49115625,6.44960513 1.08148828,6.44960513 L4.28841406,6.44960513 C4.87874609,6.44960513 5.35742969,5.97321795 5.35742969,5.38571795 C5.35742969,4.79821795 4.87874609,4.32183077 4.28841406,4.32183077 Z" id="Shape"></path>
                </g>
                <path d="M27.7930742,22.4361128 L10.6896719,22.4361128 C10.0993398,22.4361128 9.62065625,22.9125 9.62065625,23.5 C9.62065625,24.0875 10.0993398,24.5638872 10.6896719,24.5638872 L27.7930742,24.5638872 C28.3834062,24.5638872 28.8620898,24.0875 28.8620898,23.5 C28.8620898,22.9125 28.3834062,22.4361128 27.7930742,22.4361128 Z" id="Shape" fill="#FFE169"></path>
                <g id="Group" transform="translate(9.566406, 13.858974)" fill="#FFFFFF">
                    <path d="M18.226668,12.8325667 L1.12326562,12.8325667 C0.532933594,12.8325667 0.05425,13.3089538 0.05425,13.8964538 C0.05425,14.4839538 0.532933594,14.960341 1.12326562,14.960341 L18.226668,14.960341 C18.817,14.960341 19.2956836,14.4839538 19.2956836,13.8964538 C19.2956836,13.3089538 18.817,12.8325667 18.226668,12.8325667 Z" id="Shape"></path>
                    <path d="M18.226668,0.0665230769 L10.7439219,0.0665230769 C10.1535898,0.0665230769 9.67490625,0.542910256 9.67490625,1.13041026 C9.67490625,1.71791026 10.1535898,2.19429744 10.7439219,2.19429744 L18.226668,2.19429744 C18.817,2.19429744 19.2956836,1.71791026 19.2956836,1.13041026 C19.2956836,0.542789744 18.817,0.0665230769 18.226668,0.0665230769 Z" id="Shape"></path>
                    <path d="M18.226668,4.32183077 L10.7439219,4.32183077 C10.1535898,4.32183077 9.67490625,4.79821795 9.67490625,5.38571795 C9.67490625,5.97321795 10.1535898,6.44960513 10.7439219,6.44960513 L18.226668,6.44960513 C18.817,6.44960513 19.2956836,5.97321795 19.2956836,5.38571795 C19.2956836,4.79821795 18.817,4.32183077 18.226668,4.32183077 Z" id="Shape"></path>
                    <path d="M18.226668,17.0878744 L10.7439219,17.0878744 C10.1535898,17.0878744 9.67490625,17.5642615 9.67490625,18.1517615 C9.67490625,18.7392615 10.1535898,19.2156487 10.7439219,19.2156487 L18.226668,19.2156487 C18.817,19.2156487 19.2956836,18.7392615 19.2956836,18.1517615 C19.2956836,17.5642615 18.817,17.0878744 18.226668,17.0878744 Z" id="Shape"></path>
                    <path d="M18.226668,21.3431821 L10.7439219,21.3431821 C10.1535898,21.3431821 9.67490625,21.8195692 9.67490625,22.4070692 C9.67490625,22.9945692 10.1535898,23.4709564 10.7439219,23.4709564 L18.226668,23.4709564 C18.817,23.4709564 19.2956836,22.9945692 19.2956836,22.4070692 C19.2956836,21.8195692 18.817,21.3431821 18.226668,21.3431821 Z" id="Shape"></path>
                </g>
                <g id="Group" transform="translate(11.746094, 30.851282)" fill="#91E6BE">
                    <path d="M1.08148828,2.22322051 L4.28841406,2.22322051 C4.87874609,2.22322051 5.35742969,1.74683333 5.35742969,1.15933333 C5.35742969,0.571833333 4.87874609,0.0954461538 4.28841406,0.0954461538 L1.08148828,0.0954461538 C0.49115625,0.0954461538 0.0124726562,0.571833333 0.0124726562,1.15933333 C0.0124726562,1.74683333 0.49115625,2.22322051 1.08148828,2.22322051 Z" id="Shape"></path>
                    <path d="M1.08148828,6.47864872 L4.28841406,6.47864872 C4.87874609,6.47864872 5.35742969,6.00226154 5.35742969,5.41476154 C5.35742969,4.82726154 4.87874609,4.35087436 4.28841406,4.35087436 L1.08148828,4.35087436 C0.49115625,4.35087436 0.0124726562,4.82726154 0.0124726562,5.41476154 C0.0124726562,6.00226154 0.49115625,6.47864872 1.08148828,6.47864872 Z" id="Shape"></path>
                </g>
                <path d="M27.7930742,39.4575846 L10.6896719,39.4575846 C10.0993398,39.4575846 9.62065625,39.9339718 9.62065625,40.5214718 C9.62065625,41.1089718 10.0993398,41.585359 10.6896719,41.585359 L27.7930742,41.585359 C28.3834062,41.585359 28.8620898,41.1089718 28.8620898,40.5214718 C28.8620898,39.9338513 28.3834062,39.4575846 27.7930742,39.4575846 Z" id="Shape" fill="#FFE169"></path>
                <g id="Group" transform="translate(4.238281, 9.641026)" fill="#FF6469">
                    <path d="M1.10655469,2.15681795 L2.17557031,2.15681795 C2.76590234,2.15681795 3.24458594,1.68043077 3.24458594,1.09293077 C3.24458594,0.505430769 2.76590234,0.0290435897 2.17557031,0.0290435897 L1.10655469,0.0290435897 C0.516222656,0.0290435897 0.0375390625,0.505430769 0.0375390625,1.09293077 C0.0375390625,1.68043077 0.516222656,2.15681795 1.10655469,2.15681795 Z" id="Shape"></path>
                    <path d="M4.31348047,4.28447179 L3.24446484,4.28447179 C2.65413281,4.28447179 2.17544922,4.76085897 2.17544922,5.34835897 C2.17544922,5.93585897 2.65413281,6.41224615 3.24446484,6.41224615 L4.31348047,6.41224615 C4.9038125,6.41224615 5.38249609,5.93585897 5.38249609,5.34835897 C5.382375,4.76073846 4.9038125,4.28447179 4.31348047,4.28447179 Z" id="Shape"></path>
                    <path d="M4.31348047,8.53977949 L3.24446484,8.53977949 C2.65413281,8.53977949 2.17544922,9.01616667 2.17544922,9.60366667 C2.17544922,10.1911667 2.65413281,10.6675538 3.24446484,10.6675538 L4.31348047,10.6675538 C4.9038125,10.6675538 5.38249609,10.1911667 5.38249609,9.60366667 C5.38249609,9.01616667 4.9038125,8.53977949 4.31348047,8.53977949 Z" id="Shape"></path>
                    <path d="M1.10655469,14.9228615 L2.17557031,14.9228615 C2.76590234,14.9228615 3.24458594,14.4464744 3.24458594,13.8589744 C3.24458594,13.2714744 2.76590234,12.7950872 2.17557031,12.7950872 L1.10655469,12.7950872 C0.516222656,12.7950872 0.0375390625,13.2714744 0.0375390625,13.8589744 C0.0375390625,14.4464744 0.516222656,14.9228615 1.10655469,14.9228615 Z" id="Shape"></path>
                    <path d="M1.10655469,19.1781692 L2.17557031,19.1781692 C2.76590234,19.1781692 3.24458594,18.7017821 3.24458594,18.1142821 C3.24458594,17.5267821 2.76590234,17.0503949 2.17557031,17.0503949 L1.10655469,17.0503949 C0.516222656,17.0503949 0.0375390625,17.5267821 0.0375390625,18.1142821 C0.0375390625,18.7017821 0.516222656,19.1781692 1.10655469,19.1781692 Z" id="Shape"></path>
                    <path d="M3.24446484,23.4334769 L4.31348047,23.4334769 C4.9038125,23.4334769 5.38249609,22.9570897 5.38249609,22.3695897 C5.38249609,21.7820897 4.9038125,21.3057026 4.31348047,21.3057026 L3.24446484,21.3057026 C2.65413281,21.3057026 2.17544922,21.7820897 2.17544922,22.3695897 C2.17544922,22.9570897 2.65413281,23.4334769 3.24446484,23.4334769 Z" id="Shape"></path>
                    <path d="M4.31348047,25.5611308 L3.24446484,25.5611308 C2.65413281,25.5611308 2.17544922,26.0375179 2.17544922,26.6250179 C2.17544922,27.2125179 2.65413281,27.6889051 3.24446484,27.6889051 L4.31348047,27.6889051 C4.9038125,27.6889051 5.38249609,27.2125179 5.38249609,26.6250179 C5.38249609,26.0375179 4.9038125,25.5611308 4.31348047,25.5611308 Z" id="Shape"></path>
                    <path d="M2.17557031,29.816559 L1.10655469,29.816559 C0.516222656,29.816559 0.0375390625,30.2929462 0.0375390625,30.8804462 C0.0375390625,31.4679462 0.516222656,31.9443333 1.10655469,31.9443333 L2.17557031,31.9443333 C2.76590234,31.9443333 3.24458594,31.4679462 3.24458594,30.8804462 C3.24446484,30.2928256 2.76590234,29.816559 2.17557031,29.816559 Z" id="Shape"></path>
                </g>
            </g>
        </g>
    </g>
</svg>