<?xml version="1.0" encoding="UTF-8"?>
<svg width="50px" height="50px" viewBox="0 0 50 50" version="1.1" xmlns="http://www.w3.org/2000/svg" xmlns:xlink="http://www.w3.org/1999/xlink">
    <!-- Generator: Sketch 41.2 (35397) - http://www.bohemiancoding.com/sketch -->
    <title>tetris</title>
    <desc>Created with Sketch.</desc>
    <defs></defs>
    <g id="Page-1" stroke="none" stroke-width="1" fill="none" fill-rule="evenodd">
        <g id="tetris">
            <g id="Capa_1">
                <path d="M48.5351562,41.1132812 L41.1132812,41.1132812 L41.1132812,33.7890625 C41.1132812,32.9793945 40.4581055,32.3242188 39.6484375,32.3242188 L22.0703125,32.3242188 C21.2606445,32.3242188 20.6054688,32.9793945 20.6054688,33.7890625 L20.6054688,48.5351562 C20.6054688,49.3448242 21.2606445,50 22.0703125,50 L48.5351562,50 C49.3448242,50 50,49.3448242 50,48.5351562 L50,42.578125 C50,41.768457 49.3448242,41.1132812 48.5351562,41.1132812 Z" id="Shape" fill="#10BB67"></path>
                <path d="M25,14.7460938 L1.46484375,14.7460938 C0.655859375,14.7460938 0,15.4019531 0,16.2109375 L0,26.4648438 L25,26.4648438 C25.8089844,26.4648438 26.4648438,25.8089844 26.4648438,25 L26.4648438,16.2109375 C26.4648438,15.4019531 25.8089844,14.7460938 25,14.7460938 Z" id="Shape" fill="#17ACE8"></path>
                <path d="M48.5351562,29.3945312 L39.6484375,29.3945312 C38.8387695,29.3945312 38.1835938,28.7393555 38.1835938,27.9296875 L38.1835938,20.6054688 L30.859375,20.6054688 C30.049707,20.6054688 29.3945312,19.950293 29.3945312,19.140625 L29.3945312,1.46484375 C29.3945312,0.655175781 30.049707,0 30.859375,0 L39.6484375,0 C40.4581055,0 41.1132812,0.655175781 41.1132812,1.46484375 L41.1132812,8.88671875 L48.5351562,8.88671875 C49.3448242,8.88671875 50,9.54189453 50,10.3515625 L50,27.9296875 C50,28.7393555 49.3448242,29.3945312 48.5351562,29.3945312 Z" id="Shape" fill="#898AEA"></path>
                <path d="M32.3242188,41.1132812 L8.7890625,41.1132812 L8.7890625,23.5351562 L30.859375,23.5351562 C31.6683594,23.5351562 32.3242188,24.1910156 32.3242188,25 L32.3242188,41.1132812 Z" id="Shape" fill="#FFCC33"></path>
                <path d="M8.7890625,41.1132812 L8.7890625,23.5351562 L0,23.5351562 L0,48.5351562 C0,49.3441406 0.655859375,50 1.46484375,50 L23.5351562,50 L23.5351562,41.1132812 L8.7890625,41.1132812 Z" id="Shape" fill="#16C6CC"></path>
            </g>
        </g>
    </g>
</svg>