<?xml version="1.0" encoding="UTF-8"?>
<svg width="63px" height="63px" viewBox="0 0 63 63" version="1.1" xmlns="http://www.w3.org/2000/svg" xmlns:xlink="http://www.w3.org/1999/xlink">
    <!-- Generator: Sketch 41.2 (35397) - http://www.bohemiancoding.com/sketch -->
    <title>bars-chart</title>
    <desc>Created with Sketch.</desc>
    <defs></defs>
    <g id="Page-1" stroke="none" stroke-width="1" fill="none" fill-rule="evenodd">
        <g id="bars-chart">
            <g id="Layer_1">
                <path d="M31.4385965,0 L31.4385965,0 C30.8399123,0 30.3544561,0.482747122 30.3544561,1.07809046 L30.3544561,4.3121176 L32.522614,4.3121176 L32.522614,1.07809046 C32.5227368,0.482747122 32.0372807,0 31.4385965,0 Z" id="Shape" fill="#AFB9D2"></path>
                <rect id="Rectangle-path" fill="#959CB3" x="20.5976842" y="46.3556916" width="21.6818246" height="2.1560588"></rect>
                <g id="Group" transform="translate(15.105263, 42.009868)" fill="#AFB9D2">
                    <path d="M0.0857192982,19.7633228 L4.26263158,0.0337055921 L7.51492982,0.0337055921 L3.35349123,19.690294 C3.2515614,20.1718199 2.82431579,20.5164474 2.32952632,20.5164474 L0.700245614,20.5164474 C0.301245614,20.5164474 0.00356140351,20.1514256 0.0857192982,19.7633228 Z" id="Shape"></path>
                    <path d="M32.5809474,19.7633228 L28.4040351,0.0337055921 L25.1517368,0.0337055921 L29.3131754,19.690294 C29.4151053,20.1718199 29.8423509,20.5164474 30.3371404,20.5164474 L31.9664211,20.5164474 C32.3652982,20.5164474 32.6631053,20.1514256 32.5809474,19.7633228 Z" id="Shape"></path>
                </g>
                <path d="M61.7930526,6.46829852 L1.08414035,6.46829852 C0.48545614,6.46829852 0,5.9855514 0,5.39020806 L0,4.3121176 C0,3.71677426 0.48545614,3.23402714 1.08414035,3.23402714 L61.7931754,3.23402714 C62.3918596,3.23402714 62.8773158,3.71677426 62.8773158,4.3121176 L62.8773158,5.39020806 C62.877193,5.9855514 62.3917368,6.46829852 61.7930526,6.46829852 Z" id="Shape" fill="#D7DEED"></path>
                <path d="M61.7930526,6.46829852 L1.08414035,6.46829852 L1.08414035,40.9656057 C1.08414035,42.1564145 2.05480702,43.1216645 3.25229825,43.1216645 L59.6248947,43.1216645 C60.822386,43.1216645 61.7930526,42.1564145 61.7930526,40.9656057 L61.7930526,6.46829852 Z" id="Shape" fill="#EFF2FA"></path>
                <path d="M33.6067544,37.7314564 L29.2704386,37.7314564 C28.6717544,37.7314564 28.1862982,37.2487093 28.1862982,36.653366 L28.1862982,19.4047734 C28.1862982,18.8094301 28.6717544,18.326683 29.2704386,18.326683 L33.6067544,18.326683 C34.2054386,18.326683 34.6908947,18.8094301 34.6908947,19.4047734 L34.6908947,36.653366 C34.6908947,37.2487093 34.2054386,37.7314564 33.6067544,37.7314564 Z" id="Shape" fill="#FFD782"></path>
                <path d="M33.6067544,37.7314564 L29.2704386,37.7314564 C28.6717544,37.7314564 28.1862982,37.2487093 28.1862982,36.653366 L28.1862982,24.7949815 C28.1862982,24.1996382 28.6717544,23.716891 29.2704386,23.716891 L33.6067544,23.716891 C34.2054386,23.716891 34.6908947,24.1996382 34.6908947,24.7949815 L34.6908947,36.653366 C34.6908947,37.2487093 34.2054386,37.7314564 33.6067544,37.7314564 Z" id="Shape" fill="#FFC36E"></path>
                <path d="M23.8499825,37.7314564 L19.5136667,37.7314564 C18.9149825,37.7314564 18.4295263,37.2487093 18.4295263,36.653366 L18.4295263,24.7949815 C18.4295263,24.1996382 18.9149825,23.716891 19.5136667,23.716891 L23.8499825,23.716891 C24.4486667,23.716891 24.9341228,24.1996382 24.9341228,24.7949815 L24.9341228,36.653366 C24.9341228,37.2487093 24.4486667,37.7314564 23.8499825,37.7314564 Z" id="Shape" fill="#B7B8F8"></path>
                <path d="M23.8499825,37.7314564 L19.5136667,37.7314564 C18.9149825,37.7314564 18.4295263,37.2487093 18.4295263,36.653366 L18.4295263,30.1850674 C18.4295263,29.5897241 18.9149825,29.106977 19.5136667,29.106977 L23.8499825,29.106977 C24.4486667,29.106977 24.9341228,29.5897241 24.9341228,30.1850674 L24.9341228,36.653366 C24.9341228,37.2487093 24.4486667,37.7314564 23.8499825,37.7314564 Z" id="Shape" fill="#898AEA"></path>
                <path d="M14.0932105,37.7314564 L9.75689474,37.7314564 C9.15821053,37.7314564 8.67275439,37.2487093 8.67275439,36.653366 L8.67275439,30.1850674 C8.67275439,29.5897241 9.15821053,29.106977 9.75689474,29.106977 L14.0932105,29.106977 C14.6918947,29.106977 15.1773509,29.5897241 15.1773509,30.1850674 L15.1773509,36.653366 C15.1772281,37.2487093 14.6918947,37.7314564 14.0932105,37.7314564 Z" id="Shape" fill="#00D2FF"></path>
                <path d="M14.0932105,37.7314564 L9.75689474,37.7314564 C9.15821053,37.7314564 8.67275439,37.2487093 8.67275439,36.653366 L8.67275439,34.4973072 C8.67275439,33.9019638 9.15821053,33.4192167 9.75689474,33.4192167 L14.0932105,33.4192167 C14.6918947,33.4192167 15.1773509,33.9019638 15.1773509,34.4973072 L15.1773509,36.653366 C15.1772281,37.2487093 14.6918947,37.7314564 14.0932105,37.7314564 Z" id="Shape" fill="#18BDF6"></path>
                <path d="M43.3635263,37.7314564 L39.0272105,37.7314564 C38.4285263,37.7314564 37.9430702,37.2487093 37.9430702,36.653366 L37.9430702,24.7949815 C37.9430702,24.1996382 38.4285263,23.716891 39.0272105,23.716891 L43.3635263,23.716891 C43.9622105,23.716891 44.4476667,24.1996382 44.4476667,24.7949815 L44.4476667,36.653366 C44.4476667,37.2487093 43.9622105,37.7314564 43.3635263,37.7314564 Z" id="Shape" fill="#8BE3D6"></path>
                <path d="M43.3635263,37.7314564 L39.0272105,37.7314564 C38.4285263,37.7314564 37.9430702,37.2487093 37.9430702,36.653366 L37.9430702,30.1850674 C37.9430702,29.5897241 38.4285263,29.106977 39.0272105,29.106977 L43.3635263,29.106977 C43.9622105,29.106977 44.4476667,29.5897241 44.4476667,30.1850674 L44.4476667,36.653366 C44.4476667,37.2487093 43.9622105,37.7314564 43.3635263,37.7314564 Z" id="Shape" fill="#5FD6C5"></path>
                <path d="M53.1204211,37.7314564 L48.7841053,37.7314564 C48.1854211,37.7314564 47.6999649,37.2487093 47.6999649,36.653366 L47.6999649,12.9364749 C47.6999649,12.3411316 48.1854211,11.8583845 48.7841053,11.8583845 L53.1204211,11.8583845 C53.7191053,11.8583845 54.2045614,12.3411316 54.2045614,12.9364749 L54.2045614,36.653366 C54.2044386,37.2487093 53.7191053,37.7314564 53.1204211,37.7314564 Z" id="Shape" fill="#B8B8F8"></path>
                <path d="M53.1204211,37.7314564 L48.7841053,37.7314564 C48.1854211,37.7314564 47.6999649,37.2487093 47.6999649,36.653366 L47.6999649,18.326683 C47.6999649,17.7313396 48.1854211,17.2485925 48.7841053,17.2485925 L53.1204211,17.2485925 C53.7191053,17.2485925 54.2045614,17.7313396 54.2045614,18.326683 L54.2045614,36.653366 C54.2044386,37.2487093 53.7191053,37.7314564 53.1204211,37.7314564 Z" id="Shape" fill="#898AEA"></path>
                <path d="M56.3725965,38.8093026 L6.50459649,38.8093026 C5.90591228,38.8093026 5.42045614,38.3265555 5.42045614,37.7312122 L5.42045614,37.7312122 C5.42045614,37.1358688 5.90591228,36.6531217 6.50459649,36.6531217 L56.3727193,36.6531217 C56.9714035,36.6531217 57.4568596,37.1358688 57.4568596,37.7312122 L57.4568596,37.7312122 C57.4567368,38.3267998 56.9714035,38.8093026 56.3725965,38.8093026 Z" id="Shape" fill="#AFB9D2"></path>
            </g>
        </g>
    </g>
</svg>