<?xml version="1.0" encoding="UTF-8"?>
<svg width="16px" height="11px" viewBox="0 0 16 11" version="1.1" xmlns="http://www.w3.org/2000/svg" xmlns:xlink="http://www.w3.org/1999/xlink">
    <!-- Generator: Sketch 46.2 (44496) - http://www.bohemiancoding.com/sketch -->
    <title>arrow-pointing-to-right</title>
    <desc>Created with Sketch.</desc>
    <defs></defs>
    <g id="Page-1" stroke="none" stroke-width="1" fill="none" fill-rule="evenodd">
        <g id="Home-Page" transform="translate(-784.000000, -391.000000)" fill="#FFFFFF">
            <g id="arrow-pointing-to-right" transform="translate(784.000000, 391.000000)">
                <g id="Capa_1">
                    <path d="M15.7722528,5.00186559 L11.0138885,0.270682796 C10.7235688,-0.0179784946 10.2527286,-0.0179784946 9.96240892,0.270682796 C9.67202974,0.559403226 9.67202974,1.02743548 9.96240892,1.31615591 L13.451539,4.78535484 L0.743494424,4.78535484 C0.332907063,4.78535484 0,5.11636022 0,5.52460215 C0,5.93278495 0.332907063,6.26384946 0.743494424,6.26384946 L13.451539,6.26384946 L9.96252788,9.73304839 C9.6721487,10.0217688 9.6721487,10.4898011 9.96252788,10.7785215 C10.107658,10.9227634 10.2979926,10.9950323 10.4882677,10.9950323 C10.6785428,10.9950323 10.8688178,10.9227634 11.0140074,10.7785215 L15.7722528,6.04733871 C16.062632,5.75861828 16.062632,5.29058602 15.7722528,5.00186559 Z" id="Shape"></path>
                </g>
            </g>
        </g>
    </g>
</svg>