<?xml version="1.0" encoding="UTF-8"?>
<svg width="168px" height="24px" viewBox="0 0 168 24" version="1.1" xmlns="http://www.w3.org/2000/svg" xmlns:xlink="http://www.w3.org/1999/xlink">
    <!-- Generator: Sketch 46.2 (44496) - http://www.bohemiancoding.com/sketch -->
    <title>Launchcircle_Logo</title>
    <desc>Created with Sketch.</desc>
    <defs></defs>
    <g id="Page-1" stroke="none" stroke-width="1" fill="none" fill-rule="evenodd">
        <g id="Home-Page" transform="translate(-157.000000, -43.000000)">
            <g id="Launchcircle_Logo" transform="translate(157.000000, 43.000000)">
                <g id="Layer_1">
                    <g id="Group">
                        <polygon id="Shape" fill="#363439" points="0.0685714286 23.3828571 0.0685714286 0.548571429 4.32 0.548571429 4.32 23.3828571"></polygon>
                        <path d="M6.10285714,15.2228571 C6.10285714,10.56 9.87428571,6.78857143 14.5371429,6.78857143 C19.2,6.78857143 22.9028571,10.56 22.9028571,15.2228571 L22.9028571,23.3828571 L18.6514286,23.3828571 L18.6514286,21.6685714 C18.1714286,22.7657143 16.3885714,23.6571429 14.5371429,23.6571429 C9.94285714,23.6571429 6.10285714,19.8857143 6.10285714,15.2228571 Z M18.72,15.2228571 C18.72,12.8228571 17.0057143,10.9714286 14.6057143,10.9714286 C12.2057143,10.9714286 10.4228571,12.8228571 10.4228571,15.2228571 C10.4228571,17.6228571 12.2057143,19.4742857 14.6057143,19.4742857 C17.0057143,19.4742857 18.72,17.6228571 18.72,15.2228571 Z" id="Shape" fill="#363439"></path>
                        <path d="M39.5657143,7.06285714 L39.5657143,15.6342857 C39.5657143,21.12 36.5485714,23.6571429 32.3657143,23.6571429 C28.1828571,23.6571429 25.1657143,21.12 25.1657143,15.6342857 L25.1657143,7.06285714 L29.4171429,7.06285714 L29.4171429,15.6342857 C29.4171429,18.24 30.24,19.4742857 32.3657143,19.4742857 C34.4914286,19.4742857 35.3142857,18.24 35.3142857,15.6342857 L35.3142857,7.06285714 L39.5657143,7.06285714 Z" id="Shape" fill="#363439"></path>
                        <path d="M56.2285714,23.3828571 L51.9771429,23.3828571 L51.9771429,14.8114286 C51.9771429,12.2057143 51.1542857,10.9714286 49.0285714,10.9714286 C46.9714286,10.9714286 46.08,12.2057143 46.08,14.8114286 L46.08,23.3828571 L41.8285714,23.3828571 L41.8285714,14.8114286 C41.8285714,9.32571429 44.8457143,6.78857143 49.0285714,6.78857143 C53.2114286,6.78857143 56.2285714,9.32571429 56.2285714,14.8114286 L56.2285714,23.3828571 Z" id="Shape" fill="#363439"></path>
                        <path d="M58.0114286,15.2228571 C58.0114286,10.56 61.7828571,6.78857143 66.4457143,6.78857143 C70.3542857,6.78857143 73.5771429,9.39428571 74.5371429,12.8914286 L70.0114286,12.8914286 C69.3257143,11.7257143 68.0228571,10.9028571 66.4457143,10.9028571 C64.0457143,10.9028571 62.2628571,12.7542857 62.2628571,15.1542857 C62.2628571,17.5542857 64.0457143,19.4057143 66.4457143,19.4057143 C67.9542857,19.4057143 69.12,18.72 69.8742857,17.6228571 L74.4685714,17.6228571 C73.44,21.0514286 70.2171429,23.5885714 66.3771429,23.5885714 C61.7828571,23.6571429 58.0114286,19.8857143 58.0114286,15.2228571 Z" id="Shape" fill="#363439"></path>
                        <path d="M90.6514286,14.8114286 L90.6514286,23.3828571 L86.4,23.3828571 L86.4,14.8114286 C86.4,12.2057143 85.5771429,10.9714286 83.4514286,10.9714286 C81.3942857,10.9714286 80.5028571,12.2057143 80.5028571,14.8114286 L80.5028571,23.3828571 L76.2514286,23.3828571 L76.2514286,0.548571429 L80.5028571,0.548571429 L80.5028571,7.61142857 C81.3942857,6.99428571 82.3542857,6.78857143 83.4514286,6.78857143 C87.6342857,6.78857143 90.6514286,9.32571429 90.6514286,14.8114286 Z" id="Shape" fill="#363439"></path>
                        <path d="M100.525714,23.6571429 C96.6857143,23.6571429 93.5314286,21.1885714 92.4342857,17.6914286 L97.0285714,17.6914286 C97.7828571,18.7885714 98.9485714,19.4742857 100.457143,19.4742857 C102.857143,19.4742857 104.64,17.6228571 104.64,15.2228571 C104.64,12.8228571 102.857143,10.9714286 100.457143,10.9714286 C98.88,10.9714286 97.6457143,11.7257143 96.8914286,12.96 L92.3657143,12.96 C93.3257143,9.46285714 96.5485714,6.85714286 100.457143,6.85714286 C105.12,6.85714286 108.891429,10.6285714 108.891429,15.2914286 C108.891429,19.9542857 105.188571,23.6571429 100.525714,23.6571429 Z" id="Shape" fill="#12D4C4"></path>
                        <path d="M110.742857,2.81142857 C110.742857,1.44 111.84,0.274285714 113.28,0.274285714 C114.651429,0.274285714 115.817143,1.37142857 115.817143,2.81142857 C115.817143,4.25142857 114.72,5.34857143 113.28,5.34857143 C111.908571,5.34857143 110.742857,4.25142857 110.742857,2.81142857 Z M111.222857,7.06285714 L115.474286,7.06285714 L115.474286,23.3828571 L111.222857,23.3828571 L111.222857,7.06285714 Z" id="Shape" fill="#363439"></path>
                        <path d="M118.422857,14.8114286 C118.422857,9.39428571 121.44,6.99428571 125.417143,6.99428571 L125.622857,6.99428571 L125.622857,11.1085714 L125.485714,11.1085714 C123.634286,11.1085714 122.742857,12.2057143 122.742857,14.7428571 L122.742857,23.3142857 L118.491429,23.3142857 L118.491429,14.8114286 L118.422857,14.8114286 Z" id="Shape" fill="#363439"></path>
                        <path d="M126.788571,15.2228571 C126.788571,10.56 130.56,6.78857143 135.222857,6.78857143 C139.131429,6.78857143 142.354286,9.39428571 143.314286,12.8914286 L138.788571,12.8914286 C138.102857,11.7257143 136.8,10.9028571 135.222857,10.9028571 C132.822857,10.9028571 131.04,12.7542857 131.04,15.1542857 C131.04,17.5542857 132.822857,19.4057143 135.222857,19.4057143 C136.731429,19.4057143 137.897143,18.72 138.651429,17.6228571 L143.245714,17.6228571 C142.217143,21.0514286 138.994286,23.5885714 135.154286,23.5885714 C130.491429,23.6571429 126.788571,19.8857143 126.788571,15.2228571 Z" id="Shape" fill="#363439"></path>
                        <polygon id="Shape" fill="#363439" points="145.028571 23.3828571 145.028571 0.548571429 149.28 0.548571429 149.28 23.3828571"></polygon>
                        <path d="M159.36,6.78857143 C163.405714,6.78857143 167.725714,9.66857143 167.862857,14.88 C167.862857,15.6342857 167.862857,16.32 167.725714,16.8685714 L155.657143,16.8685714 C156.068571,18.5142857 157.508571,19.4742857 159.36,19.4742857 C160.868571,19.4742857 161.622857,18.9257143 162.171429,18.5142857 L167.245714,18.5142857 C165.942857,21.4628571 162.994286,23.5885714 159.497143,23.5885714 C154.765714,23.5885714 151.062857,19.8171429 151.062857,15.2228571 C151.062857,10.6971429 154.697143,6.78857143 159.36,6.78857143 Z M163.337143,13.5085714 C162.651429,12 161.142857,10.9714286 159.497143,10.9714286 C157.577143,10.9714286 156.274286,12 155.657143,13.5085714 L163.337143,13.5085714 Z" id="Shape" fill="#363439"></path>
                    </g>
                </g>
            </g>
        </g>
    </g>
</svg>