<?xml version="1.0" encoding="UTF-8"?>
<svg width="487px" height="330px" viewBox="0 0 487 330" version="1.1" xmlns="http://www.w3.org/2000/svg" xmlns:xlink="http://www.w3.org/1999/xlink">
    <!-- Generator: Sketch 46.2 (44496) - http://www.bohemiancoding.com/sketch -->
    <title>top</title>
    <desc>Created with Sketch.</desc>
    <defs></defs>
    <g id="Page-1" stroke="none" stroke-width="1" fill="none" fill-rule="evenodd">
        <g id="Home-Page" transform="translate(-233.000000, -2640.000000)">
            <g id="top" transform="translate(131.000000, 2540.000000)">
                <g transform="translate(102.000000, 100.000000)">
                    <polygon id="Fill-1" fill="#12D4C4" points="380.884893 293.61741 380.884893 122.304597 306.261639 293.61741"></polygon>
                    <polygon id="Fill-2" fill="#33FFEE" points="380.362049 329.5 487 329.5 380.362049 121.449112"></polygon>
                    <polygon id="Fill-3" fill="#FFFFFF" points="380.362158 120.763878 356.705954 175.728488 380.362158 175.728488 408.5 175.728488"></polygon>
                    <polygon id="Fill-4" fill="#12D4C4" points="228.986044 277.962251 228.986044 81.6129627 133.610669 277.962251"></polygon>
                    <polygon id="Fill-5" fill="#33FFEE" points="323.899207 277.962251 228.523831 81.6129627 228.523831 277.962251"></polygon>
                    <polygon id="Fill-6" fill="#FFFFFF" points="228.986044 81.0445559 198.537379 143.728759 228.986044 143.728759 259.434709 143.728759"></polygon>
                    <polygon id="Fill-7" fill="#7F7CDD" points="306.13951 254.363715 305.369427 65.4232407 212.471876 254.363715"></polygon>
                    <polygon id="Fill-8" fill="#918EEF" points="397.573143 254.363715 305.023215 64.7132746 305.023215 254.363715"></polygon>
                    <polygon id="Fill-9" fill="#FFFFFF" points="323.87003 102.475715 305.023052 63.8538847 286.174989 102.475715"></polygon>
                    <polygon id="Fill-10" fill="#918EEF" points="277.043697 308.990319 277.043697 142.582725 188.004698 308.990319"></polygon>
                    <polygon id="Fill-11" fill="#ACA9FA" points="364.834781 308.990319 276.419984 142.582725 276.419984 308.990319"></polygon>
                    <polygon id="Fill-12" fill="#FFFFFF" points="276.419875 141.585898 248.193606 194.711864 276.419875 194.711864 304.646687 194.711864"></polygon>
                    <polygon id="Fill-13" fill="#7F7CDD" points="348.726914 346.007756 348.726914 153.20179 253.35208 346.007756"></polygon>
                    <polygon id="Fill-14" fill="#918EEF" points="444.102397 346.007756 348.727022 153.20179 348.727022 346.007756"></polygon>
                    <polygon id="Fill-15" fill="#FFFFFF" points="348.726914 152.141776 318.278791 213.69459 348.726914 213.69459 379.176121 213.69459"></polygon>
                    <polygon id="Fill-16" fill="#7F7CDD" points="150.9344 325.429369 150.9344 43.0423864 46.9801871 325.429369"></polygon>
                    <polygon id="Fill-17" fill="#918EEF" points="253.432993 325.429369 150.206021 43.0423864 150.206021 325.429369"></polygon>
                    <polygon id="Fill-18" fill="#FFFFFF" points="150.206184 41.6449627 117.250951 131.796556 150.206184 131.796556 183.161958 131.796556"></polygon>
                    <polygon id="Fill-19" fill="#12D4C4" points="104.947675 383.472271 211.455637 383.472271 211.455637 193.821831"></polygon>
                    <polygon id="Fill-20" fill="#33FFEE" points="211.455746 383.472271 317.963707 383.472271 211.455746 193.821831"></polygon>
                    <polygon id="Fill-21" fill="#FFFFFF" points="233.145579 231.584054 211.4558 192.962766 189.76602 231.584054"></polygon>
                    <polygon id="Fill-22" fill="#12D4C4" points="0 345.920976 95.3753754 345.920976 95.3753754 122.910807"></polygon>
                    <polygon id="Fill-23" fill="#33FFEE" points="190.750426 345.920922 95.3755924 122.910753 95.3755924 345.920922"></polygon>
                    <polygon id="Fill-24" fill="#FFFFFF" points="95.3754839 121.889139 64.9268188 193.0848 95.3754839 193.0848 125.824149 193.0848"></polygon>
                    <polygon id="Fill-25" fill="#896337" points="148.326746 53.1525424 151.58062 53.1525424 151.58062 3.25423729 148.326746 3.25423729"></polygon>
                    <polygon id="Fill-26" fill="#674A29" points="148.326746 27.1186441 151.58062 27.1186441 151.58062 9.22033898 148.326746 9.22033898"></polygon>
                    <g id="Group-50" transform="translate(0.619785, 0.014644)">
                        <path d="M151.86373,2.91259661 C151.86373,4.40249492 150.656543,5.60981695 149.166811,5.60981695 C147.677079,5.60981695 146.470434,4.40249492 146.470434,2.91259661 C146.470434,1.42269831 147.677079,0.215376271 149.166811,0.215376271 C150.656543,0.215376271 151.86373,1.42269831 151.86373,2.91259661" id="Fill-27" fill="#674A29"></path>
                        <path d="M149.573166,49.1488542 C145.790538,49.1488542 145.757999,55.0081085 149.530865,55.0081085 C153.312951,55.0081085 153.346574,49.1488542 149.573166,49.1488542" id="Fill-29" fill="#FFFFFF"></path>
                        <path d="M148.627156,24.1816949 L148.627156,7.07416949 C165.352609,11.8654915 180.445702,2.28338983 197.171155,7.07416949 C194.212299,9.11945763 192.732329,10.4884068 189.772931,13.6 C192.732329,17.3315254 194.212299,19.3838644 197.171155,24.1816949 C180.445702,19.3909153 165.352609,28.9730169 148.627156,24.1816949 Z" id="Fill-31" fill="#FFC40D"></path>
                        <path d="M148.627319,7.07416949 C165.352772,11.8654915 180.445865,2.28338983 197.171318,7.07416949 C179.07273,7.95823729 166.713976,23.2987119 148.627319,24.1816949 L148.627319,7.07416949 Z" id="Fill-33" fill="#FFAF0D"></path>
                        <polygon id="Fill-42" fill="#FF965D" points="150.960726 24.9343458 147.435154 24.9343458 147.503485 7.03604068 150.960726 7.03604068"></polygon>
                        <path d="M426.372326,61.183967 C426.659209,57.663967 424.304489,53.9047806 420.662862,53.2891873 C420.063065,53.1877636 419.46164,53.1026111 418.858589,53.0245094 C418.96434,52.735967 419.052737,52.439289 419.12378,52.1333907 C419.40524,50.8561026 419.347755,49.5934585 418.95024,48.347628 C418.418231,47.0302043 417.752272,45.7241704 416.581962,44.8449839 C416.089542,44.49895 415.596581,44.1529161 415.104161,43.8068822 C413.974525,43.21895 412.773303,42.952645 411.499411,43.0068822 C409.636569,43.0925772 407.862665,43.9240348 406.60667,45.3011195 C405.34959,46.6787467 404.683088,48.520645 404.768774,50.3842382 C404.801312,50.5632212 404.833309,50.7416619 404.865848,50.920645 C404.400544,50.6668145 403.899447,50.4693907 403.361473,50.3516958 C401.794733,50.0078314 400.137427,50.2887806 398.788154,51.1641704 C397.706241,51.8660009 396.879757,52.91495 396.433976,54.1184755 C396.0972,53.9823399 395.751747,53.8673568 395.396533,53.7892551 C393.59226,53.3933229 391.686032,53.7165772 390.133935,54.724306 C388.638237,55.6940687 387.557409,57.2365772 387.163148,58.975967 C386.998827,59.7027467 386.962492,60.4495941 387.036789,61.183967 L426.372326,61.183967 Z" id="Fill-44" fill="#FFFFFF"></path>
                        <path d="M9.7292208,60.8355614 C10.2820744,60.1098599 10.8349281,59.3841585 11.3877817,58.658457 L13.6890349,56.8683933 C14.6334932,56.4744411 15.5756479,56.0816408 16.5189544,55.6876885 C17.5325194,55.5563711 18.5472362,55.4262056 19.5619529,55.2948882 C19.686345,55.3121668 19.8072817,55.3294454 19.9282185,55.3455721 C14.198121,56.2970474 10.4398681,58.96832 8.66728112,63.3755166 C9.02202886,62.5288649 9.37447305,61.6822131 9.7292208,60.8355614 L9.7292208,60.8355614 Z M47.5893284,80.7301491 C47.6043015,80.4940081 47.6273371,80.2624748 47.6296406,80.0228781 C47.6722564,73.390197 42.1114703,67.5673065 35.4046647,67.6202943 C34.2448239,67.6295095 32.9513768,67.6767377 31.5853676,67.7804094 C31.785777,66.2679553 31.6867241,64.7543494 31.2859052,63.2395915 C30.8839345,62.2754453 30.4819639,61.312451 30.0799932,60.3494566 C29.0318749,58.5812792 27.6197946,57.1817121 25.8460559,56.1496033 C24.9349991,55.7521953 24.0193353,55.3686103 23.0967608,55 C21.9922054,55.0598992 20.954453,55.1658746 19.9673789,55.3282935 C19.8464422,55.3121668 19.7266573,55.2683944 19.6057205,55.2683944 L19.603417,55.2683944 C19.5596494,55.2683944 19.5158818,55.2672424 19.4721142,55.260331 C17.3298064,55.2591791 15.3314709,55.7994235 13.4759559,56.873001 C10.8637225,58.4038855 8.92643126,60.9484483 8.12364172,63.8650771 C7.70093905,65.4063288 7.61340389,67.0189988 7.83569712,68.5878962 C5.96981612,68.9772408 4.1534616,69.8837917 2.90723737,71.269536 C2.32904462,71.9088444 1.80613723,72.5942292 1.33621164,73.3222345 C0.483895634,74.8001313 0.0116664923,76.5567896 0.000148708337,78.2639159 C-0.00445840524,79.0379975 0.0980498718,79.8927126 0.298459312,80.7301491 L47.5893284,80.7301491 Z" id="Fill-46" fill="#FFFFFF"></path>
                        <path d="M275.625303,106.621831 L253.124224,106.621831 C253.157305,106.370712 253.221298,106.127186 253.318372,105.892339 C253.942573,104.356881 253.757103,104.638373 254.800511,103.355119 C254.845523,103.300339 254.89867,103.25261 254.950732,103.205424 C255.522329,102.695593 256.164427,102.199864 256.86889,101.875525 C257.300029,101.694915 257.731167,101.514847 258.162305,101.334237 C259.116232,101.07661 260.071244,101.074441 261.027341,101.327729 C261.23342,101.382508 261.432448,101.453559 261.628765,101.531661 C261.821286,100.461017 262.337567,99.4565424 263.116328,98.6874576 C264.089236,97.7269153 265.439594,97.1525424 266.810017,97.1525424 C268.235213,97.1525424 269.61811,97.7111864 270.620845,98.7275932 C271.586703,99.7060339 272.146369,101.046237 272.156131,102.421695 C272.156673,102.562712 272.147454,102.702644 272.136608,102.842576 C274.313992,103.095322 275.477251,104.812475 275.625303,106.621831" id="Fill-48" fill="#FFFFFF"></path>
                    </g>
                </g>
            </g>
        </g>
    </g>
</svg>