<?xml version="1.0" encoding="utf-8"?>
<!-- Generator: Adobe Illustrator 19.0.1, SVG Export Plug-In . SVG Version: 6.00 Build 0)  -->
<svg version="1.1" id="Ebene_1" xmlns="http://www.w3.org/2000/svg" xmlns:xlink="http://www.w3.org/1999/xlink" x="0px" y="0px"
	 viewBox="0 0 389.5 93.1" style="enable-background:new 0 0 389.5 93.1;" xml:space="preserve">
<style type="text/css">
	.st0{fill:#2196F3;}
</style>
<g>
	<path class="st0" d="M243.1,32.3h-7.7v10.1h7.7c3.1,0,5.3-1.8,5.3-5C248.4,34,246.4,32.3,243.1,32.3z"/>
	<path class="st0" d="M126.2,32.3h-7.7v10.1h7.7c3.1,0,5.3-1.8,5.3-5C131.5,34,129.5,32.3,126.2,32.3z"/>
	<path class="st0" d="M202.8,32.3h-6.2v11.3h6.2c3.7,0,5.5-2.2,5.5-5.7C208.3,34.5,206.2,32.3,202.8,32.3z"/>
	<polygon class="st0" points="78,46.2 87.3,46.2 82.7,33.8 	"/>
	<path class="st0" d="M376.2,10.5H13.3c-1.6,0-2.8,1.3-2.8,2.8v56.6c0,1.5,1.2,2.7,2.7,2.8c0,0,72.7,9.9,181.6,9.9
		s181.6-9.9,181.6-9.9c1.5-0.1,2.7-1.3,2.7-2.8V13.3C379,11.8,377.7,10.5,376.2,10.5z M57.6,48.9c-2.9,5.6-8.8,9.1-15,9.1
		c-9.1,0-16.8-7.3-16.8-16.5c0-9.2,7.7-16.5,16.8-16.5c6.3,0,12.1,3.5,15,9v0l-7.4,3.3h0c-1.5-2.8-4.4-4.5-7.5-4.5
		c-4.7,0-8.6,3.8-8.6,8.6s3.8,8.6,8.6,8.6c3.2,0,6-1.7,7.5-4.5v0L57.6,48.9L57.6,48.9z M90.6,57.4l-1.7-4.6H76.5l-1.7,4.6h-9
		l12.9-31.7v0h8.1l12.8,31.7H90.6z M129.4,57.4l-6-8.5h-4.1v8.5h-8.2V25.7h15.5c7.2,0,11.9,4.3,11.9,11.6c0,4.5-2,8.6-6.2,10.5
		l6.9,9.6H129.4z M163.8,58c-6,0-13.5-2.6-13.5-9.8v-0.4h8c0,2.5,3.4,3.1,5.3,3.1c1.2,0,4-0.2,4-1.9c0-4.1-17-3.4-17-14.1
		c0-6.9,6.3-9.9,12.4-9.9c6.2,0,13,3.1,13,10.3v0.5h-8c0-2.7-2.6-3.7-4.8-3.7c-1.3,0-3.8,0.4-3.8,2.1c0,3.6,17.1,3.5,17.1,14.3
		C176.4,55.6,169.8,58,163.8,58z M203.3,50.2h-5.8v7.2h-8.2V25.7h14c7.3,0,12.5,4.7,12.5,12.2C215.7,45.4,210.8,50.2,203.3,50.2z
		 M246.3,57.4l-6-8.5h-4.1v8.5h-8.2V25.7h15.5c7.2,0,11.9,4.3,11.9,11.6c0,4.5-2,8.6-6.2,10.5l6.9,9.6H246.3z M276.7,57.4h-8.2V25.7
		h8.2V57.4z M320,57.4H313l-14-17.6v17.6h-8.2V25.7h6.9l14.1,17.6V25.7h8.2V57.4z M363.8,57.4h-6.4v-2.9c-1.7,2.5-5,3.5-7.9,3.5
		c-9.1,0-16.8-7.3-16.8-16.5c0-9.2,7.7-16.5,16.8-16.5c5.2,0,10.3,2.5,13.4,6.6v0l-6.7,4.5h0c-1.7-2.1-4.1-3.2-6.7-3.2
		c-4.7,0-8.6,3.8-8.6,8.6c0,4.8,3.8,8.6,8.6,8.6c2.7,0,5.2-1.3,6.7-3.6v-0.9h-7.7v-6.8h15.3V57.4z"/>
	<path class="st0" d="M379,0H10.5C4.7,0,0,4.7,0,10.5V73c0,5.4,4.1,9.8,9.8,10.5c0.8,0.1,77.2,9.6,184.9,9.6
		c107.8,0,184.2-9.5,185-9.6c5.9-0.8,9.8-5,9.8-10.5V10.5C389.5,4.7,384.8,0,379,0z M385.5,73c0,3.4-2.5,6-6.3,6.5
		c-0.8,0.1-76.9,9.6-184.4,9.6c-107.5,0-183.7-9.5-184.5-9.6C6.6,79.1,4,76.4,4,73V10.5C4,6.9,6.9,4,10.5,4H379
		c3.6,0,6.5,2.9,6.5,6.5V73z"/>
</g>
</svg>
