<?xml version="1.0" encoding="UTF-8"?>
<svg width="654px" height="419px" viewBox="0 0 654 419" version="1.1" xmlns="http://www.w3.org/2000/svg" xmlns:xlink="http://www.w3.org/1999/xlink">
    <!-- Generator: Sketch 46.2 (44496) - http://www.bohemiancoding.com/sketch -->
    <title>end-to-end managment</title>
    <desc>Created with Sketch.</desc>
    <defs>
        <rect id="path-1" x="0" y="0" width="654" height="419"></rect>
        <polygon id="path-3" points="0.0384639056 0.115605802 71.7718638 0.115605802 71.7718638 71.8492198 0.0384639056 71.8492198 0.0384639056 0.115605802"></polygon>
        <polygon id="path-5" points="100.628 0.2345 100.628 100.7565 0.1077 100.7565 0.1077 0.2345 100.628 0.2345"></polygon>
        <rect id="path-7" x="340" y="102" width="95" height="80" rx="8"></rect>
        <mask id="mask-8" maskContentUnits="userSpaceOnUse" maskUnits="objectBoundingBox" x="0" y="0" width="95" height="80" fill="white">
            <use xlink:href="#path-7"></use>
        </mask>
        <rect id="path-9" x="74" y="104" width="95" height="46" rx="8"></rect>
        <mask id="mask-10" maskContentUnits="userSpaceOnUse" maskUnits="objectBoundingBox" x="0" y="0" width="95" height="46" fill="white">
            <use xlink:href="#path-9"></use>
        </mask>
        <rect id="path-11" x="74" y="160" width="95" height="22" rx="8"></rect>
        <mask id="mask-12" maskContentUnits="userSpaceOnUse" maskUnits="objectBoundingBox" x="0" y="0" width="95" height="22" fill="white">
            <use xlink:href="#path-11"></use>
        </mask>
    </defs>
    <g id="Page-1" stroke="none" stroke-width="1" fill="none" fill-rule="evenodd">
        <g id="end-to-end-managment">
            <mask id="mask-2" fill="white">
                <use xlink:href="#path-1"></use>
            </mask>
            <use id="Mask" fill="#F4F8FC" xlink:href="#path-1"></use>
            <g id="Group-11" mask="url(#mask-2)">
                <g transform="translate(18.000000, 80.000000)">
                    <g id="Group-6" transform="translate(335.729469, 41.155016) rotate(8.000000) translate(-335.729469, -41.155016) translate(299.729469, 4.655016)">
                        <g id="Group-3" transform="translate(0.000000, 0.598010)">
                            <mask id="mask-4" fill="white">
                                <use xlink:href="#path-3"></use>
                            </mask>
                            <g id="Clip-2"></g>
                            <path d="M71.7718638,35.982163 C71.7718638,55.7914312 55.7140752,71.8492198 35.904807,71.8492198 C16.0962525,71.8492198 0.0384639056,55.7914312 0.0384639056,35.982163 C0.0384639056,16.1736085 16.0962525,0.11510627 35.904807,0.11510627 C55.7140752,0.11510627 71.7718638,16.1736085 71.7718638,35.982163" id="Fill-1" fill="#918EEF" mask="url(#mask-4)"></path>
                        </g>
                        <path d="M38.8905053,49.6873022 C36.1887549,50.9917923 33.0281493,51.7439437 29.6527454,51.7439437 C26.9410044,51.7439437 24.3320241,51.2672481 21.8957388,50.3274158 L21.1457283,50.0384013 L17.7367844,52.3469492 L17.9101931,48.2479386 L17.272934,47.761966 C13.6570414,44.9988447 11.6646254,41.280905 11.6646254,37.2917912 C11.6646254,30.9270496 16.8133653,25.5142718 23.9395352,23.5910765 C24.8979216,22.2209337 26.0696792,20.9671102 27.4219816,19.8638598 C16.8526141,20.7944152 8.58965378,28.2545574 8.58965378,37.2917912 C8.58965378,41.9438543 10.8325491,46.4253632 14.7702825,49.6994336 L14.4070519,58.3163476 L21.5524895,53.4766034 C24.1207937,54.3679099 26.8418117,54.8189153 29.6527454,54.8189153 C35.3845096,54.8189153 40.586057,52.9014289 44.3874898,49.8000535 C43.651038,49.864279 42.9081637,49.8992461 42.1574396,49.8992461 C41.0463394,49.8992461 39.9552204,49.8257437 38.8905053,49.6873022" id="Fill-4" fill="#FFFFFF"></path>
                        <path d="M54.5377505,42.841726 L53.9004914,43.3284122 L54.0739001,47.4274228 L50.6642426,45.1181613 L49.9142321,45.4078894 C47.4779468,46.3477217 44.8689665,46.8237036 42.1572255,46.8237036 C32.2379623,46.8237036 24.1683919,40.3405017 24.1683919,32.3715512 C24.1683919,24.4026007 32.2379623,17.9193988 42.1572255,17.9193988 C52.0764887,17.9193988 60.1453455,24.4026007 60.1453455,32.3715512 C60.1453455,36.360665 58.1536431,40.0793183 54.5377505,42.841726 M63.2203171,32.3715512 C63.2203171,22.7070489 53.7720405,14.8451408 42.1572255,14.8451408 C36.4254613,14.8451408 31.2232003,16.7619135 27.4217675,19.8640025 C26.0694651,20.967253 24.8977075,22.2210764 23.9393211,23.5905056 C22.1338725,26.175223 21.0941339,29.1738377 21.0941339,32.3715512 C21.0941339,41.1119207 28.8218822,48.3772458 38.8902912,49.6874449 C39.9550064,49.8258864 41.0461253,49.8993889 42.1572255,49.8993889 C42.9079496,49.8993889 43.6508239,49.8644217 44.3872757,49.8001962 C46.40895,49.6239331 48.3749622,49.2100357 50.2574814,48.5563634 L57.4036326,53.3961076 L57.040402,44.7791936 C60.9781355,41.5051232 63.2203171,37.0250415 63.2203171,32.3715512" id="Fill-6" fill="#FFFFFF"></path>
                    </g>
                    <g id="Group-10" transform="translate(485.000000, 82.000000)">
                        <g id="Group-18" transform="translate(65.271681, 65.369723) rotate(21.000000) translate(-65.271681, -65.369723) translate(14.771681, 14.869723)">
                            <mask id="mask-6" fill="white">
                                <use xlink:href="#path-5"></use>
                            </mask>
                            <g id="Clip-17"></g>
                            <path d="M100.6287,50.4955 C100.6287,78.2535 78.1257,100.7565 50.3677,100.7565 C22.6097,100.7565 0.1077,78.2535 0.1077,50.4955 C0.1077,22.7375 22.6097,0.2345 50.3677,0.2345 C78.1257,0.2345 100.6287,22.7375 100.6287,50.4955" id="Fill-16" fill="#33FFEE" mask="url(#mask-6)"></path>
                        </g>
                        <path d="M76.84088,60.9125313 L95.42488,49.8135313 L95.42488,79.4305313 L76.84088,60.9125313 Z M57.49888,63.1905313 L65.26188,67.8275313 L73.02488,63.1915313 L92.36488,82.4635313 L38.15888,82.4635313 L57.49888,63.1905313 Z M53.68288,60.9115313 L35.09988,79.4305313 L35.09988,49.8135313 L53.68288,60.9115313 Z M65.26188,62.8085313 L40.75488,48.1725313 L89.76888,48.1725313 L65.26188,62.8085313 Z M30.78988,86.7715313 L99.73288,86.7715313 L99.73288,43.8625313 L30.78988,43.8625313 L30.78988,86.7715313 Z" id="Fill-19" fill="#FFFFFF" transform="translate(65.261380, 65.317031) rotate(21.000000) translate(-65.261380, -65.317031) "></path>
                    </g>
                    <g id="Group-9" transform="translate(0.000000, 84.000000)">
                        <path d="M105,59.5 C105,84.6286087 84.6293113,105 59.4995474,105 C34.3706887,105 14,84.6286087 14,59.5 C14,34.3713913 34.3706887,14 59.4995474,14 C84.6293113,14 105,34.3713913 105,59.5" id="Fill-21" fill="#FFDA6E" transform="translate(59.500000, 59.500000) rotate(21.000000) translate(-59.500000, -59.500000) "></path>
                        <path d="M78.0205246,73.1648876 L80.2308176,79.7949126 C79.7048169,80.2246196 79.2251479,80.705201 78.7954444,81.2302975 L72.165474,79.0199864 L78.0205246,73.1648876 Z M45.2912912,38.7247331 L76.1082078,69.5419032 L68.541611,77.1076539 L37.7256027,46.2904838 L45.2912912,38.7247331 Z M85.8996331,84.4235748 L84.399759,79.924824 L80.7322897,68.9223257 C80.7268389,68.9068817 80.7168458,68.8932546 80.7113951,68.8769021 C80.6632465,68.7442653 80.6032878,68.6152623 80.5260684,68.4935271 C80.5206176,68.4862594 80.5178922,68.4771747 80.5124414,68.4689984 C80.4406728,68.3590734 80.3561856,68.2545991 80.2598884,68.1573927 L46.6748819,34.5730184 C45.9099552,33.8089939 44.6717187,33.8089939 43.906792,34.5730184 L33.5730137,44.9068817 C32.8089954,45.6709062 32.8089954,46.9100613 33.5730137,47.6740859 L67.1580203,81.2593686 C67.2543174,81.3565751 67.3596993,81.4401544 67.4696234,81.5119237 C67.4777996,81.5173745 67.4859758,81.5200999 67.4941519,81.5255508 C67.6158861,81.6027708 67.7439796,81.66273 67.8775238,81.7099705 C67.8938761,81.7163298 67.9065946,81.7272314 67.922947,81.7326823 L78.9253548,85.4001817 L83.4231602,86.8991597 C83.6266561,86.9663866 83.8356028,87 84.0427326,87 C84.5532894,87 85.0529446,86.7992278 85.4263234,86.4267545 C85.9505071,85.9025664 86.1340168,85.1267318 85.8996331,84.4235748 L85.8996331,84.4235748 Z" id="Fill-23" fill="#FFFFFF" transform="translate(59.500000, 60.500000) rotate(21.000000) translate(-59.500000, -60.500000) "></path>
                    </g>
                    <g id="profile" transform="translate(40.000000, 61.000000)">
                        <g id="Group-13" transform="translate(0.000000, 0.243000)">
                            <path d="M482.7309,286.0459 C482.7309,292.5779 477.4349,297.8739 470.9009,297.8739 L39.1789,297.8739 C32.6459,297.8739 27.3499,292.5779 27.3499,286.0459 L27.3499,12.7639 C27.3499,6.2319 32.6459,0.9359 39.1789,0.9359 L470.9009,0.9359 C477.4349,0.9359 482.7309,6.2319 482.7309,12.7639 L482.7309,286.0459 Z" id="Fill-1" fill="#F9F8F7"></path>
                            <polygon id="Fill-5" fill="#FFFFFF" points="45.094 265.401 464.989 265.401 464.989 18.777 45.094 18.777"></polygon>
                        </g>
                        <g id="Group-60" transform="translate(74.000000, 199.243000)" fill="#F9F8F7">
                            <polygon id="Fill-48" points="0.407 8.117 361.674 8.117 361.674 0.367 0.407 0.367"></polygon>
                            <polygon id="Fill-50" points="0.408 19.178 168.111 19.178 168.111 15.116 0.408 15.116"></polygon>
                            <polygon id="Fill-51" points="193.971 19.178 361.674 19.178 361.674 15.116 193.971 15.116"></polygon>
                            <polygon id="Fill-52" points="0.408 28.396 168.111 28.396 168.111 24.333 0.408 24.333"></polygon>
                            <polygon id="Fill-53" points="193.971 28.396 361.674 28.396 361.674 24.333 193.971 24.333"></polygon>
                            <polygon id="Fill-54" points="0.408 46.83 168.111 46.83 168.111 42.767 0.408 42.767"></polygon>
                            <polygon id="Fill-55" points="193.971 46.83 361.674 46.83 361.674 42.767 193.971 42.767"></polygon>
                            <polygon id="Fill-56" points="0.408 37.612 168.111 37.612 168.111 33.55 0.408 33.55"></polygon>
                            <polygon id="Fill-57" points="193.971 37.612 361.674 37.612 361.674 33.55 193.971 33.55"></polygon>
                            <polygon id="Fill-58" points="0.408 56.047 168.111 56.047 168.111 51.985 0.408 51.985"></polygon>
                            <polygon id="Fill-59" points="193.971 56.047 361.674 56.047 361.674 51.985 193.971 51.985"></polygon>
                        </g>
                        <g id="Group-78" transform="translate(72.000000, 41.243000)">
                            <path d="M37.0756,20.9532 C37.0756,31.1872 28.7786,39.4852 18.5436,39.4852 C8.3076,39.4852 0.0116,31.1872 0.0116,20.9532 C0.0116,10.7182 8.3076,2.4202 18.5436,2.4202 C28.7786,2.4202 37.0756,10.7182 37.0756,20.9532 Z" id="Fill-61" fill="#898AEA"></path>
                            <path d="M92.2543,26.2246 L18.5433,26.2246 L18.5433,15.6806 L92.2543,15.6806 C95.1663,15.6806 97.5263,18.0406 97.5263,20.9536 C97.5263,23.8646 95.1663,26.2246 92.2543,26.2246" id="Fill-63" fill="#898AEA"></path>
                            <polygon id="Fill-73" fill="#F9F8F7" points="304.021 37.786 358.671 37.786 358.671 1.299 304.021 1.299"></polygon>
                            <polygon id="Fill-75" fill="#EBE9E7" points="358.6713 37.7862 338.2753 1.2992 324.4173 1.2992 304.0213 37.7862"></polygon>
                            <polygon id="Fill-76" fill="#FFFFFF" opacity="0.944123641" points="358.6713 0.2989 331.3463 21.4239 304.0213 0.2989"></polygon>
                            <path d="M343.0543,34.1366 C343.0543,40.3916 348.1243,45.4636 354.3803,45.4636 C360.6353,45.4636 365.7063,40.3916 365.7063,34.1366 C365.7063,27.8806 360.6353,22.8096 354.3803,22.8096 C348.1243,22.8096 343.0543,27.8806 343.0543,34.1366 Z" id="Fill-77" fill="#FFC40D"></path>
                        </g>
                        <use id="Rectangle-7" stroke="#ECEEF2" mask="url(#mask-8)" stroke-width="4" stroke-dasharray="4,5" xlink:href="#path-7"></use>
                        <use id="Rectangle-7" stroke="#ECEEF2" mask="url(#mask-10)" stroke-width="4" stroke-dasharray="4,5" xlink:href="#path-9"></use>
                        <g id="Page-1" transform="translate(189.000000, 61.000000)">
                            <polygon id="Fill-1" fill="#9E9FFA" points="0 17.6266761 132 17.6266761 132 0 0 0"></polygon>
                            <polygon id="Fill-2" fill="#FBFBFB" points="0 35.2540471 132 35.2540471 132 17.6266761 0 17.6266761"></polygon>
                            <polygon id="Fill-3" fill="#F6F6F6" points="0 52.8835031 132 52.8835031 132 35.2540471 0 35.2540471"></polygon>
                            <polygon id="Fill-4" fill="#FBFBFB" points="0 70.5087892 132 70.5087892 132 52.8835031 0 52.8835031"></polygon>
                            <polygon id="Fill-5" fill="#FBFBFB" points="0 88.1375502 132 88.1375502 132 70.5087892 0 70.5087892"></polygon>
                            <polygon id="Fill-4" fill="#FBFBFB" points="0 105.508789 132 105.508789 132 87.8835031 0 87.8835031"></polygon>
                            <polygon id="Fill-5" fill="#FBFBFB" points="0 123.13755 132 123.13755 132 105.508789 0 105.508789"></polygon>
                            <g id="Group-28" transform="translate(4.160911, 4.740431)">
                                <path d="M111.02678,2.92744737 L114.338172,6.2466527 C114.48103,6.38842781 114.664803,6.46140028 114.854125,6.46140028 C115.039285,6.46279024 115.224446,6.39120771 115.368691,6.2466527 L118.680083,2.92744737 C118.964412,2.64389716 118.964412,2.18312808 118.680083,1.89540802 C118.396447,1.61324777 117.93736,1.61324777 117.652338,1.89540802 L114.854125,4.70241605 L112.052445,1.89540802 C111.768116,1.61324777 111.307642,1.61324777 111.02678,1.89540802 C110.739677,2.18312808 110.739677,2.64389716 111.02678,2.92744737" id="Fill-6" fill="#FFFFFF"></path>
                                <path d="M1.73308881,21.6999304 C1.73308881,23.3956718 3.1048025,24.7717242 4.7982933,24.7717242 L32.3393637,24.7717242 C34.0314675,24.7717242 35.4038747,23.3956718 35.4038747,21.6999304 C35.4038747,20.002799 34.0314675,18.6288314 32.3393637,18.6288314 L4.7982933,18.6288314 C3.1048025,18.6288314 1.73308881,20.002799 1.73308881,21.6999304 C1.73308881,21.6999304 1.73308881,20.002799 1.73308881,21.6999304" id="Fill-8" fill="#EBEBEC"></path>
                                <path d="M1.73308881,39.3271624 C1.73308881,41.0242938 3.1048025,42.3996513 4.7982933,42.3996513 L32.3393637,42.3996513 C34.0314675,42.3996513 35.4038747,41.0242938 35.4038747,39.3271624 C35.4038747,37.631421 34.0314675,36.2553685 32.3393637,36.2553685 L4.7982933,36.2553685 C3.1048025,36.2553685 1.73308881,37.631421 1.73308881,39.3271624 C1.73308881,39.3271624 1.73308881,37.631421 1.73308881,39.3271624" id="Fill-10" fill="#EBEBEC"></path>
                                <path d="M1.73308881,56.9553674 C1.73308881,58.6524988 3.1048025,60.0278563 4.7982933,60.0278563 L32.3393637,60.0278563 C34.0314675,60.0278563 35.4038747,58.6524988 35.4038747,56.9553674 C35.4038747,55.2582361 34.0314675,53.8835735 32.3393637,53.8835735 L4.7982933,53.8835735 C3.1048025,53.8835735 1.73308881,55.2582361 1.73308881,56.9553674 C1.73308881,56.9553674 1.73308881,55.2582361 1.73308881,56.9553674" id="Fill-12" fill="#EBEBEC"></path>
                                <path d="M1.73308881,74.582252 C1.73308881,76.2793834 3.1048025,77.6547408 4.7982933,77.6547408 L32.3393637,77.6547408 C34.0314675,77.6547408 35.4038747,76.2793834 35.4038747,74.582252 C35.4038747,72.8885955 34.0314675,71.5111531 32.3393637,71.5111531 L4.7982933,71.5111531 C3.1048025,71.5111531 1.73308881,72.8885955 1.73308881,74.582252 C1.73308881,74.582252 1.73308881,72.8885955 1.73308881,74.582252" id="Fill-14" fill="#EBEBEC"></path>
                                <path d="M24.121703,1.34373608 C24.121703,1.77045134 23.5738497,2.11515943 22.8990887,2.11515943 L1.35597157,2.11515943 C0.681903977,2.11515943 0.136131141,1.77045134 0.136131141,1.34373608 C0.136131141,0.918410773 0.681903977,0.570922777 1.35597157,0.570922777 L22.8990887,0.570922777 C23.5738497,0.570922777 24.121703,0.918410773 24.121703,1.34373608" id="Fill-16" fill="#FFFFFF"></path>
                                <path d="M14.64183,6.20856802 C14.64183,6.63389333 14.0932832,6.9820763 13.4192156,6.9820763 L1.35604092,6.9820763 C0.681973325,6.9820763 0.136200489,6.63389333 0.136200489,6.20856802 C0.136200489,5.78185276 0.681973325,5.43575472 1.35604092,5.43575472 L13.4192156,5.43575472 C14.0932832,5.43575472 14.64183,5.78185276 14.64183,6.20856802" id="Fill-18" fill="#FFFFFF"></path>
                                <path d="M118.890763,21.6847104 C118.890763,23.0128095 117.820022,24.0872424 116.496159,24.0872424 L116.399071,24.0872424 C115.072434,24.0872424 113.998225,23.0128095 113.998225,21.6847104 C113.998225,20.3566113 115.072434,19.2787035 116.399071,19.2787035 L116.496159,19.2787035 C117.820022,19.2787035 118.890763,20.3566113 118.890763,21.6847104" id="Fill-20" fill="#EBEBEC"></path>
                                <path d="M118.890763,39.3271624 C118.890763,40.6552615 117.820022,41.7303894 116.496159,41.7303894 L116.399071,41.7303894 C115.072434,41.7303894 113.998225,40.6552615 113.998225,39.3271624 C113.998225,37.9983683 115.072434,36.9246304 116.399071,36.9246304 L116.496159,36.9246304 C117.820022,36.9246304 118.890763,37.9983683 118.890763,39.3271624" id="Fill-22" fill="#EBEBEC"></path>
                                <path d="M118.890763,56.9553674 C118.890763,58.2834665 117.820022,59.3578994 116.496159,59.3578994 L116.399071,59.3578994 C115.072434,59.3578994 113.998225,58.2834665 113.998225,56.9553674 C113.998225,55.6286583 115.072434,54.5528354 116.399071,54.5528354 L116.496159,54.5528354 C117.820022,54.5528354 118.890763,55.6286583 118.890763,56.9553674" id="Fill-24" fill="#EBEBEC"></path>
                                <path d="M118.890763,74.582252 C118.890763,75.9117411 117.820022,76.9882589 116.496159,76.9882589 L116.399071,76.9882589 C115.072434,76.9882589 113.998225,75.9117411 113.998225,74.582252 C113.998225,73.2583227 115.072434,72.179025 116.399071,72.179025 L116.496159,72.179025 C117.820022,72.179025 118.890763,73.2583227 118.890763,74.582252" id="Fill-26" fill="#EBEBEC"></path>
                                <path d="M1.73308881,92.582252 C1.73308881,94.2793834 3.1048025,95.6547408 4.7982933,95.6547408 L32.3393637,95.6547408 C34.0314675,95.6547408 35.4038747,94.2793834 35.4038747,92.582252 C35.4038747,90.8885955 34.0314675,89.5111531 32.3393637,89.5111531 L4.7982933,89.5111531 C3.1048025,89.5111531 1.73308881,90.8885955 1.73308881,92.582252 C1.73308881,92.582252 1.73308881,90.8885955 1.73308881,92.582252" id="Fill-14" fill="#EBEBEC"></path>
                                <path d="M118.890763,92.582252 C118.890763,93.9117411 117.820022,94.9882589 116.496159,94.9882589 L116.399071,94.9882589 C115.072434,94.9882589 113.998225,93.9117411 113.998225,92.582252 C113.998225,91.2583227 115.072434,90.179025 116.399071,90.179025 L116.496159,90.179025 C117.820022,90.179025 118.890763,91.2583227 118.890763,92.582252" id="Fill-26" fill="#EBEBEC"></path>
                                <path d="M1.73308881,109.582252 C1.73308881,111.279383 3.1048025,112.654741 4.7982933,112.654741 L32.3393637,112.654741 C34.0314675,112.654741 35.4038747,111.279383 35.4038747,109.582252 C35.4038747,107.888595 34.0314675,106.511153 32.3393637,106.511153 L4.7982933,106.511153 C3.1048025,106.511153 1.73308881,107.888595 1.73308881,109.582252 C1.73308881,109.582252 1.73308881,107.888595 1.73308881,109.582252" id="Fill-14" fill="#EBEBEC"></path>
                                <path d="M118.890763,109.582252 C118.890763,110.911741 117.820022,111.988259 116.496159,111.988259 L116.399071,111.988259 C115.072434,111.988259 113.998225,110.911741 113.998225,109.582252 C113.998225,108.258323 115.072434,107.179025 116.399071,107.179025 L116.496159,107.179025 C117.820022,107.179025 118.890763,108.258323 118.890763,109.582252" id="Fill-26" fill="#EBEBEC"></path>
                            </g>
                        </g>
                        <use id="Rectangle-7" stroke="#ECEEF2" mask="url(#mask-12)" stroke-width="4" stroke-dasharray="4,5" xlink:href="#path-11"></use>
                        <text id="5" font-family="LucidaGrande-Bold, Lucida Grande" font-size="11.9772" font-weight="bold" fill="#FFFFFF">
                            <tspan x="423.3115" y="79.2630398">5</tspan>
                        </text>
                    </g>
                </g>
            </g>
        </g>
    </g>
</svg>