<?xml version="1.0" encoding="UTF-8"?>
<svg width="592px" height="376px" viewBox="0 0 592 376" version="1.1" xmlns="http://www.w3.org/2000/svg" xmlns:xlink="http://www.w3.org/1999/xlink">
    <!-- Generator: Sketch 46.2 (44496) - http://www.bohemiancoding.com/sketch -->
    <title>guaranteed</title>
    <desc>Created with Sketch.</desc>
    <defs>
        <rect id="path-1" x="0" y="0" width="592" height="376"></rect>
        <rect id="path-3" x="340" y="149" width="95" height="80" rx="8"></rect>
        <mask id="mask-4" maskContentUnits="userSpaceOnUse" maskUnits="objectBoundingBox" x="0" y="0" width="95" height="80" fill="white">
            <use xlink:href="#path-3"></use>
        </mask>
        <rect id="path-5" x="74" y="151" width="95" height="46" rx="8"></rect>
        <mask id="mask-6" maskContentUnits="userSpaceOnUse" maskUnits="objectBoundingBox" x="0" y="0" width="95" height="46" fill="white">
            <use xlink:href="#path-5"></use>
        </mask>
        <rect id="path-7" x="74" y="207" width="95" height="22" rx="8"></rect>
        <mask id="mask-8" maskContentUnits="userSpaceOnUse" maskUnits="objectBoundingBox" x="0" y="0" width="95" height="22" fill="white">
            <use xlink:href="#path-7"></use>
        </mask>
        <path d="M55.708,111.416 C24.941,111.416 0,86.475 0,55.708 C0,24.941 24.941,0 55.708,0 C86.476,0 111.417,24.941 111.417,55.708 C111.417,86.475 86.476,111.416 55.708,111.416 Z" id="path-9"></path>
    </defs>
    <g id="Page-1" stroke="none" stroke-width="1" fill="none" fill-rule="evenodd">
        <g id="guaranteed">
            <mask id="mask-2" fill="white">
                <use xlink:href="#path-1"></use>
            </mask>
            <use id="Mask" fill="#F4F8FC" xlink:href="#path-1"></use>
            <g id="Group-8" mask="url(#mask-2)">
                <g transform="translate(39.000000, 50.000000)" id="profile">
                    <g>
                        <g id="Group-13" transform="translate(0.000000, 47.243000)">
                            <path d="M482.7309,286.0459 C482.7309,292.5779 477.4349,297.8739 470.9009,297.8739 L39.1789,297.8739 C32.6459,297.8739 27.3499,292.5779 27.3499,286.0459 L27.3499,12.7639 C27.3499,6.2319 32.6459,0.9359 39.1789,0.9359 L470.9009,0.9359 C477.4349,0.9359 482.7309,6.2319 482.7309,12.7639 L482.7309,286.0459 Z" id="Fill-1" fill="#F9F8F7"></path>
                            <polygon id="Fill-5" fill="#FFFFFF" points="45.094 265.401 464.989 265.401 464.989 18.777 45.094 18.777"></polygon>
                            <path d="M310.7495,101.5 C310.7495,132.267 285.8085,157.208 255.0405,157.208 C224.2735,157.208 199.3325,132.267 199.3325,101.5 C199.3325,70.733 224.2735,45.792 255.0405,45.792 C285.8085,45.792 310.7495,70.733 310.7495,101.5" id="Fill-12" fill="#F9F8F7"></path>
                        </g>
                        <g id="Group-60" transform="translate(74.000000, 246.243000)" fill="#F9F8F7">
                            <polygon id="Fill-48" points="0.407 8.117 361.674 8.117 361.674 0.367 0.407 0.367"></polygon>
                            <polygon id="Fill-50" points="0.408 19.178 168.111 19.178 168.111 15.116 0.408 15.116"></polygon>
                            <polygon id="Fill-51" points="193.971 19.178 361.674 19.178 361.674 15.116 193.971 15.116"></polygon>
                            <polygon id="Fill-52" points="0.408 28.396 168.111 28.396 168.111 24.333 0.408 24.333"></polygon>
                            <polygon id="Fill-53" points="193.971 28.396 361.674 28.396 361.674 24.333 193.971 24.333"></polygon>
                            <polygon id="Fill-54" points="0.408 46.83 168.111 46.83 168.111 42.767 0.408 42.767"></polygon>
                            <polygon id="Fill-55" points="193.971 46.83 361.674 46.83 361.674 42.767 193.971 42.767"></polygon>
                            <polygon id="Fill-56" points="0.408 37.612 168.111 37.612 168.111 33.55 0.408 33.55"></polygon>
                            <polygon id="Fill-57" points="193.971 37.612 361.674 37.612 361.674 33.55 193.971 33.55"></polygon>
                            <polygon id="Fill-58" points="0.408 56.047 168.111 56.047 168.111 51.985 0.408 51.985"></polygon>
                            <polygon id="Fill-59" points="193.971 56.047 361.674 56.047 361.674 51.985 193.971 51.985"></polygon>
                        </g>
                        <g id="Group-78" transform="translate(72.000000, 88.243000)">
                            <path d="M37.0756,27.9532 C37.0756,38.1872 28.7786,46.4852 18.5436,46.4852 C8.3076,46.4852 0.0116,38.1872 0.0116,27.9532 C0.0116,17.7182 8.3076,9.4202 18.5436,9.4202 C28.7786,9.4202 37.0756,17.7182 37.0756,27.9532 Z" id="Fill-61" fill="#898AEA"></path>
                            <path d="M92.2543,33.2246 L18.5433,33.2246 L18.5433,22.6806 L92.2543,22.6806 C95.1663,22.6806 97.5263,25.0406 97.5263,27.9536 C97.5263,30.8646 95.1663,33.2246 92.2543,33.2246" id="Fill-63" fill="#898AEA"></path>
                            <polygon id="Fill-73" fill="#F9F8F7" points="304.021 37.786 358.671 37.786 358.671 1.299 304.021 1.299"></polygon>
                            <polygon id="Fill-75" fill="#EBE9E7" points="358.6713 37.7862 338.2753 1.2992 324.4173 1.2992 304.0213 37.7862"></polygon>
                            <polygon id="Fill-76" fill="#FFFFFF" opacity="0.944123641" points="358.6713 0.2989 331.3463 21.4239 304.0213 0.2989"></polygon>
                            <path d="M343.0543,34.1366 C343.0543,40.3916 348.1243,45.4636 354.3803,45.4636 C360.6353,45.4636 365.7063,40.3916 365.7063,34.1366 C365.7063,27.8806 360.6353,22.8096 354.3803,22.8096 C348.1243,22.8096 343.0543,27.8806 343.0543,34.1366 Z" id="Fill-77" fill="#FFC40D"></path>
                        </g>
                        <use id="Rectangle-7" stroke="#ECEEF2" mask="url(#mask-4)" stroke-width="4" stroke-dasharray="4,5" xlink:href="#path-3"></use>
                        <use id="Rectangle-7" stroke="#ECEEF2" mask="url(#mask-6)" stroke-width="4" stroke-dasharray="4,5" xlink:href="#path-5"></use>
                        <use id="Rectangle-7" stroke="#ECEEF2" mask="url(#mask-8)" stroke-width="4" stroke-dasharray="4,5" xlink:href="#path-7"></use>
                        <text id="5" font-family="LucidaGrande-Bold, Lucida Grande" font-size="11.9772" font-weight="bold" fill="#FFFFFF">
                            <tspan x="423.3115" y="126.26304">5</tspan>
                        </text>
                        <g id="Group-4" transform="translate(200.000000, 95.000000)">
                            <mask id="mask-10" fill="white">
                                <use xlink:href="#path-9"></use>
                            </mask>
                            <use id="Mask" fill="#F9F8F7" xlink:href="#path-9"></use>
                            <g mask="url(#mask-10)">
                                <g transform="translate(21.000000, 17.000000)">
                                    <path d="M3.59782713,41.9597396 C3.59782713,41.9597396 -6.23279227,11.5000154 12.352865,14.4388581 C30.9390671,17.3777008 40.7909366,12.0875699 49.9889571,10.4768786 C64.2385058,7.98057464 72.1816812,14.7759795 65.7309161,43 L3.59782713,41.9597396 Z" id="Fill-21" fill="#603141"></path>
                                    <path d="M67.3784337,47.8339191 L3.64172237,47.9999871 C1.63592261,48.0051127 0.00546127081,46.4792347 1.36886456e-05,44.5925176 C-0.00543389352,42.705288 1.61576656,41.1712091 3.62156631,41.1660836 L67.3582776,41.0000156 C69.3640774,40.9943775 70.9945387,42.5202554 70.9999863,44.4074851 C71.0054339,46.2947147 69.3842334,47.8287936 67.3784337,47.8339191" id="Fill-22" fill="#F59784"></path>
                                    <path d="M22.7740442,146.999761 C16.1138586,147.04079 10.5954038,141.793444 10.2349994,135.078245 L5.03480263,38.1805038 C4.38693938,27.3586634 12.8664373,18.2060403 23.6023798,18.1401786 L46.164123,18.0003574 C56.8995251,17.9344956 65.4919534,26.981308 64.9780935,37.8101664 L60.9774434,134.765132 C60.6997105,141.48411 55.2466363,146.798937 48.5869911,146.839965 L22.7740442,146.999761 Z" id="Fill-23" fill="#FFA897"></path>
                                    <polygon id="Fill-26" fill="#F3F0F7" points="10.3039621 133 61.4575297 132.661254 64 72 29.4151262 79.8643665 7 72.3777503"></polygon>
                                    <polygon id="Fill-27" fill="#DDDAE0" points="9 112.730535 10.1003179 133 61.1234297 132.660847 62 111.668142 50.4756463 89 47.2716679 108.872003 17.655184 109.406945"></polygon>
                                    <polygon id="Fill-28" fill="#7785D4" points="29.3711652 80 23 83.3871875 27.700509 87 31.142523 86.9842456 35 83.827747"></polygon>
                                    <polygon id="Fill-29" fill="#FBF7FF" points="7 72.3986692 17.9476673 87 29.4156693 80.2998759 39.1982867 87 64 72 29.4156693 80.2998759"></polygon>
                                    <polygon id="Fill-30" fill="#7785D4" points="26.7737569 86.0149542 23 116.501142 28.4678729 122 34 116.936949 30.0413164 86"></polygon>
                                    <polygon id="Fill-31" fill="#6B78BF" points="34 117.075254 32.9374555 109 23.9528423 109.163136 23 116.651307 28.4678729 122"></polygon>
                                    <path d="M17.416745,26.8085683 C-0.77912364,23.3646824 1.39035072,2.18403628 21.5177445,0.236028223 C24.9081189,-0.0921136003 17.8190566,4.65258201 19.3214135,5.23671721 C23.1452531,2.12043876 31.0867432,-1.70236004 40.6304967,0.818560123 C42.7301439,1.37276708 34.2021062,5.04111475 36.4967322,4.56707274 C46.5303497,2.49667954 51.5117078,5.68724417 50.9584623,6.84856694 C50.4057539,8.00935528 42.9960241,9.13914651 50.0603783,17.3421577 C54.0877907,22.0184458 41.0945783,31.2903229 17.416745,26.8085683" id="Fill-32" fill="#603141"></path>
                                    <path d="M30.6450835,66.9983865 C25.398607,67.0990154 21.0607474,62.4712202 21.0006143,59.1714999 C20.9415845,55.8712111 25.1442825,56.1821944 30.3907591,56.0815654 C35.6372356,55.9809364 39.9397877,55.5067864 39.9993691,58.8065067 C40.0589505,62.1067956 35.8910084,66.897189 30.6450835,66.9983865 Z" id="Fill-33" fill="#BA3C43"></path>
                                    <path d="M25,64.5830796 C26.7750775,66.0177836 29.1431703,67.0458394 31.7329352,66.998425 C35.2774208,66.9331605 38.3332073,64.8776067 40,62.5576479 C34.7552725,58.9597315 28.1810794,62.432697 25,64.5830796" id="Fill-34" fill="#F7636C"></path>
                                    <path d="M15.9930987,47.3624909 C15.8908839,45.4310505 14.6925039,43.9270846 13.3149543,44.0027332 C11.9385796,44.0789821 10.9052706,45.7060271 11.0068979,47.6374675 C11.1091127,49.5689079 12.3080801,51.0734742 13.6844548,50.9972253 C15.0620044,50.9215767 16.094726,49.2939313 15.9930987,47.3624909" id="Fill-35" fill="#603141"></path>
                                    <path d="M17.6719907,41.460667 C14.3826142,38.8992461 10.7832329,40.2663221 9.3399405,41.3475963 C8.97737429,41.6191933 8.89102347,42.1510234 9.14793058,42.535691 C9.40376502,42.9197905 9.9063161,43.0112698 10.2694186,42.7391047 C10.3015991,42.7152405 13.5319781,40.3521195 16.7189136,42.8339932 C16.8749887,42.9555868 17.0589535,43.0089971 17.2380912,42.9987696 C17.470863,42.9851329 17.6950534,42.8663802 17.8436197,42.6521709 C18.1069629,42.2731852 18.0297299,41.7396505 17.6719907,41.460667" id="Fill-36" fill="#603141"></path>
                                    <path d="M15.995975,59.8227284 C15.8977938,57.6158331 14.029624,55.9058438 11.822729,56.004025 C9.61528858,56.1022062 7.90584497,57.9703763 8.00402616,60.1772716 C8.1016619,62.3841669 9.97037722,64.0941562 12.1772722,63.995975 C14.3841672,63.8983393 16.0941562,62.0296237 15.995975,59.8227284" id="Fill-37" fill="#F7636C"></path>
                                    <path d="M46.0069752,47.3624909 C46.1086115,45.4310505 47.3076838,43.9270846 48.6847664,44.0027332 C50.061849,44.0789821 51.0952485,45.7060271 50.9930248,47.6374675 C50.890801,49.5689079 49.6923162,51.0734742 48.3152336,50.9972253 C46.938151,50.9215767 45.9047515,49.2939313 46.0069752,47.3624909" id="Fill-38" fill="#603141"></path>
                                    <path d="M43.3283588,41.460667 C46.6177597,38.8992461 50.2166315,40.2663221 51.6599345,41.3475963 C52.0225034,41.6191933 52.1088549,42.1510234 51.8524822,42.535691 C51.5966459,42.9197905 51.0940911,43.0112698 50.7309858,42.7391047 C50.6988052,42.7152405 47.4678658,40.3521195 44.2809067,42.8339932 C44.1253668,42.9555868 43.9414006,43.0089971 43.7617252,42.9987696 C43.529488,42.9851329 43.3047597,42.8663802 43.1561922,42.6521709 C42.8928471,42.2731852 42.970617,41.7396505 43.3283588,41.460667" id="Fill-39" fill="#603141"></path>
                                    <path d="M46.004025,59.8227284 C46.1022062,57.6158331 47.9703763,55.9058438 50.1772716,56.004025 C52.3841669,56.1022062 54.0941562,57.9703763 53.995975,60.1772716 C53.8983393,62.3841669 52.0296237,64.0941562 49.8221829,63.995975 C47.6158331,63.8983393 45.9058438,62.0296237 46.004025,59.8227284" id="Fill-40" fill="#F7636C"></path>
                                    <path d="M64.359577,49 L64.7571024,38.3630352 C66.6542092,25.8861687 57.1501348,17.9339693 46.3155227,18.0004132 L42,18.5638358 L47.7507584,21.9249243 C47.7507584,21.9249243 61.3375114,28.9922856 61.3740467,49 L64.359577,49 Z" id="Fill-41" fill="#603141"></path>
                                    <path d="M21,113.024722 C21,113.024722 4,112.137042 4,121 L21,121 L21,113.024722 Z" id="Fill-49" fill="#FFA897"></path>
                                    <path d="M21,125.686701 L21.3009226,112.836611 C32.8088013,113.106531 45.5856951,113.216855 52.1497694,113.041729 C52.0501758,107.779908 51.2732387,98.3220194 50.2869409,89.1024525 C49.9126618,85.6074252 52.4196359,82.4631861 55.9086243,82.0465249 C59.4640083,81.6218303 62.6783112,84.1796375 63.0568739,87.7373246 C63.4091996,91.04705 63.8343464,95.2779288 64.1979166,99.5741453 C64.6567967,105.001452 64.9186315,109.402102 64.9769955,112.653452 C65.0615965,117.394714 65.1574419,122.769001 60.4385263,124.866767 C59.4163533,125.320917 57.8887162,126 43.0733665,126 C37.6813909,126 30.5293931,125.910027 21,125.686701 Z" id="Fill-50" fill="#F3F0F7"></path>
                                </g>
                            </g>
                        </g>
                        <path d="M310.0727,-0.0001 L201.3157,-0.0001 C191.2177,-0.0001 183.0247,8.1909 183.0247,18.2899 L183.0247,55.0309 C183.0247,65.1349 191.2177,73.3219 201.3157,73.3219 L243.8017,73.3219 L256.2987,100.2009 L268.3057,73.3219 L310.0727,73.3219 C320.1757,73.3219 328.3627,65.1349 328.3627,55.0309 L328.3627,18.2899 C328.3627,8.1909 320.1757,-0.0001 310.0727,-0.0001" id="Fill-79" fill="#898AEA"></path>
                        <polygon id="Fill-51" fill="#F9F8F7" opacity="0.179121377" points="204 27.062 305.745625 27.062 305.745625 23 204 23"></polygon>
                        <polygon id="Fill-53" fill="#F9F8F7" opacity="0.179121377" points="204 37.063 305.745625 37.063 305.745625 33 204 33"></polygon>
                        <polygon id="Fill-57" fill="#F9F8F7" opacity="0.179121377" points="204 46.062 305.745625 46.062 305.745625 42 204 42"></polygon>
                    </g>
                </g>
            </g>
        </g>
    </g>
</svg>