<?xml version="1.0" encoding="UTF-8"?>
<svg width="592px" height="376px" viewBox="0 0 592 376" version="1.1" xmlns="http://www.w3.org/2000/svg" xmlns:xlink="http://www.w3.org/1999/xlink">
    <!-- Generator: Sketch 46.2 (44496) - http://www.bohemiancoding.com/sketch -->
    <title>guaranteed</title>
    <desc>Created with Sketch.</desc>
    <defs>
        <rect id="path-1" x="0" y="0" width="592" height="376"></rect>
        <rect id="path-3" x="340" y="198" width="95" height="80" rx="8"></rect>
        <mask id="mask-4" maskContentUnits="userSpaceOnUse" maskUnits="objectBoundingBox" x="0" y="0" width="95" height="80" fill="white">
            <use xlink:href="#path-3"></use>
        </mask>
        <rect id="path-5" x="74" y="200" width="95" height="46" rx="8"></rect>
        <mask id="mask-6" maskContentUnits="userSpaceOnUse" maskUnits="objectBoundingBox" x="0" y="0" width="95" height="46" fill="white">
            <use xlink:href="#path-5"></use>
        </mask>
        <rect id="path-7" x="74" y="256" width="95" height="22" rx="8"></rect>
        <mask id="mask-8" maskContentUnits="userSpaceOnUse" maskUnits="objectBoundingBox" x="0" y="0" width="95" height="22" fill="white">
            <use xlink:href="#path-7"></use>
        </mask>
        <path d="M55.708,111.416 C24.941,111.416 0,86.475 0,55.708 C0,24.941 24.941,0 55.708,0 C86.476,0 111.417,24.941 111.417,55.708 C111.417,86.475 86.476,111.416 55.708,111.416 Z" id="path-9"></path>
    </defs>
    <g id="Page-1" stroke="none" stroke-width="1" fill="none" fill-rule="evenodd">
        <g id="Satisfaction-Guaranteed" transform="translate(-40.000000, -51.000000)">
            <g id="guaranteed" transform="translate(40.000000, 51.000000)">
                <mask id="mask-2" fill="white">
                    <use xlink:href="#path-1"></use>
                </mask>
                <use id="Mask" fill="#F4F8FC" xlink:href="#path-1"></use>
                <g id="Group-8" mask="url(#mask-2)">
                    <g transform="translate(39.000000, 1.000000)" id="profile">
                        <g>
                            <g id="Group-13" transform="translate(0.000000, 96.243000)">
                                <path d="M482.7309,286.0459 C482.7309,292.5779 477.4349,297.8739 470.9009,297.8739 L39.1789,297.8739 C32.6459,297.8739 27.3499,292.5779 27.3499,286.0459 L27.3499,12.7639 C27.3499,6.2319 32.6459,0.9359 39.1789,0.9359 L470.9009,0.9359 C477.4349,0.9359 482.7309,6.2319 482.7309,12.7639 L482.7309,286.0459 Z" id="Fill-1" fill="#F9F8F7"></path>
                                <polygon id="Fill-5" fill="#FFFFFF" points="45.094 265.401 464.989 265.401 464.989 18.777 45.094 18.777"></polygon>
                                <path d="M310.7495,101.5 C310.7495,132.267 285.8085,157.208 255.0405,157.208 C224.2735,157.208 199.3325,132.267 199.3325,101.5 C199.3325,70.733 224.2735,45.792 255.0405,45.792 C285.8085,45.792 310.7495,70.733 310.7495,101.5" id="Fill-12" fill="#F9F8F7"></path>
                            </g>
                            <g id="Group-60" transform="translate(74.000000, 295.243000)" fill="#F9F8F7">
                                <polygon id="Fill-48" points="0.407 8.117 361.674 8.117 361.674 0.367 0.407 0.367"></polygon>
                                <polygon id="Fill-50" points="0.408 19.178 168.111 19.178 168.111 15.116 0.408 15.116"></polygon>
                                <polygon id="Fill-51" points="193.971 19.178 361.674 19.178 361.674 15.116 193.971 15.116"></polygon>
                                <polygon id="Fill-52" points="0.408 28.396 168.111 28.396 168.111 24.333 0.408 24.333"></polygon>
                                <polygon id="Fill-53" points="193.971 28.396 361.674 28.396 361.674 24.333 193.971 24.333"></polygon>
                                <polygon id="Fill-54" points="0.408 46.83 168.111 46.83 168.111 42.767 0.408 42.767"></polygon>
                                <polygon id="Fill-55" points="193.971 46.83 361.674 46.83 361.674 42.767 193.971 42.767"></polygon>
                                <polygon id="Fill-56" points="0.408 37.612 168.111 37.612 168.111 33.55 0.408 33.55"></polygon>
                                <polygon id="Fill-57" points="193.971 37.612 361.674 37.612 361.674 33.55 193.971 33.55"></polygon>
                                <polygon id="Fill-58" points="0.408 56.047 168.111 56.047 168.111 51.985 0.408 51.985"></polygon>
                                <polygon id="Fill-59" points="193.971 56.047 361.674 56.047 361.674 51.985 193.971 51.985"></polygon>
                            </g>
                            <g id="Group-78" transform="translate(72.000000, 137.243000)">
                                <path d="M37.0756,27.9532 C37.0756,38.1872 28.7786,46.4852 18.5436,46.4852 C8.3076,46.4852 0.0116,38.1872 0.0116,27.9532 C0.0116,17.7182 8.3076,9.4202 18.5436,9.4202 C28.7786,9.4202 37.0756,17.7182 37.0756,27.9532 Z" id="Fill-61" fill="#898AEA"></path>
                                <path d="M92.2543,33.2246 L18.5433,33.2246 L18.5433,22.6806 L92.2543,22.6806 C95.1663,22.6806 97.5263,25.0406 97.5263,27.9536 C97.5263,30.8646 95.1663,33.2246 92.2543,33.2246" id="Fill-63" fill="#898AEA"></path>
                                <polygon id="Fill-73" fill="#F9F8F7" points="304.021 37.786 358.671 37.786 358.671 1.299 304.021 1.299"></polygon>
                                <polygon id="Fill-75" fill="#EBE9E7" points="358.6713 37.7862 338.2753 1.2992 324.4173 1.2992 304.0213 37.7862"></polygon>
                                <polygon id="Fill-76" fill="#FFFFFF" opacity="0.944123641" points="358.6713 0.2989 331.3463 21.4239 304.0213 0.2989"></polygon>
                                <path d="M343.0543,34.1366 C343.0543,40.3916 348.1243,45.4636 354.3803,45.4636 C360.6353,45.4636 365.7063,40.3916 365.7063,34.1366 C365.7063,27.8806 360.6353,22.8096 354.3803,22.8096 C348.1243,22.8096 343.0543,27.8806 343.0543,34.1366 Z" id="Fill-77" fill="#FFC40D"></path>
                            </g>
                            <use id="Rectangle-7" stroke="#ECEEF2" mask="url(#mask-4)" stroke-width="4" stroke-dasharray="4,5" xlink:href="#path-3"></use>
                            <use id="Rectangle-7" stroke="#ECEEF2" mask="url(#mask-6)" stroke-width="4" stroke-dasharray="4,5" xlink:href="#path-5"></use>
                            <use id="Rectangle-7" stroke="#ECEEF2" mask="url(#mask-8)" stroke-width="4" stroke-dasharray="4,5" xlink:href="#path-7"></use>
                            <text id="5" font-family="LucidaGrande-Bold, Lucida Grande" font-size="11.9772" font-weight="bold" fill="#FFFFFF">
                                <tspan x="423.3115" y="175.26304">5</tspan>
                            </text>
                            <g id="Group-4" transform="translate(200.000000, 144.000000)">
                                <mask id="mask-10" fill="white">
                                    <use xlink:href="#path-9"></use>
                                </mask>
                                <use id="Mask" fill="#F9F8F7" xlink:href="#path-9"></use>
                                <g id="user" mask="url(#mask-10)" fill-rule="nonzero" fill="#FFFFFF">
                                    <g transform="translate(32.000000, 26.000000)" id="Shape">
                                        <path d="M41.014,42.889 L31.461,38.113 C30.56,37.662 30,36.756 30,35.748 L30,32.367 C30.229,32.087 30.47,31.768 30.719,31.416 C31.958,29.666 32.951,27.718 33.673,25.617 C35.084,24.97 36,23.575 36,22 L36,18 C36,17.037 35.64,16.104 35,15.375 L35,10.056 C35.056,9.506 35.276,6.232 32.908,3.531 C30.854,1.188 27.521,0 23,0 C18.479,0 15.146,1.188 13.092,3.53 C10.724,6.231 10.944,9.506 11,10.056 L11,15.375 C10.36,16.104 10,17.037 10,18 L10,22 C10,23.217 10.553,24.352 11.497,25.109 C12.413,28.736 14.33,31.469 15,32.346 L15,35.655 C15,36.623 14.472,37.511 13.623,37.975 L4.702,42.841 C1.801,44.424 0,47.458 0,50.762 L0,54 C0,58.746 15.045,60 23,60 C30.955,60 46,58.746 46,54 L46,50.957 C46,47.519 44.089,44.427 41.014,42.889 Z"></path>
                                    </g>
                                </g>
                            </g>
                            <path d="M208.476621,0 C199.932369,0 193,6.93067665 193,15.4757753 L193,87.5635535 C193,96.1128828 199.932369,103.040175 208.476621,103.040175 L244.425435,103.040175 L254.999561,125.783388 L265.159081,103.040175 L300.499525,103.040175 C309.048008,103.040175 315.9753,96.1128828 315.9753,87.5635535 L315.9753,15.4757753 C315.9753,6.93067665 309.048008,0 300.499525,0 L208.476621,0 Z" id="Fill-79" fill="#FFFFFF"></path>
                            <g id="trophy" transform="translate(217.000000, 15.000000)" fill-rule="nonzero">
                                <polygon id="Shape" fill="#FF7058" points="45 62 31 62 33.3862927 56.8386947 35.4545247 52 40.5454753 52 42.6137073 56.8386947"></polygon>
                                <path d="M53.9679673,62 L22.1789061,62 C20.4304925,62 19,63.3764637 19,65.0588407 L19,75 L56.9879129,75 L56.9879129,65.0588407 C57.1468734,63.3764637 55.7163808,62 53.9679673,62 Z" id="Shape" fill="#FFD15C"></path>
                                <path d="M43,57.0464935 C41.7586668,57.6977143 40.5173336,58.3487792 39.2758518,58.8371948 L38.5000743,59 L37.7241482,58.6743896 C36.4828149,58.185974 35.2414817,57.5349091 34,56.8836883 L36.0172593,52 L40.8275555,52 L43,57.0464935 Z" id="Shape" fill="#F1543F"></path>
                                <g id="Group" fill="#F8B64C">
                                    <path d="M0,8.65300284 L0,15.1034943 C0,30.8363636 9.80793625,44.366571 23.5705976,50.0304943 C27.9999442,51.9184687 32.9039124,52.8623807 37.9660876,52.8623807 C43.0282629,52.8623807 47.9322311,51.9184687 52.3615777,50.0304943 C66.124239,44.3667216 75.9321753,30.8363636 75.9321753,15.1036449 L75.9321753,8.65300284 L0,8.65300284 Z M69.6043426,15.1034943 C69.6043426,22.6552415 66.9151235,29.5777642 62.3275697,35.0841932 C56.47451,42.0065653 47.7738725,46.569233 37.9660876,46.569233 C28.1583028,46.569233 19.4576653,42.1640597 13.6046056,35.0841932 C9.17525896,29.7349574 6.32783267,22.6552415 6.32783267,15.1034943 L6.32783267,14.9461506 L69.4461355,14.9461506 L69.4461355,15.1034943 L69.6043426,15.1034943 Z" id="Shape"></path>
                                    <path d="M62.6439841,0 L13.2880398,0 C12.180741,0 11.3897052,0.943911932 11.3897052,1.88797443 C11.3897052,2.98923011 12.1805896,3.93329261 13.2880398,3.93329261 L62.6439841,3.93329261 C63.7512829,3.93329261 64.5423187,2.98938068 64.5423187,2.04531818 C64.5421673,0.943911932 63.7512829,0 62.6439841,0 Z" id="Shape"></path>
                                </g>
                                <path d="M62,4 L62,21.0865613 C62,36.9074794 52.2627666,51.30453 37.5,57 C22.7372334,51.1463057 13,36.9074794 13,20.928337 L13,4 L62,4 Z" id="Shape" fill="#FFD15C"></path>
                                <polygon id="Shape" fill="#FFFFFF" points="38.0000761 11 41.3408373 21.2856337 52 21.2856337 43.409058 27.7142125 46.5908658 38 38.0000761 31.5714212 29.4091342 38 32.590942 27.7142125 24 21.2856337 34.6591627 21.2856337"></polygon>
                                <rect id="Rectangle-path" fill="#FFC952" x="13" y="4" width="49" height="2"></rect>
                            </g>
                        </g>
                    </g>
                </g>
            </g>
        </g>
    </g>
</svg>