<?xml version="1.0" encoding="UTF-8"?>
<svg width="417px" height="247px" viewBox="0 0 417 247" version="1.1" xmlns="http://www.w3.org/2000/svg" xmlns:xlink="http://www.w3.org/1999/xlink">
    <!-- Generator: Sketch 46.2 (44496) - http://www.bohemiancoding.com/sketch -->
    <title>team</title>
    <desc>Created with Sketch.</desc>
    <defs>
        <polygon id="path-1" points="0.335837866 0.197295532 54.7268067 0.197295532 54.7268067 33.1419485 0.335837866 33.1419485 0.335837866 0.197295532"></polygon>
        <polygon id="path-3" points="0 25.4797918 0 0.234327741 75.8085354 0.234327741 75.8085354 25.4797918 4.756495e-15 25.4797918"></polygon>
    </defs>
    <g id="Page-1" stroke="none" stroke-width="1" fill="none" fill-rule="evenodd">
        <g id="team">
            <g id="Page-1">
                <path d="M132.008499,50.0179134 C132.008499,50.0179134 122.301116,13.7218616 143.49056,18.1276769 C164.680005,22.5334923 176.268144,16.8220459 186.913772,15.4006175 C203.405289,13.1974035 212.173819,21.589958 203.30104,54.4237288 L132.008499,50.0179134 Z" id="Fill-5" fill="#603141"></path>
                <path d="M205.799518,61.1182633 L132.140021,57.9835315 C129.822118,57.8851009 128.021281,55.8845151 128.118193,53.5152848 L128.118193,53.5152848 C128.214491,51.1460545 130.171736,49.30534 132.489638,49.4037706 L206.148523,52.5378755 C208.467039,52.636933 210.267875,54.6375188 210.170964,57.0067491 C210.074666,59.3759794 208.117421,61.2166939 205.799518,61.1182633" id="Fill-7" fill="#F59784"></path>
                <path d="M91.489239,41.123791 L93.501946,31.1687535 C93.8382229,30.3451774 94.7702611,29.9364717 95.6075473,30.2453127 L96.8901061,30.7181292 C97.7354431,31.029436 98.1745229,31.9578084 97.8766422,32.805426 L95.4205203,45.5461973 L95.1003451,56.4561145 L90.8829497,64.4711864 L77.7229421,62.7451288 L77.0361446,56.5461161 L77.0448147,44.3398063 L78.006579,42.7549155 C79.0147904,41.0929685 80.8887755,40.1510342 82.830883,40.329188 L91.489239,41.123791 Z" id="Fill-9" fill="#FFA897"></path>
                <path d="M95.4578313,50.2427304 L94.7668773,50.8493935 L91.6819926,50.8403568 L91.6350528,40.9873538 L82.8842196,40.210801 C80.9215095,40.0366941 79.0282703,40.9572315 78.0093634,42.5808232 L77.0367704,44.1303141 L77.0361446,45.5165422 L80.0265237,52.8681897 L85.1310721,52.2705634 L83.6052152,56.4045473 L90.4778299,63.6338983 L91.7376945,62.4916608 L95.2838411,55.9713887 L95.4578313,50.2427304 Z" id="Fill-11" fill="#F38785"></path>
                <path d="M89.6160808,64.4711864 L98.7415051,56.0179519 C98.956257,55.8193921 99.1122733,55.5666795 99.1924228,55.2874923 L101.88814,48.213948 L102.142661,46.0117387 C102.277875,44.837227 101.415808,43.7325122 100.227025,43.5574185 L100.223354,43.5568168 C99.3924908,43.4346724 98.60262,43.9515298 98.3970456,44.7523878 L97.449323,48.4401858 L93.8083307,51.7055929 L88.7497314,52.4914086 C87.1357274,52.7417143 85.6844699,53.600937 84.7037085,54.8855591 L82.8975904,57.2520315 L89.6160808,64.4711864 Z" id="Fill-13" fill="#FFA897"></path>
                <path d="M88.4156286,50.6878843 C89.4795444,50.4723681 90.2876124,49.5595936 90.4128145,48.4313028 L91.2710843,40.7012435 L91.1434628,41.0289549 L82.6865719,40.2118949 C80.7903945,40.0287061 78.9601447,40.9972613 77.9754631,42.7055442 L77.0361446,44.335861 L79.9000681,50.4539858 C80.3942234,51.5093814 81.501083,52.0874719 82.6031038,51.8643493 L88.4156286,50.6878843 Z" id="Fill-15" fill="#FFA897"></path>
                <path d="M150.940414,84.9261383 C148.472135,81.5699148 143.730507,80.8339866 140.348462,83.2828092 C127.941273,92.2658938 114.300561,93.8457597 103.859263,87.5171428 C95.5578782,82.4834178 92.306195,72.7875934 93.5169673,62.7890987 L77.2327248,60.2847458 C75.7335562,75.6946931 82.8893499,92.4330948 95.9544999,100.355613 C98.0851887,101.647454 100.305655,102.728158 102.595608,103.600165 C117.092285,109.116576 134.36716,106.236937 149.284441,95.4372198 C152.666487,92.987787 153.408077,88.2823617 150.940414,84.9261383" id="Fill-17" fill="#DDDAE0"></path>
                <path d="M194.291933,104.661017 L188.403614,92.1946065 C189.718654,91.5913543 221.283885,77.5525226 279.674699,89.1242692 L276.908223,102.5959 C223.475413,92.0071416 194.577572,104.533036 194.291933,104.661017" id="Fill-19" fill="#DDDAE0"></path>
                <path d="M178.800295,174.982552 L148.913465,173.832506 C141.203172,173.535938 135.084666,167.125032 135.012755,159.267513 L133.978581,45.891313 C133.785397,33.2254609 144.071069,22.9812746 156.501265,23.4602044 L182.623142,24.4659571 C195.053338,24.9442729 204.533366,35.9492208 203.380966,48.5634959 L193.763211,161.529535 C193.096513,169.358196 186.510587,175.27912 178.800295,174.982552" id="Fill-21" fill="#FFA897"></path>
                <path d="M149.756827,56.0983051 C149.377464,56.0983051 149.018067,55.902932 148.863488,55.579363 C148.452564,54.715579 147.780144,53.6709771 146.910636,53.5965226 C145.875598,53.5187092 144.588081,54.7407704 144.119835,55.3509612 C143.823558,55.736669 143.223919,55.8407933 142.779504,55.5838414 C142.335732,55.3268895 142.215933,54.8051483 142.511566,54.4194405 C142.724757,54.1423355 144.662151,51.7088496 147.099351,51.9254953 C148.562702,52.0503325 149.756827,53.0635852 150.649523,54.937263 C150.853052,55.3655162 150.618607,55.8570278 150.125885,56.034487 C150.005442,56.0775922 149.879847,56.0983051 149.756827,56.0983051" id="Fill-23" fill="#603141"></path>
                <path d="M134.813253,148.2 L134.914046,159.196216 C134.985954,167.089339 141.156472,173.528676 148.932308,173.827204 L179.073199,174.982461 C186.849035,175.28099 193.490946,169.332621 194.163311,161.468488 L195.10241,150.47844 L134.813253,148.2 Z" id="Fill-25" fill="#4A3A4F"></path>
                <polygon id="Fill-27" fill="#DDDAE0" points="134.634739 156.855279 194.000506 159.084746 200.126506 87.8869004 167.781572 95.7206406 133.975904 85.4033898"></polygon>
                <polygon id="Fill-29" fill="#7785D4" points="167.222542 96.2881356 159.933735 99.6035149 164.399598 103.672923 168.249067 103.823729 173.331325 100.658568"></polygon>
                <polygon id="Fill-31" fill="#FBF7FF" points="133.975904 85.4033898 154.114889 103.20143 167.781572 95.6826087 178.715287 105.498305 200.126506 87.8777455 167.781572 95.6826087"></polygon>
                <polygon id="Fill-33" fill="#7785D4" points="164.67887 103.823729 159.096386 139.724485 165.476279 146.525424 172.493976 140.8317 168.666537 103.98199"></polygon>
                <path d="M177.516734,72.3836978 C177.422575,76.1398853 172.41435,81.3715828 166.403002,81.2134475 C160.392269,81.0546821 155.654209,75.5659358 155.748367,71.8097484 C155.843141,68.0535609 160.639665,68.6256203 166.651013,68.7843857 C172.661745,68.9425211 177.611507,68.6275104 177.516734,72.3836978" id="Fill-35" fill="#BA3C43"></path>
                <path d="M190.915437,55.653256 C190.8976,53.5725955 189.757772,51.8968746 188.37053,51.9119655 C186.983288,51.9264277 185.87338,53.6247849 185.891792,55.7054454 C185.909629,57.7867347 187.048882,59.4618268 188.436699,59.4473647 C189.823941,59.4329026 190.933849,57.7345453 190.915437,55.653256" id="Fill-37" fill="#603141"></path>
                <path d="M152.034503,46.1273407 C148.184495,43.2670611 143.761001,44.5281261 141.959609,45.5956295 C141.50689,45.8638172 141.376006,46.418849 141.666859,46.8368719 C141.95708,47.2543118 142.560284,47.3749962 143.013003,47.1068086 C143.053469,47.0834879 147.081783,44.7549196 150.811656,47.5265806 C150.994388,47.6624234 151.214424,47.7271383 151.431932,47.7253892 C151.7133,47.7230572 151.991507,47.6087859 152.181826,47.3907377 C152.519469,47.0041977 152.453711,46.4386715 152.034503,46.1273407" id="Fill-39" fill="#603141"></path>
                <path d="M194.739055,48.6391916 C190.889027,45.7789341 186.465509,47.0399893 184.664108,48.1074845 C184.212019,48.3756701 184.080502,48.9312807 184.371989,49.3487174 C184.661578,49.766154 185.264785,49.8874206 185.717507,49.619235 C185.757974,49.5959145 189.786941,47.266781 193.516834,50.0384207 C193.698934,50.1742625 193.918972,50.2395599 194.136481,50.2372278 C194.418483,50.2348958 194.69606,50.1206254 194.88638,49.9025789 C195.224656,49.5160418 195.158265,48.9511031 194.739055,48.6391916" id="Fill-41" fill="#603141"></path>
                <path d="M183.753824,239.464407 L192.590361,239.464407 L186.292876,167.23696 C186.05805,164.824535 183.909763,163.056116 181.490569,163.292353 C179.073211,163.527369 177.30468,165.673035 177.538894,168.085459 L183.753824,239.464407 Z" id="Fill-43" fill="#4A3A4F"></path>
                <path d="M168.307229,239.464407 L154.348117,167.579344 C153.831608,165.197702 151.49789,163.690761 149.138621,164.211285 C146.778135,164.733037 145.283971,167.086442 145.801088,169.468084 L159.350157,239.464407 L168.307229,239.464407 Z" id="Fill-45" fill="#4A3A4F"></path>
                <polygon id="Fill-47" fill="#603141" points="159.142494 238.627119 144.024096 246.162712 168.307229 246.162712 167.632562 239.098437"></polygon>
                <polygon id="Fill-49" fill="#603141" points="193.381603 238.627119 208.5 246.162712 184.216867 246.162712 184.891534 239.098437"></polygon>
                <path d="M176.680723,76.278932 C170.879545,70.9814314 162.834662,75.0362692 159.096386,77.4600329 C161.043893,79.5163288 163.881848,81.1289979 167.091903,81.2134076 C171.141188,81.320665 174.728279,78.9762338 176.680723,76.278932" id="Fill-51" fill="#F7636C"></path>
                <g id="Group-55" transform="translate(140.674699, 0.000000)">
                    <mask id="mask-2" fill="white">
                        <use xlink:href="#path-1"></use>
                    </mask>
                    <g id="Clip-54"></g>
                    <path d="M14.2683333,31.0641206 C-6.90002699,26.0964139 -3.24516434,1.44117079 20.4715292,0.203202219 C24.466579,-0.00505417565 15.9004947,5.17699821 17.6327473,5.93756031 C22.282381,2.49097787 31.8002525,-1.56941288 42.8655457,1.87108018 C45.3002786,2.62798866 35.1026469,6.47707834 37.8192316,6.04168851 C49.6993774,4.13876092 55.3769413,8.12729713 54.6677063,9.45660622 C53.9572433,10.7853064 45.2050999,11.723678 53.0637915,21.681013 C57.5445598,27.3575221 41.8142814,37.5285939 14.2683333,31.0641206" id="Fill-53" fill="#603141" mask="url(#mask-2)"></path>
                </g>
                <path d="M148.210843,68.2389831 C148.210843,65.695612 146.148842,63.6338983 143.605116,63.6338983 C141.062001,63.6338983 139,65.695612 139,68.2389831 C139,70.7823541 141.062001,72.8440678 143.605116,72.8440678 C146.148842,72.8440678 148.210843,70.7823541 148.210843,68.2389831" id="Fill-56" fill="#F7636C"></path>
                <path d="M194.26506,70.7508475 C194.26506,68.2074764 192.203059,66.1457627 189.659333,66.1457627 C187.116218,66.1457627 185.054217,68.2074764 185.054217,70.7508475 C185.054217,73.2942185 187.116218,75.3559322 189.659333,75.3559322 C192.203059,75.3559322 194.26506,73.2942185 194.26506,70.7508475" id="Fill-58" fill="#F7636C"></path>
                <path d="M214.154812,87.9152542 C214.154812,87.3000298 184.010634,15.3187733 225.013483,11.0122024 C235.891225,-10.7255219 308.688185,9.37139884 275.058355,69.6633915 L214.154812,87.9152542 Z" id="Fill-60" fill="#D95F56"></path>
                <path d="M211.790681,80.596577 C196.855179,94.8479373 211.931265,103.806267 210.894924,118.057627 C228.312419,111.746424 226.983713,77.3392803 211.790681,80.596577" id="Fill-62" fill="#D95F56"></path>
                <path d="M217.494715,82.8915254 L211.02274,82.4819697 C210.034548,82.4195174 209.281847,81.5254632 209.340564,80.4854679 L209.341189,80.4788939 C209.40053,79.4388985 210.249426,78.6460829 211.238244,78.7085352 L217.710843,79.1180909 L217.494715,82.8915254 Z" id="Fill-64" fill="#4A3A4F"></path>
                <path d="M209.392098,66.9795418 L280.795694,64.069325 C283.042899,63.977222 284.789233,62.1196113 284.695167,59.9193057 C284.601711,57.719598 282.703895,56.0103092 280.4573,56.1018142 L209.053093,59.0120309 C206.806498,59.104134 205.060165,60.9617446 205.154231,63.1620503 C205.247686,65.3617579 207.144892,67.0710467 209.392098,66.9795418" id="Fill-66" fill="#F59784"></path>
                <path d="M235.931155,176.657388 L265.097077,175.538636 C272.622249,175.249748 278.592532,169.016266 278.662181,161.376371 L279.672095,51.1321243 C279.86027,38.816658 269.822838,28.8552312 257.692264,29.3207643 L232.200034,30.2984451 C220.069459,30.7639782 210.81833,41.4644924 211.941882,53.7302774 L223.501822,138.961474 L221.329255,163.575233 C221.979314,171.188141 228.406594,176.946276 235.931155,176.657388" id="Fill-68" fill="#FFA897"></path>
                <path d="M249.89964,83.7288136 C245.687216,83.7288136 241.283012,82.4827192 238.894032,79.3810736 C238.484737,78.8495355 238.590125,78.0920937 239.129315,77.688608 C239.668505,77.2851223 240.437464,77.3890138 240.846146,77.9199479 C243.197138,80.9726678 248.801653,81.7971558 253.122528,81.0348819 C257.042686,80.3426743 259.812163,78.540277 260.529654,76.2135898 C260.726336,75.5757441 261.408902,75.2133318 262.058381,75.4090344 C262.705409,75.602925 263.071201,76.27822 262.874519,76.9160657 C261.883757,80.1294551 258.39924,82.5582217 253.554493,83.4129108 C252.39217,83.6176738 251.154483,83.7288136 249.89964,83.7288136" id="Fill-70" fill="#F7636C"></path>
                <path d="M265.439759,72.4254237 C265.439759,69.8820454 267.502104,67.820339 270.045495,67.820339 C272.588886,67.820339 274.650602,69.8820454 274.650602,72.4254237 C274.650602,74.968802 272.588886,77.0305085 270.045495,77.0305085 C267.502104,77.0305085 265.439759,74.968802 265.439759,72.4254237" id="Fill-72" fill="#F7636C"></path>
                <path d="M224.409639,76.6118644 C224.409639,74.0684861 226.471355,72.0067797 229.014746,72.0067797 C231.558765,72.0067797 233.620482,74.0684861 233.620482,76.6118644 C233.620482,79.1552427 231.558765,81.2169492 229.014746,81.2169492 C226.471355,81.2169492 224.409639,79.1552427 224.409639,76.6118644" id="Fill-74" fill="#F7636C"></path>
                <path d="M278.739621,161.364331 C278.669552,169.010242 272.66264,175.248632 265.09269,175.537747 L235.750836,176.65738 C228.180272,176.946495 221.714836,171.183826 221.060241,163.564924 L222.011095,152.848619 L278.837349,150.711864 L278.739621,161.364331 Z" id="Fill-76" fill="#4A3A4F"></path>
                <path d="M265.439983,59.0023346 C265.457715,56.921152 266.597331,55.2462587 267.984613,55.261115 C269.371894,55.2753255 270.481955,56.9741182 270.463632,59.0546549 C270.445899,61.1358375 269.306283,62.8107308 267.918411,62.7965204 C266.531721,62.781664 265.421659,61.0828713 265.439983,59.0023346" id="Fill-78" fill="#603141"></path>
                <path d="M225.247197,60.6769067 C225.265519,58.5963678 226.405004,56.9214725 227.792126,56.935683 C229.179248,56.9498934 230.289182,58.648688 230.270861,60.7298729 C230.252539,62.8104119 229.113645,64.4853071 227.725932,64.4710967 C226.339401,64.4568862 225.229467,62.7580916 225.247197,60.6769067" id="Fill-80" fill="#603141"></path>
                <path d="M263.31927,51.6873683 C267.082697,48.9940399 271.049746,50.6464078 272.621234,51.8968145 C273.015903,52.2109839 273.09316,52.8010705 272.792517,53.2149464 C272.493072,53.6281951 271.929516,53.709089 271.534248,53.3949197 C271.498914,53.3673279 267.979235,50.6313578 264.332592,53.2406568 C264.154722,53.3685821 263.947506,53.420003 263.747476,53.4011905 C263.488756,53.3773613 263.242612,53.2368943 263.083906,52.9948397 C262.804823,52.5659138 262.909629,51.9808439 263.31927,51.6873683" id="Fill-82" fill="#D95F56"></path>
                <path d="M222.191796,53.8193843 C225.576741,50.9819476 229.749497,51.9106235 231.482926,52.7994991 C231.917789,53.0222708 232.074388,53.5275147 231.831057,53.927177 C231.588931,54.3268393 231.037824,54.4700102 230.601756,54.2472385 C230.562607,54.2273383 226.689797,52.2948079 223.410256,55.0443521 C223.250043,55.1786784 223.050681,55.2499875 222.848909,55.2599376 C222.588112,55.2720988 222.323701,55.1814423 222.133373,54.9907321 C221.797288,54.6524287 221.823789,54.1283901 222.191796,53.8193843" id="Fill-84" fill="#D95F56"></path>
                <path d="M230.922267,239.464407 L223.572289,239.464407 L228.460496,168.824265 C228.688337,166.46483 230.771186,164.735273 233.117208,164.966494 C235.461404,165.195875 237.176906,167.294649 236.949675,169.654698 L230.922267,239.464407 Z" id="Fill-86" fill="#FFA897"></path>
                <path d="M246.180723,239.464407 L259.622703,169.975503 C260.120421,167.673775 262.367672,166.216299 264.639598,166.719802 C266.912126,167.223914 268.351113,169.498821 267.853396,171.801159 L253.601948,239.464407 L246.180723,239.464407 Z" id="Fill-88" fill="#FFA897"></path>
                <polygon id="Fill-90" fill="#4A3A4F" points="254.192266 239.464407 268.789157 247 245.343373 247 245.995015 239.935381"></polygon>
                <polygon id="Fill-92" fill="#4A3A4F" points="222.259541 239.464407 207.662651 247 231.108434 247 230.457397 239.935381"></polygon>
                <path d="M250.417809,100.542186 L278.837349,89.5898305 L278.229914,156.509191 C270.86629,158.12473 257.634454,155.659164 254.280144,152.903315 C254.280144,152.903315 241.47278,159.639835 221.334116,160.759322 L223.118608,138.823377 L216.873494,92.7645684 L250.417809,100.542186 Z" id="Fill-94" fill="#E9E6ED"></path>
                <path d="M232.132525,128.934622 C226.695268,129.150135 222.116077,124.844832 221.905217,119.319528 C221.693139,113.794223 225.929835,107.902299 231.366482,107.687406 L270.949001,105.50379 C274.091786,105.379312 276.945096,107.38705 278.837349,110.1689 L278.711809,123.986496 C276.992022,125.965127 274.516553,127.259443 271.715043,127.370296 L232.132525,128.934622 Z" id="Fill-96" fill="#D7D6DB"></path>
                <path d="M232.998242,127.260088 L272.690473,125.69576 C278.142799,125.480866 282.390628,120.827516 282.179184,115.301585 C281.966517,109.776892 277.374634,103.613711 271.922307,103.829224 L232.230077,106.012843 C226.778361,106.227737 222.529922,112.119669 222.742588,117.644981 C222.954032,123.170293 227.545916,127.474982 232.998242,127.260088" id="Fill-98" fill="#E9E6ED"></path>
                <polygon id="Fill-100" fill="#F7636C" points="250.614709 100.474576 257.903614 103.790237 253.437751 107.859458 249.587869 108.010169 244.506024 104.84522"></polygon>
                <polygon id="Fill-102" fill="#F7636C" points="253.869113 108.010169 260.415663 137.575588 254.325849 144.850847 247.018072 138.659137 250.062979 108.164962"></polygon>
                <polygon id="Fill-104" fill="#FBF7FF" points="278.837349 89.5898305 260.378889 107.941472 250.417809 100.391593 242.387592 108.847458 216.873494 92.7209163 250.417809 100.391593"></polygon>
                <path d="M231.027153,25.330674 L257.149328,24.2979169 C269.57948,23.8062149 279.865488,34.3275419 279.672013,47.3354069 L279.629767,47.8636667 C266.976752,49.6202677 253.857806,30.7454895 249.563397,29.7937688 C249.563397,29.7937688 230.482239,52.2280555 210.768614,56.0983051 L210.26962,50.0796771 C209.117343,37.1248209 218.597001,25.8223761 231.027153,25.330674" id="Fill-106" fill="#D95F56"></path>
                <path d="M231.434931,232.766102 L222.73494,232.766102 L228.32978,168.835824 C228.561119,166.469357 230.675963,164.734646 233.058022,164.966556 C235.438845,165.19662 237.18008,167.30165 236.949359,169.668732 L231.434931,232.766102 Z" id="Fill-108" fill="#4A3A4F"></path>
                <path d="M247.855422,232.766102 L260.260797,169.983605 C260.770421,167.676319 263.071433,166.215323 265.39771,166.720042 C267.724604,167.225372 269.198015,169.505772 268.688391,171.813669 L256.682335,232.766102 L247.855422,232.766102 Z" id="Fill-110" fill="#4A3A4F"></path>
                <path d="M223.560613,163.854642 L212.226179,159.434386 L208.5,156.078186 L213.029707,147.684307 L213.005675,147.67202 L213.042647,147.660962 L213.541155,146.736363 L215.286242,146.98579 L223.293798,144.013559 L223.643185,148.36808 L229.562429,152.592358 C231.056105,153.657643 231.538591,155.654898 230.695626,157.2817 L228.19261,162.113571 C227.323148,163.790749 225.32357,164.542101 223.560613,163.854642" id="Fill-112" fill="#FFA897"></path>
                <path d="M189.247923,129.203395 C189.569713,114.135958 200.450448,100.93763 218.354151,93.8987657 C218.475055,93.8512305 218.597199,93.8171027 218.718103,93.7762712 L220.222892,109.093572 C210.239946,114.000056 204.297053,121.445408 204.125307,129.510545 C203.977122,136.456167 208.301763,142.55347 215.694264,145.81999 C215.741386,145.840711 215.784787,145.866916 215.831289,145.888855 L209.43082,159.084746 C196.705526,153.39393 188.975734,141.961108 189.247923,129.203395" id="Fill-114" fill="#E9E6ED"></path>
                <path d="M280.167873,162.18975 L291.322714,157.514516 L294.746988,153.81998 L289.401416,145.874113 L289.424415,145.860578 L289.386498,145.851964 L288.797864,144.977088 L287.069255,145.389301 L278.745081,143.176271 L278.80786,147.550036 L274.485406,152.94695 C273.765619,153.84582 273.610846,155.067078 274.084488,156.114838 L276.119535,160.613497 C276.811352,162.142376 278.610199,162.842523 280.167873,162.18975" id="Fill-116" fill="#FFA897"></path>
                <path d="M311.288661,124.812458 C309.547884,109.769916 297.568214,97.5747162 279.243981,92.1910954 C279.120518,92.1543554 278.997054,92.1310868 278.87359,92.1016949 L278.837349,107.563684 C289.14688,111.547515 295.712572,118.44482 296.643771,126.496982 C297.447207,133.431027 293.756808,139.930929 286.774656,143.88353 C286.729816,143.908636 286.68989,143.93864 286.646278,143.96497 L294.205823,156.572881 C306.219276,149.701294 312.762855,137.548958 311.288661,124.812458" id="Fill-118" fill="#E9E6ED"></path>
                <path d="M295.571608,99.7972439 L293.211097,102.099988 C292.181907,103.103955 290.462132,103.272418 288.950262,102.516811 L282.375726,99.2305384 C281.032247,98.5591627 280.109441,97.2833012 280.001841,95.9504595 L279.68512,92.0262563 C279.569618,90.5887444 280.422514,89.3711018 281.829824,88.9654274 L282.080282,88.8929634 C283.068742,88.6080623 284.210396,88.7610418 285.206151,89.3122636 L294.208676,94.2924589 C295.088928,94.7792682 295.783768,95.5379722 296.146082,96.4087787 C296.662805,97.6480985 296.442742,98.9481147 295.571608,99.7972439" id="Fill-120" fill="#FFA897"></path>
                <polygon id="Fill-125" fill="#FFFFFF" points="89.5963855 237.789831 153.23494 237.789831 153.23494 212.170063 121.523456 212.170063 121.523456 199.977088 151.506584 199.977088 151.506584 174.357933 121.523456 174.357933 121.523456 162.936859 153.23494 162.936859 153.23494 137.315254 89.5963855 137.315254"></polygon>
                <polygon id="Fill-122" fill="#FFFFFF" points="-0.000121918072 163.233531 21.73848 163.233531 21.73848 238.256501 53.6950355 238.256501 53.6950355 163.233531 75.8085354 163.233531 75.8085354 137.553736 -0.000121918072 137.553736"></polygon>
                <polygon id="Fill-129" fill="#FFFFFF" points="400.088041 137.553613 369.298685 137.553613 349.101528 184.352327 330.008516 137.553613 299.451741 137.553613 281.033212 238.256379 313.169698 238.256379 320.830161 189.986494 341.62407 238.256379 355.802291 238.256379 377.578546 190.006757 384.243198 238.256379 416.441501 238.256379"></polygon>
                <path d="M227.06551,197.325669 L212.053229,197.325669 L219.609647,176.907045 L227.06551,197.325669 Z M203.361263,137.315254 L161.608434,237.789831 L195.627645,237.789831 L202.739532,221.126567 L236.171349,221.126567 L242.828895,237.789831 L277.162651,237.789831 L236.284168,137.315254 L203.361263,137.315254 Z" id="Fill-127" fill="#FFFFFF"></path>
                <g id="Group-134" transform="translate(0.000000, 137.315254)">
                    <mask id="mask-4" fill="white">
                        <use xlink:href="#path-3"></use>
                    </mask>
                    <g id="Clip-133"></g>
                </g>
            </g>
        </g>
    </g>
</svg>