<?xml version="1.0" encoding="UTF-8"?>
<svg width="775px" height="260px" viewBox="0 0 775 260" version="1.1" xmlns="http://www.w3.org/2000/svg" xmlns:xlink="http://www.w3.org/1999/xlink">
    <!-- Generator: Sketch 46.2 (44496) - http://www.bohemiancoding.com/sketch -->
    <title>bar-chart</title>
    <desc>Created with Sketch.</desc>
    <defs></defs>
    <g id="Page-1" stroke="none" stroke-width="1" fill="none" fill-rule="evenodd">
        <g id="Case-Study" transform="translate(-332.000000, -1701.000000)">
            <g id="bar-chart" transform="translate(332.000000, 1701.000000)">
                <g id="Group-6">
                    <rect id="Rectangle-3" fill="#12D4C4" x="0" y="0" width="130" height="260"></rect>
                    <rect id="Rectangle-3" fill="#898AEA" x="129" y="24" width="130" height="213"></rect>
                    <rect id="Rectangle-3" fill="#33FFEE" x="258" y="54" width="130" height="152"></rect>
                    <rect id="Rectangle-3" fill="#B18CFD" x="387" y="68" width="130" height="124"></rect>
                    <rect id="Rectangle-3" fill="#FFC40D" x="516" y="90" width="130" height="80"></rect>
                    <rect id="Rectangle-3" fill="#FF930D" x="645" y="98" width="130" height="65"></rect>
                </g>
                <path d="M31.2003333,141 L31.2003333,126.674 L28.0543333,126.674 L28.0543333,122.54 L35.8023333,122.54 L35.8023333,141 L31.2003333,141 Z M47.8316666,122.15 C49.1490065,122.15 50.2886618,122.383998 51.2506666,122.852 C52.2126714,123.320002 52.9709972,123.987329 53.5256666,124.854 C54.0803361,125.720671 54.4876653,126.704328 54.7476666,127.805 C55.0076679,128.905672 55.1376666,130.149326 55.1376666,131.536 C55.1376666,132.922674 55.0076679,134.166328 54.7476666,135.267 C54.4876653,136.367672 54.0803361,137.351329 53.5256666,138.218 C52.9709972,139.084671 52.2126714,139.751998 51.2506666,140.22 C50.2886618,140.688002 49.1490065,140.922 47.8316666,140.922 C46.5143267,140.922 45.3746714,140.688002 44.4126666,140.22 C43.4506618,139.751998 42.6923361,139.084671 42.1376666,138.218 C41.5829972,137.351329 41.1756679,136.367672 40.9156666,135.267 C40.6556653,134.166328 40.5256666,132.922674 40.5256666,131.536 C40.5256666,130.149326 40.6556653,128.905672 40.9156666,127.805 C41.1756679,126.704328 41.5829972,125.720671 42.1376666,124.854 C42.6923361,123.987329 43.4506618,123.320002 44.4126666,122.852 C45.3746714,122.383998 46.5143267,122.15 47.8316666,122.15 Z M47.8316666,126.31 C47.3289974,126.31 46.8913352,126.409666 46.5186666,126.609 C46.1459981,126.808334 45.860001,127.055332 45.6606666,127.35 C45.4613323,127.644668 45.3010006,128.034664 45.1796666,128.52 C45.0583327,129.005336 44.9803335,129.473331 44.9456666,129.924 C44.9109998,130.374669 44.8936666,130.911997 44.8936666,131.536 C44.8936666,132.160003 44.9109998,132.697331 44.9456666,133.148 C44.9803335,133.598669 45.0583327,134.066664 45.1796666,134.552 C45.3010006,135.037336 45.4613323,135.427332 45.6606666,135.722 C45.860001,136.016668 46.1459981,136.263666 46.5186666,136.463 C46.8913352,136.662334 47.3289974,136.762 47.8316666,136.762 C48.3343358,136.762 48.7719981,136.662334 49.1446666,136.463 C49.5173352,136.263666 49.8033323,136.016668 50.0026666,135.722 C50.202001,135.427332 50.3623327,135.037336 50.4836666,134.552 C50.6050006,134.066664 50.6829998,133.598669 50.7176666,133.148 C50.7523335,132.697331 50.7696666,132.160003 50.7696666,131.536 C50.7696666,130.911997 50.7523335,130.374669 50.7176666,129.924 C50.6829998,129.473331 50.6050006,129.005336 50.4836666,128.52 C50.3623327,128.034664 50.202001,127.644668 50.0026666,127.35 C49.8033323,127.055332 49.5173352,126.808334 49.1446666,126.609 C48.7719981,126.409666 48.3343358,126.31 47.8316666,126.31 Z M65.867,122.15 C67.1843399,122.15 68.3239952,122.383998 69.286,122.852 C70.2480048,123.320002 71.0063306,123.987329 71.561,124.854 C72.1156694,125.720671 72.5229987,126.704328 72.783,127.805 C73.0430013,128.905672 73.173,130.149326 73.173,131.536 C73.173,132.922674 73.0430013,134.166328 72.783,135.267 C72.5229987,136.367672 72.1156694,137.351329 71.561,138.218 C71.0063306,139.084671 70.2480048,139.751998 69.286,140.22 C68.3239952,140.688002 67.1843399,140.922 65.867,140.922 C64.5496601,140.922 63.4100048,140.688002 62.448,140.22 C61.4859952,139.751998 60.7276694,139.084671 60.173,138.218 C59.6183306,137.351329 59.2110013,136.367672 58.951,135.267 C58.6909987,134.166328 58.561,132.922674 58.561,131.536 C58.561,130.149326 58.6909987,128.905672 58.951,127.805 C59.2110013,126.704328 59.6183306,125.720671 60.173,124.854 C60.7276694,123.987329 61.4859952,123.320002 62.448,122.852 C63.4100048,122.383998 64.5496601,122.15 65.867,122.15 Z M65.867,126.31 C65.3643308,126.31 64.9266685,126.409666 64.554,126.609 C64.1813315,126.808334 63.8953343,127.055332 63.696,127.35 C63.4966657,127.644668 63.3363339,128.034664 63.215,128.52 C63.0936661,129.005336 63.0156668,129.473331 62.981,129.924 C62.9463332,130.374669 62.929,130.911997 62.929,131.536 C62.929,132.160003 62.9463332,132.697331 62.981,133.148 C63.0156668,133.598669 63.0936661,134.066664 63.215,134.552 C63.3363339,135.037336 63.4966657,135.427332 63.696,135.722 C63.8953343,136.016668 64.1813315,136.263666 64.554,136.463 C64.9266685,136.662334 65.3643308,136.762 65.867,136.762 C66.3696692,136.762 66.8073315,136.662334 67.18,136.463 C67.5526685,136.263666 67.8386657,136.016668 68.038,135.722 C68.2373343,135.427332 68.3976661,135.037336 68.519,134.552 C68.6403339,134.066664 68.7183332,133.598669 68.753,133.148 C68.7876668,132.697331 68.805,132.160003 68.805,131.536 C68.805,130.911997 68.7876668,130.374669 68.753,129.924 C68.7183332,129.473331 68.6403339,129.005336 68.519,128.52 C68.3976661,128.034664 68.2373343,127.644668 68.038,127.35 C67.8386657,127.055332 67.5526685,126.808334 67.18,126.609 C66.8073315,126.409666 66.3696692,126.31 65.867,126.31 Z M92.7423334,136.892 C92.7423334,135.730661 92.3220042,135.15 91.4813334,135.15 C90.6406625,135.15 90.2203334,135.730661 90.2203334,136.892 C90.2203334,138.053339 90.6406625,138.634 91.4813334,138.634 C92.3220042,138.634 92.7423334,138.053339 92.7423334,136.892 Z M87.1523334,136.892 C87.1523334,135.505326 87.5553293,134.43067 88.3613334,133.668 C89.1673374,132.90533 90.2116603,132.524 91.4943334,132.524 C92.7770065,132.524 93.8169961,132.90533 94.6143334,133.668 C95.4116707,134.43067 95.8103334,135.505326 95.8103334,136.892 C95.8103334,138.278674 95.4116707,139.35333 94.6143334,140.116 C93.8169961,140.87867 92.7770065,141.26 91.4943334,141.26 C90.2116603,141.26 89.1673374,140.87867 88.3613334,140.116 C87.5553293,139.35333 87.1523334,138.278674 87.1523334,136.892 Z M78.8583334,141 L88.8683334,122.696 L93.1583334,122.696 L83.1483334,141 L78.8583334,141 Z M81.7963334,126.804 C81.7963334,125.642661 81.3760042,125.062 80.5353334,125.062 C79.6946625,125.062 79.2743334,125.642661 79.2743334,126.804 C79.2743334,127.965339 79.6946625,128.546 80.5353334,128.546 C81.3760042,128.546 81.7963334,127.965339 81.7963334,126.804 Z M76.2063334,126.804 C76.2063334,125.417326 76.6093293,124.34267 77.4153334,123.58 C78.2213374,122.81733 79.2656603,122.436 80.5483334,122.436 C81.8310065,122.436 82.8709961,122.81733 83.6683334,123.58 C84.4656707,124.34267 84.8643334,125.417326 84.8643334,126.804 C84.8643334,128.190674 84.4656707,129.26533 83.6683334,130.028 C82.8709961,130.79067 81.8310065,131.172 80.5483334,131.172 C79.2656603,131.172 78.2213374,130.79067 77.4153334,130.028 C76.6093293,129.26533 76.2063334,128.190674 76.2063334,126.804 Z" id="100%" fill="#FFFFFF"></path>
                <path d="M171.244,140 L171.244,125.674 L168.098,125.674 L168.098,121.54 L175.846,121.54 L175.846,140 L171.244,140 Z M181.791333,120.994 L193.647333,120.994 L193.647333,124.894 L185.821333,124.894 L185.821333,128.222 C186.601337,127.528663 187.593661,127.182 188.798333,127.182 C190.003006,127.182 191.021329,127.376998 191.853333,127.767 C192.685337,128.157002 193.317998,128.672663 193.751333,129.314 C194.600671,130.57934 195.025333,131.939993 195.025333,133.396 C195.025333,135.42401 194.427339,137.031661 193.231333,138.219 C192.035327,139.406339 190.397344,140 188.317333,140 C186.237323,140 184.595006,139.501672 183.390333,138.505 C182.185661,137.508328 181.505334,136.221341 181.349333,134.644 L185.743333,134.644 C185.83,135.146669 186.098664,135.558332 186.549333,135.879 C187.000002,136.199668 187.606663,136.36 188.369333,136.36 C189.132004,136.36 189.716998,136.104336 190.124333,135.593 C190.531669,135.081664 190.735333,134.401338 190.735333,133.552 C190.735333,132.702662 190.523002,132.044002 190.098333,131.576 C189.673665,131.107998 189.106004,130.874 188.395333,130.874 C187.684663,130.874 187.143002,131.025665 186.770333,131.329 C186.397665,131.632335 186.168,132.009331 186.081333,132.46 L181.791333,132.46 L181.791333,120.994 Z M214.698667,135.892 C214.698667,134.730661 214.278338,134.15 213.437667,134.15 C212.596996,134.15 212.176667,134.730661 212.176667,135.892 C212.176667,137.053339 212.596996,137.634 213.437667,137.634 C214.278338,137.634 214.698667,137.053339 214.698667,135.892 Z M209.108667,135.892 C209.108667,134.505326 209.511663,133.43067 210.317667,132.668 C211.123671,131.90533 212.167994,131.524 213.450667,131.524 C214.73334,131.524 215.773329,131.90533 216.570667,132.668 C217.368004,133.43067 217.766667,134.505326 217.766667,135.892 C217.766667,137.278674 217.368004,138.35333 216.570667,139.116 C215.773329,139.87867 214.73334,140.26 213.450667,140.26 C212.167994,140.26 211.123671,139.87867 210.317667,139.116 C209.511663,138.35333 209.108667,137.278674 209.108667,135.892 Z M200.814667,140 L210.824667,121.696 L215.114667,121.696 L205.104667,140 L200.814667,140 Z M203.752667,125.804 C203.752667,124.642661 203.332338,124.062 202.491667,124.062 C201.650996,124.062 201.230667,124.642661 201.230667,125.804 C201.230667,126.965339 201.650996,127.546 202.491667,127.546 C203.332338,127.546 203.752667,126.965339 203.752667,125.804 Z M198.162667,125.804 C198.162667,124.417326 198.565663,123.34267 199.371667,122.58 C200.177671,121.81733 201.221994,121.436 202.504667,121.436 C203.78734,121.436 204.827329,121.81733 205.624667,122.58 C206.422004,123.34267 206.820667,124.417326 206.820667,125.804 C206.820667,127.190674 206.422004,128.26533 205.624667,129.028 C204.827329,129.79067 203.78734,130.172 202.504667,130.172 C201.221994,130.172 200.177671,129.79067 199.371667,129.028 C198.565663,128.26533 198.162667,127.190674 198.162667,125.804 Z" id="15%" fill="#FFFFFF"></path>
                <path d="M301.218,139 L301.218,124.674 L298.072,124.674 L298.072,120.54 L305.82,120.54 L305.82,139 L301.218,139 Z M317.849333,120.15 C319.166673,120.15 320.306329,120.383998 321.268333,120.852 C322.230338,121.320002 322.988664,121.987329 323.543333,122.854 C324.098003,123.720671 324.505332,124.704328 324.765333,125.805 C325.025335,126.905672 325.155333,128.149326 325.155333,129.536 C325.155333,130.922674 325.025335,132.166328 324.765333,133.267 C324.505332,134.367672 324.098003,135.351329 323.543333,136.218 C322.988664,137.084671 322.230338,137.751998 321.268333,138.22 C320.306329,138.688002 319.166673,138.922 317.849333,138.922 C316.531993,138.922 315.392338,138.688002 314.430333,138.22 C313.468329,137.751998 312.710003,137.084671 312.155333,136.218 C311.600664,135.351329 311.193335,134.367672 310.933333,133.267 C310.673332,132.166328 310.543333,130.922674 310.543333,129.536 C310.543333,128.149326 310.673332,126.905672 310.933333,125.805 C311.193335,124.704328 311.600664,123.720671 312.155333,122.854 C312.710003,121.987329 313.468329,121.320002 314.430333,120.852 C315.392338,120.383998 316.531993,120.15 317.849333,120.15 Z M317.849333,124.31 C317.346664,124.31 316.909002,124.409666 316.536333,124.609 C316.163665,124.808334 315.877668,125.055332 315.678333,125.35 C315.478999,125.644668 315.318667,126.034664 315.197333,126.52 C315.075999,127.005336 314.998,127.473331 314.963333,127.924 C314.928666,128.374669 314.911333,128.911997 314.911333,129.536 C314.911333,130.160003 314.928666,130.697331 314.963333,131.148 C314.998,131.598669 315.075999,132.066664 315.197333,132.552 C315.318667,133.037336 315.478999,133.427332 315.678333,133.722 C315.877668,134.016668 316.163665,134.263666 316.536333,134.463 C316.909002,134.662334 317.346664,134.762 317.849333,134.762 C318.352002,134.762 318.789665,134.662334 319.162333,134.463 C319.535002,134.263666 319.820999,134.016668 320.020333,133.722 C320.219668,133.427332 320.379999,133.037336 320.501333,132.552 C320.622667,132.066664 320.700666,131.598669 320.735333,131.148 C320.77,130.697331 320.787333,130.160003 320.787333,129.536 C320.787333,128.911997 320.77,128.374669 320.735333,127.924 C320.700666,127.473331 320.622667,127.005336 320.501333,126.52 C320.379999,126.034664 320.219668,125.644668 320.020333,125.35 C319.820999,125.055332 319.535002,124.808334 319.162333,124.609 C318.789665,124.409666 318.352002,124.31 317.849333,124.31 Z M344.724667,134.892 C344.724667,133.730661 344.304338,133.15 343.463667,133.15 C342.622996,133.15 342.202667,133.730661 342.202667,134.892 C342.202667,136.053339 342.622996,136.634 343.463667,136.634 C344.304338,136.634 344.724667,136.053339 344.724667,134.892 Z M339.134667,134.892 C339.134667,133.505326 339.537663,132.43067 340.343667,131.668 C341.149671,130.90533 342.193994,130.524 343.476667,130.524 C344.75934,130.524 345.799329,130.90533 346.596667,131.668 C347.394004,132.43067 347.792667,133.505326 347.792667,134.892 C347.792667,136.278674 347.394004,137.35333 346.596667,138.116 C345.799329,138.87867 344.75934,139.26 343.476667,139.26 C342.193994,139.26 341.149671,138.87867 340.343667,138.116 C339.537663,137.35333 339.134667,136.278674 339.134667,134.892 Z M330.840667,139 L340.850667,120.696 L345.140667,120.696 L335.130667,139 L330.840667,139 Z M333.778667,124.804 C333.778667,123.642661 333.358338,123.062 332.517667,123.062 C331.676996,123.062 331.256667,123.642661 331.256667,124.804 C331.256667,125.965339 331.676996,126.546 332.517667,126.546 C333.358338,126.546 333.778667,125.965339 333.778667,124.804 Z M328.188667,124.804 C328.188667,123.417326 328.591663,122.34267 329.397667,121.58 C330.203671,120.81733 331.247994,120.436 332.530667,120.436 C333.81334,120.436 334.853329,120.81733 335.650667,121.58 C336.448004,122.34267 336.846667,123.417326 336.846667,124.804 C336.846667,126.190674 336.448004,127.26533 335.650667,128.028 C334.853329,128.79067 333.81334,129.172 332.530667,129.172 C331.247994,129.172 330.203671,128.79067 329.397667,128.028 C328.591663,127.26533 328.188667,126.190674 328.188667,124.804 Z" id="10%" fill="#FFFFFF"></path>
                <path d="M439.235667,139 L439.235667,124.674 L436.089667,124.674 L436.089667,120.54 L443.837667,120.54 L443.837667,139 L439.235667,139 Z M464.707,134.892 C464.707,133.730661 464.286671,133.15 463.446,133.15 C462.605329,133.15 462.185,133.730661 462.185,134.892 C462.185,136.053339 462.605329,136.634 463.446,136.634 C464.286671,136.634 464.707,136.053339 464.707,134.892 Z M459.117,134.892 C459.117,133.505326 459.519996,132.43067 460.326,131.668 C461.132004,130.90533 462.176327,130.524 463.459,130.524 C464.741673,130.524 465.781663,130.90533 466.579,131.668 C467.376337,132.43067 467.775,133.505326 467.775,134.892 C467.775,136.278674 467.376337,137.35333 466.579,138.116 C465.781663,138.87867 464.741673,139.26 463.459,139.26 C462.176327,139.26 461.132004,138.87867 460.326,138.116 C459.519996,137.35333 459.117,136.278674 459.117,134.892 Z M450.823,139 L460.833,120.696 L465.123,120.696 L455.113,139 L450.823,139 Z M453.761,124.804 C453.761,123.642661 453.340671,123.062 452.5,123.062 C451.659329,123.062 451.239,123.642661 451.239,124.804 C451.239,125.965339 451.659329,126.546 452.5,126.546 C453.340671,126.546 453.761,125.965339 453.761,124.804 Z M448.171,124.804 C448.171,123.417326 448.573996,122.34267 449.38,121.58 C450.186004,120.81733 451.230327,120.436 452.513,120.436 C453.795673,120.436 454.835663,120.81733 455.633,121.58 C456.430337,122.34267 456.829,123.417326 456.829,124.804 C456.829,126.190674 456.430337,127.26533 455.633,128.028 C454.835663,128.79067 453.795673,129.172 452.513,129.172 C451.230327,129.172 450.186004,128.79067 449.38,128.028 C448.573996,127.26533 448.171,126.190674 448.171,124.804 Z" id="1%" fill="#FFFFFF"></path>
                <path d="M555.960333,119.15 C557.277673,119.15 558.417328,119.383998 559.379333,119.852 C560.341338,120.320002 561.099664,120.987329 561.654333,121.854 C562.209003,122.720671 562.616332,123.704328 562.876333,124.805 C563.136335,125.905672 563.266333,127.149326 563.266333,128.536 C563.266333,129.922674 563.136335,131.166328 562.876333,132.267 C562.616332,133.367672 562.209003,134.351329 561.654333,135.218 C561.099664,136.084671 560.341338,136.751998 559.379333,137.22 C558.417328,137.688002 557.277673,137.922 555.960333,137.922 C554.642993,137.922 553.503338,137.688002 552.541333,137.22 C551.579328,136.751998 550.821003,136.084671 550.266333,135.218 C549.711664,134.351329 549.304335,133.367672 549.044333,132.267 C548.784332,131.166328 548.654333,129.922674 548.654333,128.536 C548.654333,127.149326 548.784332,125.905672 549.044333,124.805 C549.304335,123.704328 549.711664,122.720671 550.266333,121.854 C550.821003,120.987329 551.579328,120.320002 552.541333,119.852 C553.503338,119.383998 554.642993,119.15 555.960333,119.15 Z M555.960333,123.31 C555.457664,123.31 555.020002,123.409666 554.647333,123.609 C554.274665,123.808334 553.988668,124.055332 553.789333,124.35 C553.589999,124.644668 553.429667,125.034664 553.308333,125.52 C553.186999,126.005336 553.109,126.473331 553.074333,126.924 C553.039666,127.374669 553.022333,127.911997 553.022333,128.536 C553.022333,129.160003 553.039666,129.697331 553.074333,130.148 C553.109,130.598669 553.186999,131.066664 553.308333,131.552 C553.429667,132.037336 553.589999,132.427332 553.789333,132.722 C553.988668,133.016668 554.274665,133.263666 554.647333,133.463 C555.020002,133.662334 555.457664,133.762 555.960333,133.762 C556.463002,133.762 556.900665,133.662334 557.273333,133.463 C557.646002,133.263666 557.931999,133.016668 558.131333,132.722 C558.330668,132.427332 558.490999,132.037336 558.612333,131.552 C558.733667,131.066664 558.811666,130.598669 558.846333,130.148 C558.881,129.697331 558.898333,129.160003 558.898333,128.536 C558.898333,127.911997 558.881,127.374669 558.846333,126.924 C558.811666,126.473331 558.733667,126.005336 558.612333,125.52 C558.490999,125.034664 558.330668,124.644668 558.131333,124.35 C557.931999,124.055332 557.646002,123.808334 557.273333,123.609 C556.900665,123.409666 556.463002,123.31 555.960333,123.31 Z M570.589667,137.298 C570.121664,137.766002 569.545337,138 568.860667,138 C568.175997,138 567.599669,137.766002 567.131667,137.298 C566.663664,136.829998 566.429667,136.25367 566.429667,135.569 C566.429667,134.88433 566.663664,134.308002 567.131667,133.84 C567.599669,133.371998 568.175997,133.138 568.860667,133.138 C569.545337,133.138 570.121664,133.371998 570.589667,133.84 C571.057669,134.308002 571.291667,134.88433 571.291667,135.569 C571.291667,136.25367 571.057669,136.829998 570.589667,137.298 Z M575.677,118.994 L587.533,118.994 L587.533,122.894 L579.707,122.894 L579.707,126.222 C580.487004,125.528663 581.479327,125.182 582.684,125.182 C583.888673,125.182 584.906996,125.376998 585.739,125.767 C586.571004,126.157002 587.203664,126.672663 587.637,127.314 C588.486338,128.57934 588.911,129.939993 588.911,131.396 C588.911,133.42401 588.313006,135.031661 587.117,136.219 C585.920994,137.406339 584.28301,138 582.203,138 C580.12299,138 578.480673,137.501672 577.276,136.505 C576.071327,135.508328 575.391001,134.221341 575.235,132.644 L579.629,132.644 C579.715667,133.146669 579.984331,133.558332 580.435,133.879 C580.885669,134.199668 581.49233,134.36 582.255,134.36 C583.01767,134.36 583.602665,134.104336 584.01,133.593 C584.417335,133.081664 584.621,132.401338 584.621,131.552 C584.621,130.702662 584.408669,130.044002 583.984,129.576 C583.559331,129.107998 582.99167,128.874 582.281,128.874 C581.57033,128.874 581.028669,129.025665 580.656,129.329 C580.283331,129.632335 580.053667,130.009331 579.967,130.46 L575.677,130.46 L575.677,118.994 Z M608.584333,133.892 C608.584333,132.730661 608.164004,132.15 607.323333,132.15 C606.482663,132.15 606.062333,132.730661 606.062333,133.892 C606.062333,135.053339 606.482663,135.634 607.323333,135.634 C608.164004,135.634 608.584333,135.053339 608.584333,133.892 Z M602.994333,133.892 C602.994333,132.505326 603.397329,131.43067 604.203333,130.668 C605.009337,129.90533 606.05366,129.524 607.336333,129.524 C608.619006,129.524 609.658996,129.90533 610.456333,130.668 C611.253671,131.43067 611.652333,132.505326 611.652333,133.892 C611.652333,135.278674 611.253671,136.35333 610.456333,137.116 C609.658996,137.87867 608.619006,138.26 607.336333,138.26 C606.05366,138.26 605.009337,137.87867 604.203333,137.116 C603.397329,136.35333 602.994333,135.278674 602.994333,133.892 Z M594.700333,138 L604.710333,119.696 L609.000333,119.696 L598.990333,138 L594.700333,138 Z M597.638333,123.804 C597.638333,122.642661 597.218004,122.062 596.377333,122.062 C595.536663,122.062 595.116333,122.642661 595.116333,123.804 C595.116333,124.965339 595.536663,125.546 596.377333,125.546 C597.218004,125.546 597.638333,124.965339 597.638333,123.804 Z M592.048333,123.804 C592.048333,122.417326 592.451329,121.34267 593.257333,120.58 C594.063337,119.81733 595.10766,119.436 596.390333,119.436 C597.673006,119.436 598.712996,119.81733 599.510333,120.58 C600.307671,121.34267 600.706333,122.417326 600.706333,123.804 C600.706333,125.190674 600.307671,126.26533 599.510333,127.028 C598.712996,127.79067 597.673006,128.172 596.390333,128.172 C595.10766,128.172 594.063337,127.79067 593.257333,127.028 C592.451329,126.26533 592.048333,125.190674 592.048333,123.804 Z" id="0.5%" fill="#FFFFFF"></path>
                <path d="M689.487333,119.15 C690.804673,119.15 691.944328,119.383998 692.906333,119.852 C693.868338,120.320002 694.626664,120.987329 695.181333,121.854 C695.736003,122.720671 696.143332,123.704328 696.403333,124.805 C696.663335,125.905672 696.793333,127.149326 696.793333,128.536 C696.793333,129.922674 696.663335,131.166328 696.403333,132.267 C696.143332,133.367672 695.736003,134.351329 695.181333,135.218 C694.626664,136.084671 693.868338,136.751998 692.906333,137.22 C691.944328,137.688002 690.804673,137.922 689.487333,137.922 C688.169993,137.922 687.030338,137.688002 686.068333,137.22 C685.106328,136.751998 684.348003,136.084671 683.793333,135.218 C683.238664,134.351329 682.831335,133.367672 682.571333,132.267 C682.311332,131.166328 682.181333,129.922674 682.181333,128.536 C682.181333,127.149326 682.311332,125.905672 682.571333,124.805 C682.831335,123.704328 683.238664,122.720671 683.793333,121.854 C684.348003,120.987329 685.106328,120.320002 686.068333,119.852 C687.030338,119.383998 688.169993,119.15 689.487333,119.15 Z M689.487333,123.31 C688.984664,123.31 688.547002,123.409666 688.174333,123.609 C687.801665,123.808334 687.515668,124.055332 687.316333,124.35 C687.116999,124.644668 686.956667,125.034664 686.835333,125.52 C686.713999,126.005336 686.636,126.473331 686.601333,126.924 C686.566666,127.374669 686.549333,127.911997 686.549333,128.536 C686.549333,129.160003 686.566666,129.697331 686.601333,130.148 C686.636,130.598669 686.713999,131.066664 686.835333,131.552 C686.956667,132.037336 687.116999,132.427332 687.316333,132.722 C687.515668,133.016668 687.801665,133.263666 688.174333,133.463 C688.547002,133.662334 688.984664,133.762 689.487333,133.762 C689.990002,133.762 690.427665,133.662334 690.800333,133.463 C691.173002,133.263666 691.458999,133.016668 691.658333,132.722 C691.857668,132.427332 692.017999,132.037336 692.139333,131.552 C692.260667,131.066664 692.338666,130.598669 692.373333,130.148 C692.408,129.697331 692.425333,129.160003 692.425333,128.536 C692.425333,127.911997 692.408,127.374669 692.373333,126.924 C692.338666,126.473331 692.260667,126.005336 692.139333,125.52 C692.017999,125.034664 691.857668,124.644668 691.658333,124.35 C691.458999,124.055332 691.173002,123.808334 690.800333,123.609 C690.427665,123.409666 689.990002,123.31 689.487333,123.31 Z M704.116667,137.298 C703.648664,137.766002 703.072337,138 702.387667,138 C701.702997,138 701.126669,137.766002 700.658667,137.298 C700.190664,136.829998 699.956667,136.25367 699.956667,135.569 C699.956667,134.88433 700.190664,134.308002 700.658667,133.84 C701.126669,133.371998 701.702997,133.138 702.387667,133.138 C703.072337,133.138 703.648664,133.371998 704.116667,133.84 C704.584669,134.308002 704.818667,134.88433 704.818667,135.569 C704.818667,136.25367 704.584669,136.829998 704.116667,137.298 Z M707.826,137.74 L707.826,134.438 C708.294002,134.021998 708.952662,133.450004 709.802,132.722 C710.651338,131.993996 711.309998,131.426335 711.778,131.019 C712.246002,130.611665 712.791997,130.100336 713.416,129.485 C714.040003,128.869664 714.507998,128.345336 714.82,127.912 C715.634671,126.785328 716.042,125.806004 716.042,124.974 C716.042,123.500659 715.392006,122.764 714.092,122.764 C713.467997,122.764 712.974002,122.984998 712.61,123.427 C712.245998,123.869002 712.064,124.505996 712.064,125.338 L707.774,125.338 C707.774,123.25799 708.376327,121.685005 709.581,120.619 C710.785673,119.552995 712.367324,119.02 714.326,119.02 C716.284676,119.02 717.809995,119.578994 718.902,120.697 C719.994005,121.815006 720.54,123.162659 720.54,124.74 C720.54,125.936006 720.280003,126.984662 719.76,127.886 C719.447998,128.406003 719.179334,128.847998 718.954,129.212 C718.728666,129.576002 718.356003,130.026664 717.836,130.564 C717.315997,131.101336 716.934668,131.491332 716.692,131.734 C716.449332,131.976668 716.003003,132.392664 715.353,132.982 C714.702997,133.571336 714.291334,133.952666 714.118,134.126 L720.878,134.126 L720.878,137.74 L707.826,137.74 Z M740.057333,133.892 C740.057333,132.730661 739.637004,132.15 738.796333,132.15 C737.955663,132.15 737.535333,132.730661 737.535333,133.892 C737.535333,135.053339 737.955663,135.634 738.796333,135.634 C739.637004,135.634 740.057333,135.053339 740.057333,133.892 Z M734.467333,133.892 C734.467333,132.505326 734.870329,131.43067 735.676333,130.668 C736.482337,129.90533 737.52666,129.524 738.809333,129.524 C740.092006,129.524 741.131996,129.90533 741.929333,130.668 C742.726671,131.43067 743.125333,132.505326 743.125333,133.892 C743.125333,135.278674 742.726671,136.35333 741.929333,137.116 C741.131996,137.87867 740.092006,138.26 738.809333,138.26 C737.52666,138.26 736.482337,137.87867 735.676333,137.116 C734.870329,136.35333 734.467333,135.278674 734.467333,133.892 Z M726.173333,138 L736.183333,119.696 L740.473333,119.696 L730.463333,138 L726.173333,138 Z M729.111333,123.804 C729.111333,122.642661 728.691004,122.062 727.850333,122.062 C727.009663,122.062 726.589333,122.642661 726.589333,123.804 C726.589333,124.965339 727.009663,125.546 727.850333,125.546 C728.691004,125.546 729.111333,124.965339 729.111333,123.804 Z M723.521333,123.804 C723.521333,122.417326 723.924329,121.34267 724.730333,120.58 C725.536337,119.81733 726.58066,119.436 727.863333,119.436 C729.146006,119.436 730.185996,119.81733 730.983333,120.58 C731.780671,121.34267 732.179333,122.417326 732.179333,123.804 C732.179333,125.190674 731.780671,126.26533 730.983333,127.028 C730.185996,127.79067 729.146006,128.172 727.863333,128.172 C726.58066,128.172 725.536337,127.79067 724.730333,127.028 C723.924329,126.26533 723.521333,125.190674 723.521333,123.804 Z" id="0.2%" fill="#FFFFFF"></path>
            </g>
        </g>
    </g>
</svg>